<?xml version="1.0" encoding="UTF-8"?>
<svg xmlns="http://www.w3.org/2000/svg" xmlns:xlink="http://www.w3.org/1999/xlink" width="214pt" height="512pt" viewBox="0 0 214 512" version="1.1">
<g id="surface1">
<path style="fill-rule:evenodd;fill:rgb(19.215393%,19.215393%,19.215393%);fill-opacity:1;stroke-width:1;stroke-linecap:butt;stroke-linejoin:miter;stroke:rgb(0%,0%,0%);stroke-opacity:1;stroke-miterlimit:10;" d="M 111.988336 10140.038186 L 111.988336 10208.001917 C 111.988336 10208.001917 165.023288 10261.996198 259.024868 10212.0044 L 259.024868 10137.997704 Z M 111.988336 10140.038186 " transform="matrix(0.0475807,0,0,0.0497738,0.0387097,-0.0011)"/>
<path style="fill-rule:evenodd;fill:rgb(19.215393%,19.215393%,19.215393%);fill-opacity:1;stroke-width:1;stroke-linecap:butt;stroke-linejoin:miter;stroke:rgb(0%,0%,0%);stroke-opacity:1;stroke-miterlimit:10;" d="M 4248.960903 10140.038186 L 4248.960903 10208.001917 C 4248.960903 10208.001917 4301.995855 10261.996198 4395.997434 10212.0044 L 4395.997434 10137.997704 Z M 4248.960903 10140.038186 " transform="matrix(0.0475807,0,0,0.0497738,0.0387097,-0.0011)"/>
<path style=" stroke:none;fill-rule:evenodd;fill:rgb(19.999695%,19.999695%,19.999695%);fill-opacity:1;" d="M 208.585938 504.355469 L 5.84375 504.355469 L 5.84375 1.195312 L 209.296875 1.195312 Z M 208.585938 504.355469 "/>
<path style=" stroke:none;fill-rule:evenodd;fill:rgb(39.99939%,40.391541%,39.99939%);fill-opacity:1;" d="M 1.179688 2.785156 L 1.179688 502.265625 L 212.675781 502.265625 L 212.675781 2.785156 Z M 1.179688 2.785156 "/>
<path style=" stroke:none;fill-rule:evenodd;fill:rgb(85.098267%,85.098267%,85.098267%);fill-opacity:1;" d="M 15.597656 2.738281 L 15.597656 500.671875 L 199.449219 500.671875 L 199.449219 2.738281 Z M 15.597656 2.738281 "/>
<path style=" stroke:none;fill-rule:evenodd;fill:rgb(92.156982%,91.372681%,91.764832%);fill-opacity:1;" d="M 27.875 504.707031 C 27.875 504.855469 27.730469 505.054688 27.589844 505.054688 L 5.652344 505.054688 C 5.511719 505.054688 5.414062 504.855469 5.414062 504.707031 L 5.414062 2.488281 C 5.414062 2.339844 5.511719 2.140625 5.652344 2.140625 L 27.589844 2.140625 C 27.730469 2.140625 27.875 2.339844 27.875 2.488281 Z M 27.875 504.707031 "/>
<path style=" stroke:none;fill-rule:evenodd;fill:rgb(92.156982%,91.372681%,91.764832%);fill-opacity:1;" d="M 209.296875 504.707031 C 209.296875 504.855469 209.203125 505.003906 209.058594 505.003906 L 187.125 505.003906 C 186.984375 505.003906 186.839844 504.855469 186.839844 504.707031 L 186.839844 2.4375 C 186.839844 2.289062 186.984375 2.140625 187.125 2.140625 L 209.058594 2.140625 C 209.203125 2.140625 209.296875 2.289062 209.296875 2.4375 Z M 209.296875 504.707031 "/>
<path style=" stroke:none;fill-rule:evenodd;fill:rgb(100%,100%,100%);fill-opacity:1;" d="M 178.132812 234.035156 C 175.707031 234.035156 173.660156 236.175781 173.660156 238.8125 L 173.660156 270.371094 C 173.660156 273.007812 175.707031 275.199219 178.132812 275.199219 C 180.605469 275.199219 182.605469 273.007812 182.605469 270.371094 L 182.605469 238.8125 C 182.605469 236.175781 180.605469 234.035156 178.132812 234.035156 Z M 178.132812 234.035156 "/>
<path style=" stroke:none;fill-rule:evenodd;fill:rgb(90.196228%,90.196228%,90.196228%);fill-opacity:1;" d="M 178.132812 235.230469 C 176.277344 235.230469 174.800781 236.871094 174.800781 238.8125 L 174.800781 270.371094 C 174.800781 272.410156 176.277344 273.953125 178.132812 273.953125 C 179.988281 273.953125 181.511719 272.410156 181.511719 270.371094 L 181.511719 238.8125 C 181.511719 236.871094 179.988281 235.230469 178.132812 235.230469 Z M 178.132812 235.230469 "/>
<path style=" stroke:none;fill-rule:evenodd;fill:rgb(94.902039%,94.902039%,94.902039%);fill-opacity:1;" d="M 178.132812 237.71875 C 176.515625 237.71875 175.136719 239.160156 175.136719 240.902344 L 175.136719 270.269531 C 175.136719 272.0625 176.515625 273.554688 178.132812 273.554688 C 179.796875 273.554688 181.179688 272.0625 181.179688 270.269531 L 181.179688 240.902344 C 181.179688 239.160156 179.796875 237.71875 178.132812 237.71875 Z M 178.132812 237.71875 "/>
<path style=" stroke:none;fill-rule:evenodd;fill:rgb(90.196228%,90.196228%,90.196228%);fill-opacity:1;" d="M 181.179688 264.097656 L 181.179688 271.515625 C 181.179688 273.308594 179.796875 274.699219 178.132812 274.699219 C 176.515625 274.699219 175.136719 273.308594 175.136719 271.515625 L 175.136719 264.097656 Z M 181.179688 264.097656 "/>
<path style=" stroke:none;fill-rule:evenodd;fill:rgb(70.196533%,70.588684%,70.588684%);fill-opacity:1;" d="M 179.894531 267.234375 C 179.894531 268.230469 179.085938 269.074219 178.132812 269.074219 C 177.179688 269.074219 176.371094 268.230469 176.371094 267.234375 C 176.371094 266.1875 177.179688 265.34375 178.132812 265.34375 C 179.085938 265.34375 179.894531 266.1875 179.894531 267.234375 "/>
<path style=" stroke:none;fill-rule:evenodd;fill:rgb(0%,0%,0%);fill-opacity:1;" d="M 177.703125 267.035156 L 177.703125 267.433594 L 179.75 267.433594 L 179.75 267.035156 Z M 177.703125 267.035156 "/>
<path style=" stroke:none;fill-rule:evenodd;fill:rgb(44.313049%,43.920898%,45.097351%);fill-opacity:1;" d="M 27.921875 3.433594 L 27.921875 19.011719 L 186.792969 19.011719 L 186.792969 3.433594 Z M 27.921875 3.433594 "/>
<path style=" stroke:none;fill-rule:evenodd;fill:rgb(92.941284%,10.980225%,14.117432%);fill-opacity:1;" d="M 27.921875 19.011719 L 27.921875 28.617188 L 186.792969 28.617188 L 186.792969 19.011719 Z M 27.921875 19.011719 "/>
<path style=" stroke:none;fill-rule:evenodd;fill:rgb(100%,100%,100%);fill-opacity:1;" d="M 157.007812 24.488281 C 157.007812 24.738281 157.007812 25.285156 157.769531 25.285156 C 158.195312 25.285156 158.480469 25.085938 158.480469 24.738281 C 158.480469 24.339844 158.246094 24.289062 157.769531 24.140625 C 156.769531 23.890625 156.246094 23.589844 156.246094 22.894531 C 156.246094 22.199219 156.722656 21.550781 157.863281 21.550781 C 158.246094 21.550781 158.769531 21.652344 159.054688 22.097656 C 159.292969 22.347656 159.292969 22.695312 159.292969 22.84375 L 158.433594 22.84375 C 158.433594 22.695312 158.386719 22.199219 157.816406 22.199219 C 157.386719 22.199219 157.148438 22.445312 157.148438 22.746094 C 157.148438 23.195312 157.433594 23.242188 158.007812 23.394531 C 158.71875 23.542969 159.386719 23.789062 159.386719 24.539062 C 159.386719 25.332031 158.816406 25.929688 157.671875 25.929688 C 156.152344 25.929688 156.152344 24.9375 156.152344 24.488281 Z M 157.007812 24.488281 "/>
<path style=" stroke:none;fill-rule:evenodd;fill:rgb(100%,100%,100%);fill-opacity:1;" d="M 160.003906 21.652344 L 161.242188 21.652344 C 161.8125 21.652344 162.335938 21.699219 162.621094 22.148438 C 162.859375 22.398438 162.859375 22.644531 162.859375 22.894531 C 162.859375 23.394531 162.667969 23.839844 162.382812 24.039062 C 162.050781 24.1875 161.671875 24.1875 161.480469 24.1875 L 160.859375 24.1875 L 160.859375 25.832031 L 160.003906 25.832031 Z M 160.859375 23.542969 L 161.195312 23.542969 C 161.480469 23.542969 162.003906 23.542969 162.003906 22.945312 C 162.003906 22.347656 161.527344 22.347656 161.242188 22.347656 L 160.859375 22.347656 Z M 160.859375 23.542969 "/>
<path style=" stroke:none;fill-rule:evenodd;fill:rgb(100%,100%,100%);fill-opacity:1;" d="M 165.144531 21.652344 L 166.523438 25.832031 L 165.621094 25.832031 L 165.382812 24.9375 L 163.765625 24.9375 L 163.476562 25.832031 L 162.667969 25.832031 L 164.144531 21.652344 Z M 165.144531 21.652344 "/>
<path style=" stroke:none;fill-rule:evenodd;fill:rgb(100%,100%,100%);fill-opacity:1;" d="M 165.144531 24.238281 L 164.574219 22.445312 L 164 24.238281 Z M 165.144531 24.238281 "/>
<path style=" stroke:none;fill-rule:evenodd;fill:rgb(100%,100%,100%);fill-opacity:1;" d="M 167 21.652344 L 168.523438 21.652344 C 168.949219 21.652344 169.425781 21.652344 169.757812 21.949219 C 169.996094 22.148438 170.09375 22.445312 170.09375 22.695312 C 170.09375 23.492188 169.472656 23.691406 169.234375 23.789062 C 169.855469 23.839844 169.902344 24.1875 169.949219 24.738281 C 169.996094 25.183594 170.042969 25.382812 170.09375 25.53125 C 170.140625 25.730469 170.140625 25.78125 170.1875 25.832031 L 169.234375 25.832031 C 169.1875 25.582031 169.09375 24.539062 169.046875 24.386719 C 168.949219 24.140625 168.757812 24.140625 168.617188 24.140625 L 167.855469 24.140625 L 167.855469 25.832031 L 167 25.832031 Z M 167.855469 23.441406 L 168.523438 23.441406 C 168.617188 23.441406 168.808594 23.441406 168.949219 23.34375 C 168.996094 23.292969 169.1875 23.195312 169.1875 22.894531 C 169.1875 22.597656 169.046875 22.445312 168.949219 22.398438 C 168.855469 22.296875 168.710938 22.296875 168.378906 22.296875 L 167.855469 22.296875 Z M 167.855469 23.441406 "/>
<path style=" stroke:none;fill-rule:evenodd;fill:rgb(100%,100%,100%);fill-opacity:1;" d="M 173.042969 23.042969 C 172.996094 22.894531 172.945312 22.296875 172.375 22.296875 C 171.710938 22.296875 171.472656 22.996094 171.472656 23.839844 C 171.472656 24.089844 171.472656 25.285156 172.28125 25.285156 C 172.613281 25.285156 172.996094 25.035156 173.042969 24.488281 L 173.945312 24.488281 C 173.898438 24.738281 173.898438 25.132812 173.519531 25.433594 C 173.183594 25.882812 172.707031 25.929688 172.375 25.929688 C 170.996094 25.929688 170.566406 24.886719 170.566406 23.839844 C 170.566406 22.496094 171.28125 21.601562 172.375 21.601562 C 173.28125 21.601562 173.898438 22.199219 173.898438 23.042969 Z M 173.042969 23.042969 "/>
<path style=" stroke:none;fill-rule:evenodd;fill:rgb(100%,100%,100%);fill-opacity:1;" d="M 162.8125 6.71875 C 162.667969 6.570312 162.382812 6.46875 162.050781 6.46875 C 161.382812 6.46875 160.8125 7.066406 160.8125 7.761719 C 160.8125 8.511719 161.382812 9.109375 162.050781 9.109375 C 162.480469 9.109375 162.8125 8.957031 163.003906 8.609375 L 163.003906 7.960938 C 162.90625 8.160156 162.667969 8.410156 162.429688 8.511719 C 162.335938 8.558594 162.242188 8.609375 162.050781 8.609375 C 161.621094 8.609375 161.242188 8.261719 161.242188 7.761719 C 161.242188 7.367188 161.621094 6.96875 162.050781 6.96875 C 162.289062 6.96875 162.480469 7.066406 162.621094 7.214844 C 162.765625 7.367188 163.003906 7.664062 163.144531 7.761719 C 163.429688 8.113281 163.8125 8.3125 164.285156 8.3125 C 165.144531 8.3125 165.855469 7.566406 165.855469 6.667969 C 165.855469 5.773438 165.144531 5.074219 164.285156 5.074219 C 163.765625 5.074219 163.335938 5.324219 163.003906 5.671875 L 163.003906 6.667969 C 163.289062 6.070312 163.621094 5.574219 164.285156 5.574219 C 164.90625 5.574219 165.332031 6.121094 165.332031 6.667969 C 165.332031 7.316406 164.90625 7.863281 164.285156 7.863281 C 164 7.863281 163.765625 7.714844 163.574219 7.566406 C 163.335938 7.367188 163.097656 6.96875 162.8125 6.71875 Z M 162.8125 6.71875 "/>
<path style=" stroke:none;fill-rule:evenodd;fill:rgb(100%,100%,100%);fill-opacity:1;" d="M 152.582031 9.457031 L 156.054688 9.457031 L 156.054688 10.453125 C 156.054688 10.453125 155.816406 10.101562 155.484375 10.054688 L 153.867188 10.054688 L 153.867188 11.796875 L 155.578125 11.796875 L 155.578125 12.742188 C 155.578125 12.742188 155.53125 12.394531 155.152344 12.394531 L 153.867188 12.394531 L 153.867188 14.78125 C 153.867188 15.128906 154.246094 15.378906 154.246094 15.378906 L 152.582031 15.378906 C 152.582031 15.378906 152.914062 15.128906 152.914062 14.78125 L 152.914062 10.101562 C 152.914062 9.65625 152.582031 9.457031 152.582031 9.457031 Z M 152.582031 9.457031 "/>
<path style=" stroke:none;fill-rule:evenodd;fill:rgb(100%,100%,100%);fill-opacity:1;" d="M 161.242188 9.457031 L 163.003906 9.457031 C 163.003906 9.457031 162.621094 9.65625 162.621094 10.003906 L 162.621094 15.527344 C 162.621094 17.371094 160.8125 17.667969 160.765625 17.667969 C 160.910156 17.570312 161.621094 16.871094 161.621094 15.527344 L 161.621094 10.003906 C 161.671875 9.65625 161.242188 9.457031 161.242188 9.457031 Z M 161.242188 9.457031 "/>
<path style=" stroke:none;fill-rule:evenodd;fill:rgb(100%,100%,100%);fill-opacity:1;" d="M 163.289062 9.457031 L 165.046875 9.457031 C 165.046875 9.457031 164.621094 9.65625 164.621094 10.003906 L 164.621094 14.78125 C 164.621094 15.128906 165.046875 15.378906 165.046875 15.378906 L 163.289062 15.378906 C 163.289062 15.378906 163.667969 15.128906 163.667969 14.78125 L 163.667969 10.003906 C 163.667969 9.65625 163.289062 9.457031 163.289062 9.457031 Z M 163.289062 9.457031 "/>
<path style=" stroke:none;fill-rule:evenodd;fill:rgb(100%,100%,100%);fill-opacity:1;" d="M 165.382812 9.457031 L 169.234375 9.457031 L 168.949219 10.5 C 168.949219 10.5 168.855469 10.101562 168.523438 10.101562 L 167.664062 10.101562 L 167.664062 14.78125 C 167.664062 15.082031 168.046875 15.378906 168.046875 15.378906 L 166.332031 15.378906 C 166.332031 15.378906 166.714844 15.082031 166.714844 14.78125 L 166.714844 10.101562 L 165.714844 10.101562 C 165.429688 10.101562 165.046875 10.652344 165.046875 10.652344 Z M 165.382812 9.457031 "/>
<path style=" stroke:none;fill-rule:evenodd;fill:rgb(100%,100%,100%);fill-opacity:1;" d="M 175.800781 9.457031 L 177.46875 9.457031 C 177.46875 9.457031 177.085938 9.65625 177.085938 10.003906 L 177.085938 13.585938 C 177.085938 14.980469 175.945312 15.476562 175.136719 15.476562 C 174.375 15.476562 173.136719 14.980469 173.136719 13.585938 L 173.136719 10.003906 C 173.136719 9.65625 172.707031 9.457031 172.707031 9.457031 L 174.46875 9.457031 C 174.46875 9.457031 174.089844 9.65625 174.089844 10.003906 L 174.089844 13.585938 C 174.089844 14.285156 174.566406 14.832031 175.136719 14.832031 C 175.753906 14.832031 176.132812 14.285156 176.132812 13.585938 L 176.132812 10.003906 C 176.132812 9.65625 175.800781 9.457031 175.800781 9.457031 Z M 175.800781 9.457031 "/>
<path style=" stroke:none;fill-rule:evenodd;fill:rgb(100%,100%,100%);fill-opacity:1;" d="M 159.195312 9.457031 L 160.957031 9.457031 C 160.957031 9.457031 160.625 9.65625 160.625 10.003906 C 160.625 10.003906 160.625 13.585938 160.625 13.585938 C 160.625 14.980469 159.386719 15.476562 158.53125 15.476562 C 157.816406 15.476562 156.53125 14.980469 156.53125 13.585938 L 156.53125 10.003906 C 156.53125 9.65625 156.199219 9.457031 156.199219 9.457031 L 157.957031 9.457031 C 157.957031 9.457031 157.53125 9.65625 157.53125 10.003906 L 157.53125 13.585938 C 157.53125 14.285156 158.007812 14.832031 158.53125 14.832031 C 159.148438 14.832031 159.625 14.285156 159.625 13.585938 L 159.625 10.003906 C 159.625 9.65625 159.195312 9.457031 159.195312 9.457031 Z M 159.195312 9.457031 "/>
<path style=" stroke:none;fill-rule:evenodd;fill:rgb(100%,100%,100%);fill-opacity:1;" d="M 172.234375 10.402344 C 172.234375 10.402344 171.949219 9.953125 171.28125 9.953125 C 170.566406 9.953125 170.140625 10.351562 170.140625 10.847656 C 170.140625 11.398438 170.566406 11.644531 171.234375 11.945312 C 171.804688 12.242188 172.707031 12.691406 172.707031 13.738281 C 172.707031 14.683594 171.898438 15.476562 170.472656 15.476562 C 170.042969 15.476562 169.425781 15.28125 169.425781 15.28125 L 169.09375 14.183594 C 169.425781 14.484375 169.949219 14.832031 170.519531 14.832031 C 171.042969 14.832031 171.757812 14.484375 171.757812 13.835938 C 171.757812 12.742188 169.1875 12.890625 169.1875 11 C 169.1875 10.300781 169.664062 9.355469 171.1875 9.355469 C 171.660156 9.355469 172.234375 9.503906 172.234375 9.503906 Z M 172.234375 10.402344 "/>
<path style=" stroke:none;fill-rule:evenodd;fill:rgb(100%,100%,100%);fill-opacity:1;" d="M 50.332031 24.339844 L 52.472656 24.339844 L 51.378906 22.445312 L 49.285156 25.882812 L 48.332031 25.882812 L 50.855469 21.75 C 50.949219 21.601562 51.140625 21.5 51.378906 21.5 C 51.570312 21.5 51.757812 21.601562 51.855469 21.75 L 54.375 25.882812 L 53.425781 25.882812 L 52.949219 25.085938 L 50.808594 25.085938 Z M 50.332031 24.339844 "/>
<path style=" stroke:none;fill-rule:evenodd;fill:rgb(100%,100%,100%);fill-opacity:1;" d="M 60.132812 25.085938 L 60.132812 21.5 L 59.324219 21.5 L 59.324219 25.433594 C 59.324219 25.53125 59.417969 25.683594 59.46875 25.730469 C 59.5625 25.832031 59.65625 25.882812 59.753906 25.882812 L 63.417969 25.882812 L 63.890625 25.085938 Z M 60.132812 25.085938 "/>
<path style=" stroke:none;fill-rule:evenodd;fill:rgb(100%,100%,100%);fill-opacity:1;" d="M 46.90625 24.4375 C 47.667969 24.4375 48.285156 23.839844 48.285156 22.996094 C 48.285156 22.199219 47.667969 21.5 46.90625 21.5 L 43.433594 21.5 L 43.433594 25.882812 L 44.242188 25.882812 L 44.242188 22.296875 L 46.859375 22.296875 C 47.238281 22.296875 47.523438 22.597656 47.523438 22.996094 C 47.523438 23.394531 47.238281 23.691406 46.859375 23.691406 L 44.574219 23.691406 L 47 25.882812 L 48.144531 25.882812 L 46.523438 24.4375 Z M 46.90625 24.4375 "/>
<path style=" stroke:none;fill-rule:evenodd;fill:rgb(100%,100%,100%);fill-opacity:1;" d="M 38.484375 25.882812 C 37.34375 25.882812 36.390625 24.886719 36.390625 23.691406 C 36.390625 22.496094 37.34375 21.5 38.484375 21.5 L 40.910156 21.5 C 42.050781 21.5 42.957031 22.496094 42.957031 23.691406 C 42.957031 24.886719 42.050781 25.882812 40.910156 25.882812 Z M 40.863281 25.085938 C 41.578125 25.085938 42.148438 24.4375 42.148438 23.691406 C 42.148438 22.945312 41.578125 22.296875 40.863281 22.296875 L 38.53125 22.296875 C 37.769531 22.296875 37.199219 22.945312 37.199219 23.691406 C 37.199219 24.4375 37.769531 25.085938 38.53125 25.085938 Z M 40.863281 25.085938 "/>
<path style=" stroke:none;fill-rule:evenodd;fill:rgb(100%,100%,100%);fill-opacity:1;" d="M 56.042969 25.882812 C 54.851562 25.882812 53.949219 24.886719 53.949219 23.691406 C 53.949219 22.496094 54.851562 21.5 56.042969 21.5 L 58.945312 21.5 L 58.421875 22.296875 L 56.089844 22.296875 C 55.375 22.296875 54.757812 22.945312 54.757812 23.691406 C 54.757812 24.4375 55.375 25.085938 56.089844 25.085938 L 58.992188 25.085938 L 58.515625 25.882812 Z M 56.042969 25.882812 "/>
<path style=" stroke:none;fill-rule:evenodd;fill:rgb(100%,100%,100%);fill-opacity:1;" d="M 65.84375 25.085938 C 65.222656 25.085938 64.75 24.636719 64.511719 24.089844 L 67.9375 24.089844 L 68.460938 23.292969 L 64.511719 23.292969 C 64.75 22.695312 65.222656 22.296875 65.84375 22.296875 L 68.175781 22.296875 L 68.648438 21.5 L 65.796875 21.5 C 64.605469 21.5 63.703125 22.496094 63.703125 23.691406 C 63.703125 24.886719 64.605469 25.882812 65.796875 25.882812 L 68.222656 25.882812 L 68.746094 25.085938 Z M 65.84375 25.085938 "/>
<path style=" stroke:none;fill-rule:evenodd;fill:rgb(100%,100%,100%);fill-opacity:1;" d="M 53.949219 13.339844 C 53.949219 14.035156 53.710938 14.632812 53.234375 15.082031 C 52.757812 15.527344 52.042969 15.777344 51.234375 15.777344 C 50.472656 15.777344 49.714844 15.527344 49 14.980469 L 49.285156 14.234375 C 49.949219 14.632812 50.523438 14.78125 50.996094 14.78125 C 51.519531 14.78125 51.855469 14.683594 52.140625 14.433594 C 52.425781 14.183594 52.617188 13.886719 52.617188 13.539062 C 52.617188 13.039062 52.28125 12.640625 51.664062 12.242188 C 51.09375 11.945312 50 11.246094 50 11.246094 C 49.332031 10.800781 49.046875 10.300781 49.046875 9.457031 C 49.046875 8.859375 49.285156 8.261719 49.761719 7.863281 C 50.1875 7.464844 50.808594 7.265625 51.519531 7.265625 C 52.28125 7.265625 52.902344 7.464844 53.519531 7.863281 L 53.234375 8.558594 C 52.710938 8.359375 52.140625 8.210938 51.664062 8.210938 C 51.234375 8.210938 50.949219 8.3125 50.757812 8.511719 C 50.523438 8.710938 50.332031 9.007812 50.332031 9.304688 C 50.332031 9.804688 50.710938 10.253906 51.378906 10.550781 C 51.902344 10.949219 53.042969 11.597656 53.042969 11.597656 C 53.660156 12.042969 53.949219 12.589844 53.949219 13.339844 Z M 53.949219 13.339844 "/>
<path style=" stroke:none;fill-rule:evenodd;fill:rgb(100%,100%,100%);fill-opacity:1;" d="M 61.226562 9.503906 L 62.179688 9.503906 L 62.273438 10.203125 C 62.84375 9.65625 63.464844 9.40625 64.082031 9.40625 C 65.273438 9.40625 65.890625 10.300781 65.890625 12.144531 C 65.890625 12.34375 65.890625 15.179688 65.890625 15.675781 L 64.605469 15.675781 C 64.605469 15.230469 64.605469 12.640625 64.605469 12.394531 C 64.605469 11.695312 64.558594 11.148438 64.414062 10.847656 C 64.273438 10.550781 64.035156 10.402344 63.652344 10.402344 C 63.320312 10.402344 62.894531 10.652344 62.417969 11.046875 L 62.417969 15.675781 L 61.226562 15.675781 Z M 61.226562 9.503906 "/>
<path style=" stroke:none;fill-rule:evenodd;fill:rgb(100%,100%,100%);fill-opacity:1;" d="M 59.703125 15.675781 L 58.707031 15.675781 L 58.609375 14.929688 C 58.039062 15.527344 57.421875 15.777344 56.800781 15.777344 C 55.613281 15.777344 55.042969 14.832031 55.042969 13.039062 C 55.042969 12.789062 55.042969 10.003906 55.042969 9.503906 L 56.230469 9.503906 C 56.230469 9.953125 56.230469 12.542969 56.230469 12.789062 C 56.230469 13.539062 56.328125 14.035156 56.46875 14.285156 C 56.613281 14.632812 56.898438 14.730469 57.183594 14.730469 C 57.515625 14.730469 57.992188 14.582031 58.515625 14.132812 L 58.515625 9.503906 L 59.703125 9.503906 Z M 59.703125 15.675781 "/>
<path style=" stroke:none;fill-rule:evenodd;fill:rgb(100%,100%,100%);fill-opacity:1;" d="M 42.765625 7.066406 L 44.71875 9.109375 L 45.242188 8.558594 L 43.289062 6.519531 C 43.097656 6.371094 42.859375 6.320312 42.671875 6.320312 C 42.480469 6.320312 42.242188 6.371094 42.050781 6.519531 C 41.910156 6.71875 41.863281 6.96875 41.863281 7.167969 C 41.863281 7.367188 41.910156 7.566406 42.050781 7.761719 L 44.003906 9.855469 L 44.527344 9.304688 L 42.574219 7.214844 L 42.574219 7.265625 C 42.527344 7.167969 42.527344 7.117188 42.574219 7.066406 C 42.625 7.015625 42.71875 7.015625 42.765625 7.066406 Z M 42.765625 7.066406 "/>
<path style=" stroke:none;fill-rule:evenodd;fill:rgb(100%,100%,100%);fill-opacity:1;" d="M 42.625 10.152344 L 40.671875 8.113281 L 40.148438 8.558594 L 42.101562 10.652344 C 42.242188 10.800781 42.480469 10.898438 42.71875 10.898438 C 42.910156 10.898438 43.097656 10.800781 43.289062 10.652344 C 43.433594 10.453125 43.527344 10.253906 43.527344 10.054688 C 43.527344 9.804688 43.433594 9.554688 43.289062 9.40625 L 41.292969 7.367188 L 40.816406 7.914062 L 42.8125 9.953125 C 42.859375 10.003906 42.859375 10.101562 42.8125 10.152344 C 42.765625 10.203125 42.671875 10.203125 42.625 10.152344 Z M 42.625 10.152344 "/>
<path style=" stroke:none;fill-rule:evenodd;fill:rgb(100%,100%,100%);fill-opacity:1;" d="M 38.4375 11.347656 L 40.433594 9.304688 L 39.957031 8.808594 L 38.007812 10.847656 C 37.816406 11 37.722656 11.199219 37.722656 11.445312 C 37.722656 11.695312 37.816406 11.894531 38.007812 12.042969 C 38.152344 12.195312 38.390625 12.292969 38.578125 12.292969 C 38.816406 12.292969 39.007812 12.195312 39.148438 12.042969 L 41.101562 10.003906 L 40.671875 9.503906 L 38.625 11.597656 C 38.578125 11.644531 38.484375 11.644531 38.4375 11.597656 C 38.390625 11.496094 38.390625 11.398438 38.4375 11.347656 Z M 38.4375 11.347656 "/>
<path style=" stroke:none;fill-rule:evenodd;fill:rgb(100%,100%,100%);fill-opacity:1;" d="M 41.433594 11.496094 L 39.433594 13.585938 L 39.957031 14.085938 L 41.910156 12.042969 C 42.050781 11.894531 42.148438 11.644531 42.148438 11.398438 C 42.148438 11.199219 42.050781 11 41.910156 10.800781 C 41.765625 10.652344 41.578125 10.550781 41.339844 10.550781 C 41.101562 10.550781 40.910156 10.652344 40.769531 10.800781 L 38.816406 12.839844 L 39.292969 13.339844 L 41.242188 11.296875 C 41.292969 11.246094 41.386719 11.246094 41.433594 11.296875 C 41.527344 11.347656 41.527344 11.445312 41.433594 11.496094 Z M 41.433594 11.496094 "/>
<path style=" stroke:none;fill-rule:evenodd;fill:rgb(100%,100%,100%);fill-opacity:1;" d="M 42.625 15.828125 L 40.671875 13.785156 L 40.148438 14.234375 L 42.101562 16.324219 C 42.242188 16.472656 42.480469 16.574219 42.71875 16.574219 C 42.910156 16.574219 43.097656 16.472656 43.289062 16.324219 C 43.480469 16.125 43.527344 15.925781 43.527344 15.675781 C 43.527344 15.476562 43.480469 15.230469 43.289062 15.082031 L 41.292969 13.039062 L 40.863281 13.585938 L 42.8125 15.628906 C 42.859375 15.675781 42.859375 15.777344 42.8125 15.828125 C 42.765625 15.875 42.671875 15.875 42.625 15.828125 Z M 42.625 15.828125 "/>
<path style=" stroke:none;fill-rule:evenodd;fill:rgb(100%,100%,100%);fill-opacity:1;" d="M 42.765625 12.742188 L 44.71875 14.78125 L 45.242188 14.234375 L 43.289062 12.195312 C 43.097656 12.042969 42.859375 11.996094 42.671875 11.996094 C 42.480469 11.996094 42.242188 12.042969 42.101562 12.195312 C 41.910156 12.394531 41.863281 12.640625 41.863281 12.839844 C 41.863281 13.039062 41.910156 13.238281 42.101562 13.488281 L 44.050781 15.476562 L 44.527344 14.980469 L 42.574219 12.890625 C 42.527344 12.839844 42.527344 12.789062 42.574219 12.742188 C 42.625 12.691406 42.71875 12.691406 42.765625 12.742188 Z M 42.765625 12.742188 "/>
<path style=" stroke:none;fill-rule:evenodd;fill:rgb(100%,100%,100%);fill-opacity:1;" d="M 46.90625 11.496094 L 44.90625 13.585938 L 45.429688 14.035156 L 47.382812 12.042969 C 47.523438 11.894531 47.621094 11.644531 47.621094 11.398438 C 47.621094 11.199219 47.523438 11 47.382812 10.800781 C 47.238281 10.652344 47 10.550781 46.761719 10.550781 C 46.574219 10.550781 46.382812 10.652344 46.191406 10.800781 L 44.242188 12.839844 L 44.71875 13.339844 L 46.714844 11.296875 C 46.761719 11.246094 46.859375 11.246094 46.953125 11.296875 C 47 11.347656 47 11.445312 46.90625 11.496094 Z M 46.90625 11.496094 "/>
<path style=" stroke:none;fill-rule:evenodd;fill:rgb(100%,100%,100%);fill-opacity:1;" d="M 43.90625 11.347656 L 45.859375 9.304688 L 45.429688 8.808594 L 43.480469 10.847656 C 43.289062 11 43.195312 11.199219 43.195312 11.398438 C 43.195312 11.695312 43.289062 11.894531 43.480469 12.042969 C 43.621094 12.195312 43.8125 12.292969 44.003906 12.292969 C 44.289062 12.292969 44.480469 12.195312 44.621094 12.042969 L 46.574219 10.003906 L 46.097656 9.503906 L 44.097656 11.597656 C 44.050781 11.644531 43.957031 11.644531 43.90625 11.597656 C 43.859375 11.496094 43.859375 11.398438 43.90625 11.347656 Z M 43.90625 11.347656 "/>
<path style=" stroke:none;fill-rule:evenodd;fill:rgb(100%,100%,100%);fill-opacity:1;" d="M 186.699219 28.667969 L 27.921875 28.667969 L 27.921875 499.726562 L 186.984375 499.726562 L 186.984375 279.480469 L 170.28125 279.480469 L 170.28125 230.699219 L 186.648438 230.699219 L 186.648438 29.117188 Z M 186.699219 28.667969 "/>
<path style=" stroke:none;fill-rule:evenodd;fill:rgb(92.156982%,91.372681%,91.764832%);fill-opacity:1;" d="M 129.933594 101.140625 C 129.933594 101.9375 129.363281 102.632812 128.554688 102.632812 L 86.445312 102.632812 C 85.683594 102.632812 85.066406 101.9375 85.066406 101.140625 L 85.066406 78.789062 C 85.066406 77.945312 85.683594 77.296875 86.445312 77.296875 L 128.554688 77.296875 C 129.363281 77.296875 129.933594 77.945312 129.933594 78.789062 Z M 129.933594 101.140625 "/>
<path style=" stroke:none;fill-rule:evenodd;fill:rgb(50.196838%,50.196838%,50.196838%);fill-opacity:1;" d="M 127.125 98.699219 C 127.125 99.246094 126.792969 99.597656 126.316406 99.597656 L 88.679688 99.597656 C 88.253906 99.597656 87.824219 99.246094 87.824219 98.699219 L 87.824219 88.296875 C 87.824219 87.847656 88.253906 87.402344 88.679688 87.402344 L 126.316406 87.402344 C 126.792969 87.402344 127.125 87.847656 127.125 88.296875 Z M 127.125 98.699219 "/>
<path style=" stroke:none;fill-rule:evenodd;fill:rgb(30.195618%,30.195618%,30.587769%);fill-opacity:1;" d="M 126.316406 98.453125 C 126.316406 98.601562 126.175781 98.699219 126.03125 98.699219 L 89.015625 98.699219 C 88.824219 98.699219 88.679688 98.601562 88.679688 98.453125 L 88.679688 88.644531 C 88.679688 88.496094 88.824219 88.296875 89.015625 88.296875 L 126.03125 88.296875 C 126.175781 88.296875 126.316406 88.496094 126.316406 88.644531 Z M 126.316406 98.453125 "/>
<path style=" stroke:none;fill-rule:evenodd;fill:rgb(39.99939%,40.391541%,39.99939%);fill-opacity:1;" d="M 113.804688 94.867188 C 113.804688 96.410156 112.613281 97.703125 111.140625 97.703125 C 109.710938 97.703125 108.476562 96.410156 108.476562 94.867188 C 108.476562 93.324219 109.710938 92.03125 111.140625 92.03125 C 112.613281 92.03125 113.804688 93.324219 113.804688 94.867188 "/>
<path style=" stroke:none;fill-rule:evenodd;fill:rgb(39.99939%,40.391541%,39.99939%);fill-opacity:1;" d="M 122.273438 94.867188 C 122.273438 96.410156 121.082031 97.703125 119.609375 97.703125 C 118.085938 97.703125 116.945312 96.410156 116.945312 94.867188 C 116.945312 93.324219 118.085938 92.03125 119.609375 92.03125 C 121.082031 92.03125 122.273438 93.324219 122.273438 94.867188 "/>
<path style=" stroke:none;fill-rule:evenodd;fill:rgb(39.99939%,40.391541%,39.99939%);fill-opacity:1;" d="M 94.011719 94.867188 C 94.011719 95.515625 93.535156 96.0625 92.917969 96.0625 C 92.296875 96.0625 91.820312 95.515625 91.820312 94.867188 C 91.820312 94.21875 92.296875 93.671875 92.917969 93.671875 C 93.535156 93.671875 94.011719 94.21875 94.011719 94.867188 "/>
<path style=" stroke:none;fill-rule:evenodd;fill:rgb(39.99939%,40.391541%,39.99939%);fill-opacity:1;" d="M 99.671875 94.867188 C 99.671875 95.515625 99.148438 96.0625 98.53125 96.0625 C 97.910156 96.0625 97.390625 95.515625 97.390625 94.867188 C 97.390625 94.21875 97.910156 93.671875 98.53125 93.671875 C 99.148438 93.671875 99.671875 94.21875 99.671875 94.867188 "/>
<path style=" stroke:none;fill-rule:evenodd;fill:rgb(39.99939%,40.391541%,39.99939%);fill-opacity:1;" d="M 105.285156 94.867188 C 105.285156 95.515625 104.765625 96.0625 104.144531 96.0625 C 103.527344 96.0625 103.003906 95.515625 103.003906 94.867188 C 103.003906 94.21875 103.527344 93.671875 104.144531 93.671875 C 104.765625 93.671875 105.285156 94.21875 105.285156 94.867188 "/>
<path style=" stroke:none;fill-rule:evenodd;fill:rgb(80.000305%,80.000305%,80.000305%);fill-opacity:1;" d="M 93.441406 91.582031 C 93.296875 91.433594 93.105469 91.382812 92.917969 91.382812 C 92.726562 91.382812 92.535156 91.433594 92.34375 91.582031 C 92.25 91.730469 92.15625 91.929688 92.15625 92.128906 C 92.15625 92.378906 92.25 92.578125 92.34375 92.675781 C 92.535156 92.828125 92.726562 92.925781 92.917969 92.925781 C 93.105469 92.925781 93.296875 92.828125 93.441406 92.675781 C 93.582031 92.578125 93.675781 92.378906 93.675781 92.128906 C 93.675781 91.929688 93.582031 91.730469 93.441406 91.582031 Z M 92.535156 91.683594 C 92.628906 91.582031 92.773438 91.484375 92.917969 91.484375 C 93.058594 91.484375 93.203125 91.582031 93.296875 91.683594 C 93.441406 91.78125 93.535156 91.929688 93.535156 92.082031 L 92.964844 92.480469 L 92.964844 91.632812 L 92.296875 92.082031 C 92.296875 91.929688 92.34375 91.78125 92.535156 91.683594 Z M 93.296875 92.628906 C 93.203125 92.726562 93.058594 92.777344 92.917969 92.777344 C 92.773438 92.777344 92.628906 92.726562 92.535156 92.628906 C 92.34375 92.527344 92.296875 92.378906 92.296875 92.179688 L 92.820312 91.832031 L 92.820312 92.628906 L 93.535156 92.179688 C 93.535156 92.378906 93.441406 92.527344 93.296875 92.628906 Z M 93.296875 92.628906 "/>
<path style=" stroke:none;fill-rule:evenodd;fill:rgb(80.000305%,80.000305%,80.000305%);fill-opacity:1;" d="M 104.144531 91.382812 L 103.242188 92.925781 L 105.050781 92.925781 Z M 104.144531 91.382812 "/>
<path style=" stroke:none;fill-rule:evenodd;fill:rgb(80.000305%,80.000305%,80.000305%);fill-opacity:1;" d="M 104.144531 91.582031 L 104.859375 92.828125 L 103.429688 92.828125 Z M 104.144531 91.582031 "/>
<path style=" stroke:none;fill-rule:evenodd;fill:rgb(80.000305%,80.000305%,80.000305%);fill-opacity:1;" d="M 104.191406 91.882812 C 104.191406 91.832031 104.191406 91.832031 104.144531 91.832031 C 104.144531 91.832031 104.097656 91.882812 104.097656 91.882812 C 104.097656 91.882812 104.097656 91.882812 104.097656 91.929688 C 104.097656 91.929688 104.097656 91.980469 104.097656 92.128906 C 104.097656 92.28125 104.097656 92.378906 104.144531 92.480469 C 104.191406 92.480469 104.191406 92.480469 104.191406 92.480469 C 104.191406 92.378906 104.191406 92.28125 104.191406 92.128906 C 104.242188 91.980469 104.242188 91.929688 104.242188 91.929688 C 104.242188 91.882812 104.191406 91.882812 104.191406 91.882812 "/>
<path style=" stroke:none;fill-rule:evenodd;fill:rgb(80.000305%,80.000305%,80.000305%);fill-opacity:1;" d="M 104.242188 92.628906 C 104.242188 92.628906 104.242188 92.675781 104.191406 92.675781 C 104.191406 92.675781 104.191406 92.675781 104.144531 92.675781 C 104.144531 92.675781 104.097656 92.675781 104.097656 92.675781 C 104.097656 92.675781 104.097656 92.628906 104.097656 92.628906 C 104.097656 92.628906 104.097656 92.578125 104.097656 92.578125 C 104.097656 92.578125 104.144531 92.578125 104.144531 92.578125 C 104.191406 92.578125 104.191406 92.578125 104.191406 92.578125 C 104.242188 92.578125 104.242188 92.628906 104.242188 92.628906 "/>
<path style=" stroke:none;fill-rule:evenodd;fill:rgb(80.000305%,80.000305%,80.000305%);fill-opacity:1;" d="M 99.195312 91.78125 C 99.148438 91.632812 99.007812 91.53125 98.863281 91.433594 L 98.816406 91.582031 C 98.910156 91.632812 99.007812 91.730469 99.101562 91.882812 C 99.195312 92.179688 99.101562 92.578125 98.816406 92.726562 C 98.484375 92.875 98.148438 92.726562 98.007812 92.429688 C 97.863281 92.082031 98.007812 91.730469 98.246094 91.582031 L 98.199219 91.433594 C 97.863281 91.632812 97.675781 92.082031 97.863281 92.480469 C 98.054688 92.875 98.433594 93.027344 98.863281 92.828125 C 99.195312 92.675781 99.386719 92.179688 99.195312 91.78125 Z M 99.195312 91.78125 "/>
<path style=" stroke:none;fill-rule:evenodd;fill:rgb(80.000305%,80.000305%,80.000305%);fill-opacity:1;" d="M 98.53125 91.234375 C 98.433594 91.234375 98.386719 91.382812 98.386719 91.433594 C 98.433594 91.484375 98.433594 91.53125 98.53125 91.53125 C 98.578125 91.53125 98.625 91.484375 98.625 91.433594 C 98.625 91.382812 98.578125 91.234375 98.53125 91.234375 "/>
<path style=" stroke:none;fill-rule:evenodd;fill:rgb(80.000305%,80.000305%,80.000305%);fill-opacity:1;" d="M 120.035156 90.1875 L 120.035156 89.941406 C 120.035156 89.839844 119.988281 89.691406 119.894531 89.589844 C 119.847656 89.542969 119.703125 89.441406 119.609375 89.441406 C 119.464844 89.441406 119.371094 89.542969 119.226562 89.589844 C 119.132812 89.691406 119.085938 89.839844 119.085938 89.941406 L 119.085938 90.1875 L 118.992188 90.1875 L 118.992188 91.234375 L 120.179688 91.234375 L 120.179688 90.1875 Z M 119.179688 89.941406 C 119.179688 89.839844 119.226562 89.742188 119.324219 89.691406 C 119.417969 89.640625 119.515625 89.589844 119.609375 89.589844 C 119.703125 89.589844 119.75 89.640625 119.847656 89.691406 C 119.894531 89.742188 119.941406 89.839844 119.941406 89.941406 L 119.941406 90.1875 L 119.179688 90.1875 Z M 120.035156 91.085938 L 119.085938 91.085938 L 119.085938 90.289062 L 120.035156 90.289062 Z M 120.035156 91.085938 "/>
<path style=" stroke:none;fill-rule:evenodd;fill:rgb(80.000305%,80.000305%,80.000305%);fill-opacity:1;" d="M 119.703125 90.984375 L 119.65625 90.6875 C 119.703125 90.6875 119.703125 90.6875 119.703125 90.636719 C 119.703125 90.636719 119.703125 90.636719 119.703125 90.585938 C 119.703125 90.539062 119.703125 90.539062 119.703125 90.488281 C 119.65625 90.488281 119.65625 90.4375 119.609375 90.4375 C 119.5625 90.4375 119.5625 90.4375 119.515625 90.488281 C 119.515625 90.488281 119.464844 90.488281 119.464844 90.539062 C 119.464844 90.585938 119.464844 90.585938 119.464844 90.636719 C 119.464844 90.6875 119.515625 90.6875 119.515625 90.6875 L 119.464844 90.984375 Z M 119.703125 90.984375 "/>
<path style=" stroke:none;fill-rule:evenodd;fill:rgb(80.000305%,80.000305%,80.000305%);fill-opacity:1;" d="M 123.796875 94.269531 C 123.796875 94.070312 123.605469 93.871094 123.464844 93.871094 C 123.414062 93.871094 123.367188 93.921875 123.367188 93.921875 C 123.367188 93.972656 123.367188 93.972656 123.367188 93.972656 L 123.511719 94.21875 C 123.511719 94.269531 123.511719 94.269531 123.511719 94.320312 L 123.367188 94.371094 C 123.367188 94.371094 123.320312 94.371094 123.320312 94.371094 L 123.226562 94.070312 C 123.175781 94.070312 123.175781 94.070312 123.128906 94.070312 C 123.128906 94.070312 123.082031 94.070312 123.082031 94.070312 C 123.082031 94.171875 123.035156 94.21875 123.035156 94.269531 C 123.035156 94.417969 123.082031 94.519531 123.175781 94.570312 C 123.226562 94.617188 123.226562 94.667969 123.226562 94.71875 L 123.226562 95.515625 C 123.226562 95.566406 123.273438 95.613281 123.320312 95.613281 L 123.414062 95.613281 C 123.464844 95.613281 123.511719 95.566406 123.511719 95.515625 L 123.511719 94.769531 C 123.511719 94.71875 123.558594 94.617188 123.605469 94.617188 C 123.699219 94.519531 123.796875 94.417969 123.796875 94.269531 Z M 123.796875 94.269531 "/>
<path style=" stroke:none;fill-rule:evenodd;fill:rgb(80.000305%,80.000305%,80.000305%);fill-opacity:1;" d="M 122.75 94.867188 C 122.75 94.917969 122.703125 95.066406 122.605469 95.066406 C 122.558594 95.066406 122.511719 94.917969 122.511719 94.867188 C 122.511719 94.769531 122.558594 94.71875 122.605469 94.71875 C 122.703125 94.71875 122.75 94.769531 122.75 94.867188 "/>
<path style=" stroke:none;fill-rule:evenodd;fill:rgb(80.000305%,80.000305%,80.000305%);fill-opacity:1;" d="M 119.703125 91.632812 C 119.703125 91.683594 119.65625 91.78125 119.609375 91.78125 C 119.515625 91.78125 119.464844 91.683594 119.464844 91.632812 C 119.464844 91.53125 119.515625 91.484375 119.609375 91.484375 C 119.65625 91.484375 119.703125 91.53125 119.703125 91.632812 "/>
<path style=" stroke:none;fill-rule:evenodd;fill:rgb(80.000305%,80.000305%,80.000305%);fill-opacity:1;" d="M 97.53125 96.957031 L 97.339844 96.558594 L 97.484375 96.558594 L 97.625 96.859375 L 97.769531 96.558594 L 98.007812 96.558594 L 97.722656 96.957031 L 98.007812 97.355469 L 97.863281 97.355469 L 97.625 97.058594 L 97.484375 97.355469 L 97.292969 97.355469 Z M 97.53125 96.957031 "/>
<path style=" stroke:none;fill-rule:evenodd;fill:rgb(80.000305%,80.000305%,80.000305%);fill-opacity:1;" d="M 98.484375 96.710938 C 98.433594 96.710938 98.386719 96.660156 98.339844 96.660156 C 98.292969 96.660156 98.199219 96.710938 98.199219 96.757812 C 98.199219 96.957031 98.53125 96.859375 98.53125 97.15625 C 98.53125 97.308594 98.386719 97.355469 98.246094 97.355469 C 98.199219 97.355469 98.148438 97.355469 98.101562 97.355469 L 98.101562 97.207031 C 98.148438 97.257812 98.199219 97.257812 98.246094 97.257812 C 98.292969 97.257812 98.386719 97.207031 98.386719 97.15625 C 98.386719 97.007812 98.054688 97.058594 98.054688 96.808594 C 98.054688 96.609375 98.199219 96.558594 98.292969 96.558594 C 98.386719 96.558594 98.433594 96.558594 98.484375 96.609375 Z M 98.484375 96.710938 "/>
<path style=" stroke:none;fill-rule:evenodd;fill:rgb(80.000305%,80.000305%,80.000305%);fill-opacity:1;" d="M 99.195312 97.355469 C 99.148438 97.355469 99.101562 97.355469 99.054688 97.355469 C 98.816406 97.355469 98.625 97.257812 98.625 97.007812 C 98.625 96.710938 98.816406 96.558594 99.054688 96.558594 C 99.101562 96.558594 99.148438 96.558594 99.195312 96.609375 L 99.195312 96.710938 C 99.148438 96.660156 99.101562 96.660156 99.054688 96.660156 C 98.910156 96.660156 98.816406 96.808594 98.816406 97.007812 C 98.816406 97.15625 98.910156 97.257812 99.054688 97.257812 C 99.101562 97.257812 99.148438 97.257812 99.195312 97.207031 Z M 99.195312 97.355469 "/>
<path style=" stroke:none;fill-rule:evenodd;fill:rgb(80.000305%,80.000305%,80.000305%);fill-opacity:1;" d="M 99.292969 96.558594 L 99.71875 96.558594 L 99.71875 96.710938 L 99.433594 96.710938 L 99.433594 96.859375 L 99.71875 96.859375 L 99.71875 97.058594 L 99.433594 97.058594 L 99.433594 97.355469 L 99.292969 97.355469 Z M 99.292969 96.558594 "/>
<path style=" stroke:none;fill-rule:evenodd;fill:rgb(60.00061%,60.00061%,60.00061%);fill-opacity:1;" d="M 121.796875 94.867188 C 121.796875 96.210938 120.796875 97.257812 119.609375 97.257812 C 118.324219 97.257812 117.324219 96.210938 117.324219 94.867188 C 117.324219 93.574219 118.324219 92.480469 119.609375 92.480469 C 120.796875 92.480469 121.796875 93.574219 121.796875 94.867188 "/>
<path style=" stroke:none;fill-rule:evenodd;fill:rgb(92.156982%,91.372681%,91.764832%);fill-opacity:1;" d="M 121.273438 94.867188 C 121.273438 95.863281 120.511719 96.660156 119.609375 96.660156 C 118.65625 96.660156 117.894531 95.863281 117.894531 94.867188 C 117.894531 93.871094 118.65625 93.074219 119.609375 93.074219 C 120.511719 93.074219 121.273438 93.871094 121.273438 94.867188 "/>
<path style=" stroke:none;fill-rule:evenodd;fill:rgb(60.00061%,60.00061%,60.00061%);fill-opacity:1;" d="M 120.988281 94.867188 C 120.988281 95.664062 120.371094 96.359375 119.609375 96.359375 C 118.800781 96.359375 118.179688 95.664062 118.179688 94.867188 C 118.179688 94.023438 118.800781 93.375 119.609375 93.375 C 120.371094 93.375 120.988281 94.023438 120.988281 94.867188 "/>
<path style=" stroke:none;fill-rule:evenodd;fill:rgb(0%,0%,0%);fill-opacity:1;" d="M 119.464844 94.21875 L 119.464844 95.566406 L 119.703125 95.566406 L 119.703125 94.21875 Z M 119.464844 94.21875 "/>
<path style=" stroke:none;fill-rule:evenodd;fill:rgb(54.902649%,77.6474%,25.097656%);fill-opacity:1;" d="M 93.628906 94.867188 C 93.628906 95.316406 93.296875 95.613281 92.917969 95.613281 C 92.535156 95.613281 92.203125 95.316406 92.203125 94.867188 C 92.203125 94.46875 92.535156 94.171875 92.917969 94.171875 C 93.296875 94.171875 93.628906 94.46875 93.628906 94.867188 "/>
<path style=" stroke:none;fill-rule:evenodd;fill:rgb(54.902649%,77.6474%,25.097656%);fill-opacity:1;" d="M 99.246094 94.867188 C 99.246094 95.316406 98.910156 95.613281 98.53125 95.613281 C 98.148438 95.613281 97.863281 95.316406 97.863281 94.867188 C 97.863281 94.46875 98.148438 94.171875 98.53125 94.171875 C 98.910156 94.171875 99.246094 94.46875 99.246094 94.867188 "/>
<path style=" stroke:none;fill-rule:evenodd;fill:rgb(98.039246%,92.941284%,13.725281%);fill-opacity:1;" d="M 104.8125 94.867188 C 104.8125 95.316406 104.527344 95.613281 104.144531 95.613281 C 103.765625 95.613281 103.429688 95.316406 103.429688 94.867188 C 103.429688 94.46875 103.765625 94.171875 104.144531 94.171875 C 104.527344 94.171875 104.8125 94.46875 104.8125 94.867188 "/>
<path style=" stroke:none;fill-rule:evenodd;fill:rgb(30.195618%,30.195618%,30.587769%);fill-opacity:1;" d="M 113.28125 94.867188 C 113.28125 96.113281 112.328125 97.109375 111.140625 97.109375 C 109.996094 97.109375 109.046875 96.113281 109.046875 94.867188 C 109.046875 93.625 109.996094 92.628906 111.140625 92.628906 C 112.328125 92.628906 113.28125 93.625 113.28125 94.867188 "/>
<path style=" stroke:none;fill-rule:evenodd;fill:rgb(0%,0%,0%);fill-opacity:1;" d="M 111.042969 93.671875 L 111.042969 94.917969 L 111.28125 94.917969 L 111.28125 93.671875 Z M 111.042969 93.671875 "/>
<path style=" stroke:none;fill-rule:evenodd;fill:rgb(0%,0%,0%);fill-opacity:1;" d="M 110.804688 94.171875 L 110.757812 93.972656 C 110.519531 94.070312 110.378906 94.320312 110.234375 94.570312 C 110.140625 94.816406 110.140625 95.117188 110.234375 95.367188 C 110.378906 95.566406 110.570312 95.765625 110.804688 95.863281 C 110.996094 96.011719 111.328125 96.011719 111.519531 95.863281 C 111.757812 95.765625 111.949219 95.566406 112.042969 95.367188 C 112.1875 95.117188 112.1875 94.816406 112.042969 94.570312 C 111.949219 94.320312 111.804688 94.070312 111.566406 93.972656 L 111.519531 94.171875 C 111.664062 94.269531 111.804688 94.417969 111.902344 94.617188 C 111.949219 94.816406 111.949219 95.066406 111.851562 95.265625 C 111.804688 95.464844 111.664062 95.613281 111.472656 95.664062 C 111.28125 95.765625 111.042969 95.765625 110.855469 95.664062 C 110.664062 95.613281 110.519531 95.464844 110.472656 95.265625 C 110.378906 95.066406 110.378906 94.816406 110.425781 94.617188 C 110.519531 94.417969 110.664062 94.269531 110.804688 94.171875 Z M 110.804688 94.171875 "/>
<path style=" stroke:none;fill-rule:evenodd;fill:rgb(50.196838%,50.98114%,52.157593%);fill-opacity:1;" d="M 88.15625 82.273438 C 88.15625 82.375 88.15625 82.671875 88.539062 82.671875 C 88.777344 82.671875 88.96875 82.574219 88.96875 82.375 C 88.96875 82.175781 88.777344 82.175781 88.539062 82.074219 C 88.0625 81.976562 87.730469 81.777344 87.730469 81.378906 C 87.730469 81.03125 88.015625 80.683594 88.585938 80.683594 C 88.777344 80.683594 89.109375 80.730469 89.253906 80.929688 C 89.347656 81.128906 89.347656 81.328125 89.347656 81.378906 L 88.917969 81.378906 C 88.917969 81.28125 88.917969 81.03125 88.539062 81.03125 C 88.347656 81.03125 88.207031 81.179688 88.207031 81.328125 C 88.207031 81.527344 88.394531 81.578125 88.679688 81.675781 C 89.0625 81.726562 89.394531 81.828125 89.394531 82.324219 C 89.394531 82.722656 89.109375 83.070312 88.492188 83.070312 C 87.683594 83.070312 87.683594 82.472656 87.683594 82.273438 Z M 88.15625 82.273438 "/>
<path style=" stroke:none;fill-rule:evenodd;fill:rgb(50.196838%,50.98114%,52.157593%);fill-opacity:1;" d="M 89.777344 80.730469 L 90.394531 80.730469 C 90.726562 80.730469 90.964844 80.730469 91.15625 80.929688 C 91.25 81.128906 91.25 81.28125 91.25 81.429688 C 91.25 81.675781 91.15625 81.875 91.011719 82.027344 C 90.871094 82.125 90.679688 82.125 90.488281 82.125 L 90.203125 82.125 L 90.203125 83.023438 L 89.777344 83.023438 Z M 90.203125 81.726562 L 90.394531 81.726562 C 90.488281 81.726562 90.824219 81.726562 90.824219 81.429688 C 90.824219 81.128906 90.535156 81.128906 90.394531 81.128906 L 90.203125 81.128906 Z M 90.203125 81.726562 "/>
<path style=" stroke:none;fill-rule:evenodd;fill:rgb(50.196838%,50.98114%,52.157593%);fill-opacity:1;" d="M 92.488281 80.730469 L 93.203125 83.023438 L 92.773438 83.023438 L 92.628906 82.523438 L 91.773438 82.523438 L 91.632812 83.023438 L 91.15625 83.023438 L 91.917969 80.730469 Z M 92.488281 80.730469 "/>
<path style=" stroke:none;fill-rule:evenodd;fill:rgb(50.196838%,50.98114%,52.157593%);fill-opacity:1;" d="M 92.535156 82.175781 L 92.203125 81.179688 L 91.871094 82.175781 Z M 92.535156 82.175781 "/>
<path style=" stroke:none;fill-rule:evenodd;fill:rgb(50.196838%,50.98114%,52.157593%);fill-opacity:1;" d="M 93.488281 80.730469 L 94.296875 80.730469 C 94.535156 80.730469 94.773438 80.730469 94.914062 80.882812 C 95.058594 81.03125 95.152344 81.179688 95.152344 81.328125 C 95.152344 81.726562 94.773438 81.828125 94.675781 81.828125 C 95.007812 81.875 95.007812 82.125 95.058594 82.375 C 95.058594 82.671875 95.152344 82.773438 95.152344 82.871094 C 95.199219 82.972656 95.199219 82.972656 95.199219 83.023438 L 94.675781 83.023438 C 94.675781 82.921875 94.628906 82.324219 94.582031 82.226562 C 94.535156 82.074219 94.4375 82.074219 94.34375 82.074219 L 93.914062 82.074219 L 93.914062 83.023438 L 93.488281 83.023438 Z M 93.914062 81.726562 L 94.296875 81.726562 C 94.34375 81.726562 94.484375 81.726562 94.535156 81.628906 C 94.582031 81.628906 94.628906 81.527344 94.628906 81.378906 C 94.628906 81.230469 94.582031 81.179688 94.535156 81.128906 C 94.484375 81.082031 94.390625 81.082031 94.25 81.082031 L 93.914062 81.082031 Z M 93.914062 81.726562 "/>
<path style=" stroke:none;fill-rule:evenodd;fill:rgb(50.196838%,50.98114%,52.157593%);fill-opacity:1;" d="M 96.675781 81.480469 C 96.675781 81.378906 96.628906 81.082031 96.34375 81.082031 C 95.960938 81.082031 95.820312 81.429688 95.820312 81.875 C 95.820312 82.074219 95.820312 82.671875 96.292969 82.671875 C 96.484375 82.671875 96.675781 82.574219 96.675781 82.273438 L 97.199219 82.273438 C 97.199219 82.425781 97.152344 82.625 97.007812 82.773438 C 96.769531 83.023438 96.53125 83.070312 96.34375 83.070312 C 95.628906 83.070312 95.390625 82.472656 95.390625 81.875 C 95.390625 81.179688 95.722656 80.683594 96.34375 80.683594 C 96.816406 80.683594 97.152344 81.03125 97.152344 81.480469 Z M 96.675781 81.480469 "/>
<path style=" stroke:none;fill-rule:evenodd;fill:rgb(50.196838%,50.98114%,52.157593%);fill-opacity:1;" d="M 98.292969 80.730469 L 99.769531 80.730469 L 99.769531 81.128906 L 98.769531 81.128906 L 98.769531 81.628906 L 99.671875 81.628906 L 99.671875 82.027344 L 98.769531 82.027344 L 98.769531 82.625 L 99.769531 82.625 L 99.769531 83.023438 L 98.292969 83.023438 Z M 98.292969 80.730469 "/>
<path style=" stroke:none;fill-rule:evenodd;fill:rgb(50.196838%,50.98114%,52.157593%);fill-opacity:1;" d="M 100.101562 80.730469 L 100.765625 80.730469 L 101.574219 82.523438 L 101.574219 80.730469 L 102.003906 80.730469 L 102.003906 83.023438 L 101.339844 83.023438 L 100.578125 81.128906 L 100.578125 83.023438 L 100.101562 83.023438 Z M 100.101562 80.730469 "/>
<path style=" stroke:none;fill-rule:evenodd;fill:rgb(50.196838%,50.98114%,52.157593%);fill-opacity:1;" d="M 102.859375 81.128906 L 102.242188 81.128906 L 102.242188 80.730469 L 103.953125 80.730469 L 103.953125 81.128906 L 103.382812 81.128906 L 103.382812 83.023438 L 102.859375 83.023438 Z M 102.859375 81.128906 "/>
<path style=" stroke:none;fill-rule:evenodd;fill:rgb(50.196838%,50.98114%,52.157593%);fill-opacity:1;" d="M 104.242188 80.730469 L 105.667969 80.730469 L 105.667969 81.128906 L 104.667969 81.128906 L 104.667969 81.628906 L 105.621094 81.628906 L 105.621094 82.027344 L 104.667969 82.027344 L 104.667969 82.625 L 105.714844 82.625 L 105.714844 83.023438 L 104.242188 83.023438 Z M 104.242188 80.730469 "/>
<path style=" stroke:none;fill-rule:evenodd;fill:rgb(50.196838%,50.98114%,52.157593%);fill-opacity:1;" d="M 106.046875 80.730469 L 106.855469 80.730469 C 107.09375 80.730469 107.332031 80.730469 107.476562 80.882812 C 107.667969 81.03125 107.714844 81.179688 107.714844 81.328125 C 107.714844 81.726562 107.332031 81.828125 107.238281 81.828125 C 107.523438 81.875 107.570312 82.125 107.570312 82.375 C 107.667969 82.671875 107.667969 82.773438 107.714844 82.871094 C 107.714844 82.972656 107.761719 82.972656 107.761719 83.023438 L 107.238281 83.023438 C 107.238281 82.921875 107.144531 82.324219 107.144531 82.226562 C 107.09375 82.074219 107 82.074219 106.90625 82.074219 L 106.476562 82.074219 L 106.476562 83.023438 L 106.046875 83.023438 Z M 106.476562 81.726562 L 106.855469 81.726562 C 106.90625 81.726562 107 81.726562 107.09375 81.628906 C 107.09375 81.628906 107.191406 81.527344 107.191406 81.378906 C 107.191406 81.230469 107.144531 81.179688 107.09375 81.128906 C 107 81.082031 106.953125 81.082031 106.808594 81.082031 L 106.476562 81.082031 Z M 106.476562 81.726562 "/>
<path style=" stroke:none;fill-rule:evenodd;fill:rgb(50.196838%,50.98114%,52.157593%);fill-opacity:1;" d="M 109.808594 80.730469 L 110.664062 80.730469 C 110.855469 80.730469 111.09375 80.730469 111.328125 80.882812 C 111.425781 81.03125 111.472656 81.179688 111.472656 81.328125 C 111.472656 81.726562 111.09375 81.828125 110.996094 81.828125 C 111.378906 81.875 111.378906 82.125 111.425781 82.375 C 111.472656 82.671875 111.472656 82.773438 111.472656 82.871094 C 111.519531 82.972656 111.519531 82.972656 111.566406 83.023438 L 110.996094 83.023438 C 110.996094 82.921875 110.949219 82.324219 110.902344 82.226562 C 110.855469 82.074219 110.757812 82.074219 110.710938 82.074219 L 110.28125 82.074219 L 110.28125 83.023438 L 109.808594 83.023438 Z M 110.234375 81.726562 L 110.664062 81.726562 C 110.710938 81.726562 110.804688 81.726562 110.855469 81.628906 C 110.902344 81.628906 110.996094 81.527344 110.996094 81.378906 C 110.996094 81.230469 110.902344 81.179688 110.855469 81.128906 C 110.804688 81.082031 110.710938 81.082031 110.570312 81.082031 L 110.234375 81.082031 Z M 110.234375 81.726562 "/>
<path style=" stroke:none;fill-rule:evenodd;fill:rgb(50.196838%,50.98114%,52.157593%);fill-opacity:1;" d="M 111.804688 80.683594 L 111.804688 83.023438 L 112.28125 83.023438 L 112.28125 80.683594 Z M 111.804688 80.683594 "/>
<path style=" stroke:none;fill-rule:evenodd;fill:rgb(50.196838%,50.98114%,52.157593%);fill-opacity:1;" d="M 113.042969 82.273438 C 113.042969 82.375 113.042969 82.671875 113.421875 82.671875 C 113.660156 82.671875 113.804688 82.574219 113.804688 82.375 C 113.804688 82.175781 113.660156 82.175781 113.421875 82.074219 C 112.851562 81.976562 112.613281 81.777344 112.613281 81.378906 C 112.613281 81.03125 112.851562 80.683594 113.472656 80.683594 C 113.660156 80.683594 113.996094 80.730469 114.136719 80.929688 C 114.230469 81.128906 114.230469 81.328125 114.230469 81.378906 L 113.757812 81.378906 C 113.757812 81.28125 113.757812 81.03125 113.421875 81.03125 C 113.234375 81.03125 113.089844 81.179688 113.089844 81.328125 C 113.089844 81.527344 113.28125 81.578125 113.566406 81.675781 C 113.945312 81.726562 114.28125 81.828125 114.28125 82.324219 C 114.28125 82.722656 113.996094 83.070312 113.375 83.070312 C 112.566406 83.070312 112.566406 82.472656 112.566406 82.273438 Z M 113.042969 82.273438 "/>
<path style=" stroke:none;fill-rule:evenodd;fill:rgb(50.196838%,50.98114%,52.157593%);fill-opacity:1;" d="M 114.613281 80.730469 L 116.089844 80.730469 L 116.089844 81.128906 L 115.089844 81.128906 L 115.089844 81.628906 L 116.039062 81.628906 L 116.039062 82.027344 L 115.089844 82.027344 L 115.089844 82.625 L 116.136719 82.625 L 116.136719 83.023438 L 114.613281 83.023438 Z M 114.613281 80.730469 "/>
<path style=" stroke:none;fill-rule:evenodd;fill:rgb(50.196838%,50.98114%,52.157593%);fill-opacity:1;" d="M 117.230469 80.730469 L 117.992188 80.730469 L 118.46875 82.375 L 118.941406 80.730469 L 119.65625 80.730469 L 119.65625 83.023438 L 119.179688 83.023438 L 119.179688 81.082031 L 118.65625 83.023438 L 118.230469 83.023438 L 117.707031 81.082031 L 117.707031 83.023438 L 117.230469 83.023438 Z M 117.230469 80.730469 "/>
<path style=" stroke:none;fill-rule:evenodd;fill:rgb(50.196838%,50.98114%,52.157593%);fill-opacity:1;" d="M 119.988281 81.230469 C 119.988281 80.929688 120.273438 80.582031 120.75 80.582031 C 121.226562 80.582031 121.558594 80.832031 121.558594 81.230469 C 121.558594 81.527344 121.320312 81.675781 121.132812 81.726562 C 121.226562 81.777344 121.371094 81.777344 121.464844 82.027344 C 121.558594 82.125 121.558594 82.226562 121.558594 82.324219 C 121.558594 82.773438 121.179688 83.070312 120.75 83.070312 C 120.324219 83.070312 119.941406 82.722656 119.941406 82.324219 C 119.941406 82.175781 120.035156 82.027344 120.179688 81.976562 C 120.273438 81.777344 120.371094 81.777344 120.417969 81.726562 C 120.324219 81.675781 119.988281 81.628906 119.988281 81.230469 Z M 121.132812 82.324219 C 121.132812 82.125 120.941406 81.976562 120.75 81.976562 C 120.609375 81.976562 120.464844 82.125 120.464844 82.324219 C 120.464844 82.574219 120.609375 82.671875 120.75 82.671875 C 120.894531 82.671875 121.132812 82.574219 121.132812 82.324219 Z M 121.082031 81.28125 C 121.082031 81.082031 120.894531 80.929688 120.75 80.929688 C 120.609375 80.929688 120.511719 81.082031 120.511719 81.28125 C 120.511719 81.429688 120.609375 81.527344 120.75 81.527344 C 120.941406 81.527344 121.082031 81.429688 121.082031 81.28125 Z M 121.082031 81.28125 "/>
<path style=" stroke:none;fill-rule:evenodd;fill:rgb(50.196838%,50.98114%,52.157593%);fill-opacity:1;" d="M 122.558594 80.582031 C 122.890625 80.582031 123.082031 80.730469 123.175781 80.882812 C 123.273438 81.082031 123.367188 81.328125 123.367188 81.726562 C 123.367188 82.324219 123.226562 83.070312 122.558594 83.070312 C 121.988281 83.070312 121.75 82.425781 121.75 81.777344 C 121.75 81.480469 121.84375 80.582031 122.558594 80.582031 Z M 122.796875 81.28125 C 122.796875 81.230469 122.703125 80.929688 122.558594 80.929688 C 122.417969 80.929688 122.367188 81.128906 122.367188 81.179688 C 122.273438 81.429688 122.273438 81.777344 122.273438 81.828125 C 122.273438 82.273438 122.320312 82.625 122.558594 82.625 C 122.796875 82.625 122.890625 82.175781 122.890625 81.828125 C 122.890625 81.675781 122.890625 81.429688 122.796875 81.28125 Z M 122.796875 81.28125 "/>
<path style=" stroke:none;fill-rule:evenodd;fill:rgb(50.196838%,50.98114%,52.157593%);fill-opacity:1;" d="M 124.320312 80.582031 C 124.699219 80.582031 124.84375 80.730469 124.9375 80.882812 C 125.03125 81.082031 125.128906 81.328125 125.128906 81.726562 C 125.128906 82.324219 125.03125 83.070312 124.320312 83.070312 C 123.796875 83.070312 123.558594 82.425781 123.558594 81.777344 C 123.558594 81.480469 123.605469 80.582031 124.320312 80.582031 Z M 124.558594 81.28125 C 124.558594 81.230469 124.507812 80.929688 124.367188 80.929688 C 124.222656 80.929688 124.175781 81.128906 124.128906 81.179688 C 124.082031 81.429688 124.082031 81.777344 124.082031 81.828125 C 124.082031 82.273438 124.128906 82.625 124.367188 82.625 C 124.652344 82.625 124.699219 82.175781 124.699219 81.828125 C 124.699219 81.675781 124.652344 81.429688 124.558594 81.28125 Z M 124.558594 81.28125 "/>
<path style=" stroke:none;fill-rule:evenodd;fill:rgb(50.196838%,50.98114%,52.157593%);fill-opacity:1;" d="M 126.128906 80.582031 C 126.460938 80.582031 126.652344 80.730469 126.746094 80.882812 C 126.839844 81.082031 126.9375 81.328125 126.9375 81.726562 C 126.9375 82.324219 126.792969 83.070312 126.128906 83.070312 C 125.605469 83.070312 125.367188 82.425781 125.367188 81.777344 C 125.367188 81.480469 125.414062 80.582031 126.128906 80.582031 Z M 126.367188 81.28125 C 126.367188 81.230469 126.316406 80.929688 126.128906 80.929688 C 125.984375 80.929688 125.9375 81.128906 125.9375 81.179688 C 125.84375 81.429688 125.84375 81.777344 125.84375 81.828125 C 125.84375 82.273438 125.890625 82.625 126.128906 82.625 C 126.367188 82.625 126.460938 82.175781 126.460938 81.828125 C 126.460938 81.675781 126.460938 81.429688 126.367188 81.28125 Z M 126.367188 81.28125 "/>
</g>
</svg>
