<?xml version="1.0" encoding="UTF-8"?>
<svg xmlns="http://www.w3.org/2000/svg" xmlns:xlink="http://www.w3.org/1999/xlink" width="476pt" height="512pt" viewBox="0 0 476 512" version="1.1">
<g id="surface1">
<path style=" stroke:none;fill-rule:nonzero;fill:rgb(14.901733%,14.901733%,14.901733%);fill-opacity:1;" d="M 5.742188 1.179688 L 5.742188 504.480469 L 236.816406 504.480469 L 236.816406 1.179688 Z M 5.742188 1.179688 "/>
<path style=" stroke:none;fill-rule:evenodd;fill:rgb(13.725281%,12.156677%,12.548828%);fill-opacity:1;" d="M 18.226562 500.34375 L 18.226562 499.609375 L 18.425781 499.609375 L 18.425781 499.660156 L 36.535156 499.660156 L 36.535156 499.609375 L 36.535156 499.820312 L 36.78125 499.820312 L 36.78125 500.34375 Z M 18.226562 500.34375 "/>
<path style=" stroke:none;fill-rule:evenodd;fill:rgb(13.725281%,12.156677%,12.548828%);fill-opacity:1;" d="M 36.78125 499.820312 L 36.78125 500.34375 L 205.777344 500.34375 L 205.777344 499.820312 Z M 36.78125 499.820312 "/>
<path style=" stroke:none;fill-rule:evenodd;fill:rgb(30.195618%,30.195618%,30.195618%);fill-opacity:1;" d="M 20.941406 2.804688 L 20.941406 504.113281 L 221.371094 504.113281 L 221.371094 2.804688 Z M 20.941406 2.804688 "/>
<path style=" stroke:none;fill-rule:evenodd;fill:rgb(25.097656%,25.097656%,25.097656%);fill-opacity:1;" d="M 1.992188 2.75 L 1.992188 504.113281 L 5.644531 504.113281 L 5.644531 2.75 Z M 1.992188 2.75 "/>
<path style=" stroke:none;fill-rule:evenodd;fill:rgb(25.097656%,25.097656%,25.097656%);fill-opacity:1;" d="M 236.765625 2.75 L 236.765625 504.113281 L 240.417969 504.113281 L 240.417969 2.75 Z M 236.765625 2.75 "/>
<path style=" stroke:none;fill-rule:evenodd;fill:rgb(85.098267%,85.098267%,85.098267%);fill-opacity:1;" d="M 29.035156 2.75 L 29.035156 499.820312 L 213.574219 499.820312 L 213.574219 2.75 Z M 29.035156 2.75 "/>
<path style=" stroke:none;fill-rule:evenodd;fill:rgb(100%,100%,100%);fill-opacity:1;" d="M 28.097656 31.828125 L 28.097656 497.878906 L 214.167969 497.878906 L 214.167969 31.828125 Z M 28.097656 31.828125 "/>
<path style=" stroke:none;fill-rule:evenodd;fill:rgb(92.156982%,91.372681%,91.372681%);fill-opacity:1;" d="M 198.082031 229.386719 L 198.082031 278.527344 L 214.464844 278.527344 L 214.464844 229.386719 Z M 198.082031 229.386719 "/>
<path style=" stroke:none;fill-rule:evenodd;fill:rgb(92.156982%,91.372681%,91.372681%);fill-opacity:1;" d="M 236.617188 504.113281 C 236.617188 504.273438 236.519531 504.378906 236.371094 504.378906 L 214.363281 504.378906 C 214.21875 504.378906 214.070312 504.273438 214.070312 504.113281 L 214.070312 2.75 C 214.070312 2.59375 214.21875 2.4375 214.363281 2.4375 L 236.371094 2.4375 C 236.519531 2.4375 236.617188 2.59375 236.617188 2.75 Z M 236.617188 504.113281 "/>
<path style=" stroke:none;fill-rule:evenodd;fill:rgb(44.313049%,43.920898%,45.097351%);fill-opacity:1;" d="M 28.738281 2.75 L 28.738281 21.140625 L 213.871094 21.140625 L 213.871094 2.75 Z M 28.738281 2.75 "/>
<path style=" stroke:none;fill-rule:evenodd;fill:rgb(92.941284%,10.980225%,14.117432%);fill-opacity:1;" d="M 28.738281 21.140625 L 28.738281 32.457031 L 213.871094 32.457031 L 213.871094 21.140625 Z M 28.738281 21.140625 "/>
<path style=" stroke:none;fill-rule:evenodd;fill:rgb(100%,100%,100%);fill-opacity:1;" d="M 179.132812 27.582031 C 179.132812 27.84375 179.132812 28.527344 179.972656 28.527344 C 180.515625 28.527344 180.859375 28.265625 180.859375 27.84375 C 180.859375 27.425781 180.566406 27.320312 179.972656 27.164062 C 178.886719 26.902344 178.246094 26.535156 178.246094 25.695312 C 178.246094 24.859375 178.789062 24.179688 180.121094 24.179688 C 180.613281 24.179688 181.15625 24.28125 181.503906 24.753906 C 181.796875 25.121094 181.796875 25.488281 181.796875 25.644531 L 180.8125 25.644531 C 180.8125 25.488281 180.761719 24.910156 180.070312 24.910156 C 179.578125 24.910156 179.28125 25.171875 179.28125 25.59375 C 179.28125 26.011719 179.628906 26.117188 180.316406 26.273438 C 181.109375 26.484375 181.898438 26.746094 181.898438 27.6875 C 181.898438 28.578125 181.207031 29.3125 179.921875 29.3125 C 178.148438 29.3125 178.097656 28.105469 178.097656 27.582031 Z M 179.132812 27.582031 "/>
<path style=" stroke:none;fill-rule:evenodd;fill:rgb(100%,100%,100%);fill-opacity:1;" d="M 182.636719 24.230469 L 184.070312 24.230469 C 184.757812 24.230469 185.300781 24.28125 185.695312 24.804688 C 185.945312 25.121094 185.992188 25.488281 185.992188 25.695312 C 185.992188 26.273438 185.746094 26.796875 185.402344 27.007812 C 185.054688 27.269531 184.5625 27.269531 184.316406 27.269531 L 183.625 27.269531 L 183.625 29.207031 L 182.636719 29.207031 Z M 183.625 26.484375 L 184.019531 26.484375 C 184.316406 26.484375 184.957031 26.484375 184.957031 25.75 C 184.957031 25.070312 184.414062 25.070312 184.117188 25.070312 L 183.625 25.070312 Z M 183.625 26.484375 "/>
<path style=" stroke:none;fill-rule:evenodd;fill:rgb(100%,100%,100%);fill-opacity:1;" d="M 188.609375 24.230469 L 190.234375 29.207031 L 189.199219 29.207031 L 188.855469 28.105469 L 187.027344 28.105469 L 186.683594 29.207031 L 185.695312 29.207031 L 187.421875 24.230469 Z M 188.609375 24.230469 "/>
<path style=" stroke:none;fill-rule:evenodd;fill:rgb(100%,100%,100%);fill-opacity:1;" d="M 188.609375 27.320312 L 187.964844 25.226562 L 187.277344 27.320312 Z M 188.609375 27.320312 "/>
<path style=" stroke:none;fill-rule:evenodd;fill:rgb(100%,100%,100%);fill-opacity:1;" d="M 190.730469 24.230469 L 192.554688 24.230469 C 193.046875 24.230469 193.589844 24.230469 193.9375 24.597656 C 194.28125 24.859375 194.429688 25.226562 194.429688 25.539062 C 194.429688 26.429688 193.589844 26.691406 193.394531 26.746094 C 194.132812 26.796875 194.183594 27.214844 194.28125 27.898438 C 194.332031 28.472656 194.382812 28.683594 194.429688 28.839844 C 194.480469 29.050781 194.480469 29.101562 194.578125 29.207031 L 193.394531 29.207031 C 193.34375 28.894531 193.195312 27.636719 193.148438 27.476562 C 193.046875 27.164062 192.800781 27.164062 192.652344 27.164062 L 191.765625 27.164062 L 191.765625 29.207031 L 190.730469 29.207031 Z M 191.714844 26.378906 L 192.554688 26.378906 C 192.652344 26.378906 192.902344 26.378906 193.046875 26.273438 C 193.097656 26.222656 193.296875 26.0625 193.296875 25.695312 C 193.296875 25.382812 193.148438 25.171875 193.046875 25.121094 C 192.902344 25.015625 192.703125 25.015625 192.40625 25.015625 L 191.714844 25.015625 Z M 191.714844 26.378906 "/>
<path style=" stroke:none;fill-rule:evenodd;fill:rgb(100%,100%,100%);fill-opacity:1;" d="M 197.785156 25.855469 C 197.785156 25.695312 197.734375 24.964844 197.046875 24.964844 C 196.304688 24.964844 196.007812 25.800781 196.007812 26.851562 C 196.007812 27.113281 196.007812 28.527344 196.945312 28.527344 C 197.390625 28.527344 197.785156 28.265625 197.785156 27.582031 L 198.871094 27.582031 C 198.820312 27.898438 198.820312 28.316406 198.425781 28.734375 C 198.03125 29.207031 197.488281 29.3125 197.09375 29.3125 C 195.464844 29.3125 194.921875 28.054688 194.921875 26.796875 C 194.921875 25.277344 195.761719 24.230469 197.09375 24.230469 C 198.082031 24.230469 198.820312 24.859375 198.820312 25.855469 Z M 197.785156 25.855469 "/>
<path style=" stroke:none;fill-rule:evenodd;fill:rgb(100%,100%,100%);fill-opacity:1;" d="M 185.945312 6.628906 C 185.695312 6.46875 185.351562 6.3125 185.007812 6.3125 C 184.214844 6.3125 183.527344 6.996094 183.527344 7.886719 C 183.527344 8.722656 184.214844 9.402344 185.007812 9.402344 C 185.5 9.457031 185.894531 9.246094 186.140625 8.878906 L 186.140625 8.042969 C 185.992188 8.304688 185.695312 8.617188 185.449219 8.777344 C 185.300781 8.828125 185.203125 8.828125 185.007812 8.828125 C 184.511719 8.828125 184.117188 8.410156 184.117188 7.886719 C 184.117188 7.359375 184.464844 6.890625 185.007812 6.890625 C 185.253906 6.890625 185.5 6.996094 185.695312 7.203125 C 185.84375 7.359375 186.140625 7.726562 186.238281 7.886719 C 186.585938 8.25 187.078125 8.511719 187.570312 8.511719 C 188.609375 8.511719 189.398438 7.675781 189.398438 6.574219 C 189.398438 5.527344 188.609375 4.636719 187.570312 4.636719 C 186.980469 4.636719 186.484375 4.949219 186.140625 5.421875 L 186.140625 6.574219 C 186.386719 5.839844 186.882812 5.265625 187.570312 5.265625 C 188.261719 5.265625 188.855469 5.839844 188.855469 6.574219 C 188.855469 7.308594 188.261719 7.886719 187.570312 7.886719 C 187.277344 7.886719 186.980469 7.78125 186.78125 7.570312 C 186.484375 7.359375 186.191406 6.890625 185.945312 6.628906 Z M 185.945312 6.628906 "/>
<path style=" stroke:none;fill-rule:evenodd;fill:rgb(100%,100%,100%);fill-opacity:1;" d="M 173.953125 9.875 L 178 9.875 L 178 11.027344 C 178 11.027344 177.800781 10.558594 177.359375 10.558594 L 175.484375 10.558594 L 175.484375 12.601562 L 177.503906 12.601562 L 177.503906 13.699219 C 177.503906 13.699219 177.457031 13.332031 176.964844 13.332031 L 175.484375 13.332031 L 175.484375 16.164062 C 175.484375 16.582031 175.925781 16.792969 175.925781 16.792969 L 174.003906 16.792969 C 174.003906 16.792969 174.398438 16.582031 174.398438 16.164062 L 174.398438 10.609375 C 174.398438 10.136719 173.953125 9.875 173.953125 9.875 Z M 173.953125 9.875 "/>
<path style=" stroke:none;fill-rule:evenodd;fill:rgb(100%,100%,100%);fill-opacity:1;" d="M 184.070312 9.875 L 186.140625 9.875 C 186.140625 9.875 185.695312 10.085938 185.695312 10.453125 L 185.695312 17 C 185.695312 19.199219 183.574219 19.566406 183.476562 19.515625 C 183.671875 19.410156 184.511719 18.625 184.511719 17 L 184.511719 10.453125 C 184.511719 10.136719 184.070312 9.875 184.070312 9.875 Z M 184.070312 9.875 "/>
<path style=" stroke:none;fill-rule:evenodd;fill:rgb(100%,100%,100%);fill-opacity:1;" d="M 186.4375 9.875 L 188.460938 9.875 C 188.460938 9.875 188.015625 10.085938 188.015625 10.453125 L 188.015625 16.164062 C 188.015625 16.582031 188.460938 16.792969 188.460938 16.792969 L 186.4375 16.792969 C 186.4375 16.792969 186.882812 16.582031 186.882812 16.164062 L 186.882812 10.453125 C 186.882812 10.085938 186.4375 9.875 186.4375 9.875 Z M 186.4375 9.875 "/>
<path style=" stroke:none;fill-rule:evenodd;fill:rgb(100%,100%,100%);fill-opacity:1;" d="M 188.902344 9.875 L 193.394531 9.875 L 193.046875 11.132812 C 193.046875 11.132812 192.902344 10.609375 192.507812 10.609375 L 191.519531 10.609375 L 191.519531 16.164062 C 191.519531 16.476562 191.964844 16.792969 191.964844 16.792969 L 189.988281 16.792969 C 189.988281 16.792969 190.382812 16.527344 190.382812 16.164062 L 190.382812 10.609375 L 189.296875 10.609375 C 188.953125 10.609375 188.507812 11.238281 188.507812 11.238281 Z M 188.902344 9.875 "/>
<path style=" stroke:none;fill-rule:evenodd;fill:rgb(100%,100%,100%);fill-opacity:1;" d="M 201.042969 9.875 L 203.015625 9.875 C 203.015625 9.875 202.570312 10.085938 202.570312 10.453125 L 202.570312 14.695312 C 202.570312 16.371094 201.238281 16.894531 200.300781 16.894531 C 199.363281 16.894531 197.933594 16.371094 197.933594 14.695312 L 197.933594 10.453125 C 197.933594 10.085938 197.488281 9.875 197.488281 9.875 L 199.511719 9.875 C 199.511719 9.875 199.070312 10.085938 199.070312 10.453125 L 199.070312 14.695312 C 199.070312 15.585938 199.660156 16.164062 200.300781 16.164062 C 200.945312 16.164062 201.488281 15.535156 201.488281 14.695312 L 201.488281 10.453125 C 201.488281 10.085938 201.042969 9.875 201.042969 9.875 Z M 201.042969 9.875 "/>
<path style=" stroke:none;fill-rule:evenodd;fill:rgb(100%,100%,100%);fill-opacity:1;" d="M 181.699219 9.875 L 183.722656 9.875 C 183.722656 9.875 183.328125 10.085938 183.328125 10.503906 C 183.328125 10.503906 183.328125 14.695312 183.328125 14.695312 C 183.328125 16.371094 181.898438 16.949219 180.960938 16.949219 C 180.023438 16.949219 178.589844 16.371094 178.589844 14.695312 L 178.589844 10.503906 C 178.589844 10.085938 178.195312 9.875 178.195312 9.875 L 180.21875 9.875 C 180.21875 9.875 179.726562 10.085938 179.726562 10.503906 L 179.726562 14.695312 C 179.726562 15.585938 180.316406 16.164062 180.960938 16.164062 C 181.601562 16.164062 182.144531 15.535156 182.144531 14.695312 L 182.144531 10.503906 C 182.144531 10.085938 181.699219 9.875 181.699219 9.875 Z M 181.699219 9.875 "/>
<path style=" stroke:none;fill-rule:evenodd;fill:rgb(100%,100%,100%);fill-opacity:1;" d="M 196.898438 10.976562 C 196.898438 10.976562 196.601562 10.453125 195.761719 10.453125 C 194.972656 10.453125 194.480469 10.871094 194.480469 11.5 C 194.480469 12.179688 194.972656 12.441406 195.714844 12.808594 C 196.402344 13.175781 197.488281 13.648438 197.488281 14.90625 C 197.488281 16.003906 196.550781 16.949219 194.875 16.949219 C 194.332031 16.949219 193.589844 16.738281 193.589844 16.738281 L 193.195312 15.429688 C 193.542969 15.796875 194.234375 16.164062 194.875 16.164062 C 195.566406 16.164062 196.355469 15.742188 196.355469 15.0625 C 196.355469 13.699219 193.296875 13.910156 193.296875 11.65625 C 193.296875 10.871094 193.839844 9.71875 195.664062 9.71875 C 196.257812 9.71875 196.898438 9.875 196.898438 9.875 Z M 196.898438 10.976562 "/>
<path style=" stroke:none;fill-rule:evenodd;fill:rgb(100%,100%,100%);fill-opacity:1;" d="M 54.839844 27.425781 L 57.308594 27.425781 L 56.023438 25.171875 L 53.605469 29.207031 L 52.472656 29.207031 L 55.433594 24.386719 C 55.53125 24.179688 55.777344 24.074219 56.023438 24.074219 C 56.222656 24.074219 56.46875 24.179688 56.566406 24.335938 L 59.527344 29.207031 L 58.390625 29.207031 L 57.898438 28.316406 L 55.382812 28.316406 Z M 54.839844 27.425781 "/>
<path style=" stroke:none;fill-rule:evenodd;fill:rgb(100%,100%,100%);fill-opacity:1;" d="M 66.238281 28.316406 L 66.238281 24.125 L 65.300781 24.125 L 65.300781 28.734375 C 65.300781 28.839844 65.351562 28.996094 65.449219 29.050781 C 65.546875 29.15625 65.644531 29.207031 65.792969 29.207031 L 70.039062 29.207031 L 70.578125 28.316406 Z M 66.238281 28.316406 "/>
<path style=" stroke:none;fill-rule:evenodd;fill:rgb(100%,100%,100%);fill-opacity:1;" d="M 50.84375 27.582031 C 51.730469 27.582031 52.472656 26.796875 52.472656 25.855469 C 52.472656 24.859375 51.730469 24.125 50.84375 24.125 L 46.746094 24.125 L 46.746094 29.207031 L 47.683594 29.207031 L 47.683594 25.015625 L 50.746094 25.015625 C 51.1875 25.015625 51.535156 25.382812 51.535156 25.855469 C 51.535156 26.273438 51.1875 26.640625 50.746094 26.640625 L 48.128906 26.640625 L 50.890625 29.207031 L 52.273438 29.207031 L 50.398438 27.582031 Z M 50.84375 27.582031 "/>
<path style=" stroke:none;fill-rule:evenodd;fill:rgb(100%,100%,100%);fill-opacity:1;" d="M 40.972656 29.207031 C 39.640625 29.207031 38.554688 28.054688 38.554688 26.640625 C 38.554688 25.226562 39.640625 24.125 40.972656 24.125 L 43.785156 24.125 C 45.117188 24.125 46.203125 25.226562 46.203125 26.640625 C 46.203125 28.054688 45.117188 29.207031 43.785156 29.207031 Z M 43.738281 28.316406 C 44.578125 28.316406 45.265625 27.582031 45.265625 26.640625 C 45.265625 25.75 44.578125 25.015625 43.738281 25.015625 L 41.023438 25.015625 C 40.136719 25.015625 39.445312 25.75 39.445312 26.640625 C 39.445312 27.582031 40.136719 28.316406 41.023438 28.316406 Z M 43.738281 28.316406 "/>
<path style=" stroke:none;fill-rule:evenodd;fill:rgb(100%,100%,100%);fill-opacity:1;" d="M 61.453125 29.207031 C 60.121094 29.207031 59.035156 28.054688 59.035156 26.640625 C 59.035156 25.226562 60.121094 24.125 61.453125 24.125 L 64.808594 24.125 L 64.265625 25.015625 L 61.5 25.015625 C 60.664062 25.015625 59.972656 25.75 59.972656 26.640625 C 59.972656 27.582031 60.664062 28.316406 61.5 28.316406 L 64.90625 28.316406 L 64.363281 29.207031 Z M 61.453125 29.207031 "/>
<path style=" stroke:none;fill-rule:evenodd;fill:rgb(100%,100%,100%);fill-opacity:1;" d="M 72.851562 28.316406 C 72.160156 28.316406 71.515625 27.792969 71.371094 27.113281 L 75.316406 27.113281 L 75.859375 26.222656 L 71.371094 26.222656 C 71.515625 25.539062 72.160156 25.015625 72.851562 25.015625 L 75.613281 25.015625 L 76.207031 24.125 L 72.800781 24.125 C 71.46875 24.125 70.382812 25.226562 70.382812 26.640625 C 70.382812 28.054688 71.46875 29.207031 72.800781 29.207031 L 75.664062 29.207031 L 76.253906 28.316406 Z M 72.851562 28.316406 "/>
<path style=" stroke:none;fill-rule:evenodd;fill:rgb(100%,100%,100%);fill-opacity:1;" d="M 59.035156 14.433594 C 59.035156 15.273438 58.785156 15.953125 58.195312 16.476562 C 57.601562 17 56.863281 17.261719 55.875 17.261719 C 54.9375 17.261719 54.097656 17 53.210938 16.371094 L 53.605469 15.535156 C 54.347656 15.902344 55.035156 16.109375 55.628906 16.109375 C 56.171875 16.109375 56.617188 16.003906 56.910156 15.742188 C 57.257812 15.480469 57.453125 15.113281 57.453125 14.644531 C 57.453125 14.066406 57.058594 13.542969 56.371094 13.125 C 55.679688 12.757812 54.394531 11.972656 54.394531 11.972656 C 53.703125 11.449219 53.359375 10.871094 53.359375 9.875 C 53.359375 9.089844 53.605469 8.460938 54.148438 7.9375 C 54.640625 7.464844 55.332031 7.203125 56.171875 7.203125 C 57.011719 7.203125 57.800781 7.464844 58.539062 7.9375 L 58.144531 8.777344 C 57.554688 8.511719 56.960938 8.410156 56.371094 8.410156 C 55.925781 8.410156 55.53125 8.511719 55.285156 8.777344 C 55.035156 8.984375 54.839844 9.300781 54.839844 9.667969 C 54.839844 10.242188 55.234375 10.765625 55.972656 11.183594 C 56.617188 11.550781 57.949219 12.390625 57.949219 12.390625 C 58.6875 12.914062 59.035156 13.492188 59.035156 14.433594 Z M 59.035156 14.433594 "/>
<path style=" stroke:none;fill-rule:evenodd;fill:rgb(100%,100%,100%);fill-opacity:1;" d="M 67.421875 9.929688 L 68.605469 9.929688 L 68.703125 10.765625 C 69.394531 10.085938 70.085938 9.769531 70.828125 9.769531 C 72.207031 9.769531 72.898438 10.871094 72.898438 13.019531 C 72.898438 13.28125 72.898438 16.582031 72.898438 17.15625 L 71.46875 17.15625 C 71.46875 16.6875 71.46875 13.59375 71.46875 13.332031 C 71.46875 12.441406 71.371094 11.867188 71.171875 11.5 C 71.023438 11.132812 70.726562 10.976562 70.332031 10.976562 C 69.9375 10.976562 69.445312 11.238281 68.851562 11.710938 L 68.851562 17.15625 L 67.421875 17.15625 Z M 67.421875 9.929688 "/>
<path style=" stroke:none;fill-rule:evenodd;fill:rgb(100%,100%,100%);fill-opacity:1;" d="M 65.695312 17.15625 L 64.558594 17.15625 L 64.460938 16.320312 C 63.769531 17 63.03125 17.316406 62.339844 17.316406 C 60.957031 17.316406 60.265625 16.214844 60.265625 14.066406 C 60.265625 13.804688 60.265625 10.503906 60.265625 9.929688 L 61.699219 9.929688 C 61.699219 10.398438 61.699219 13.492188 61.699219 13.753906 C 61.699219 14.644531 61.746094 15.21875 61.945312 15.585938 C 62.140625 15.902344 62.4375 16.109375 62.785156 16.109375 C 63.226562 16.109375 63.722656 15.847656 64.265625 15.375 L 64.265625 9.929688 L 65.695312 9.929688 Z M 65.695312 17.15625 "/>
<path style=" stroke:none;fill-rule:evenodd;fill:rgb(100%,100%,100%);fill-opacity:1;" d="M 45.957031 6.996094 L 48.277344 9.402344 L 48.871094 8.828125 L 46.597656 6.417969 C 46.402344 6.207031 46.105469 6.105469 45.859375 6.105469 C 45.613281 6.105469 45.367188 6.207031 45.167969 6.417969 C 44.972656 6.628906 44.871094 6.890625 44.871094 7.152344 C 44.871094 7.414062 44.972656 7.675781 45.167969 7.832031 L 47.488281 10.242188 L 48.078125 9.667969 L 45.710938 7.203125 C 45.660156 7.152344 45.660156 7.046875 45.710938 6.996094 C 45.761719 6.941406 45.859375 6.941406 45.957031 6.996094 Z M 45.957031 6.996094 "/>
<path style=" stroke:none;fill-rule:evenodd;fill:rgb(100%,100%,100%);fill-opacity:1;" d="M 45.761719 10.660156 L 43.492188 8.25 L 42.898438 8.828125 L 45.167969 11.238281 C 45.367188 11.449219 45.613281 11.550781 45.859375 11.550781 C 46.105469 11.550781 46.402344 11.449219 46.597656 11.238281 C 46.796875 11.027344 46.894531 10.765625 46.894531 10.503906 C 46.894531 10.242188 46.796875 9.980469 46.597656 9.769531 L 44.28125 7.359375 L 43.6875 7.988281 L 46.007812 10.453125 C 46.058594 10.503906 46.058594 10.609375 46.007812 10.660156 C 45.957031 10.714844 45.859375 10.714844 45.761719 10.660156 Z M 45.761719 10.660156 "/>
<path style=" stroke:none;fill-rule:evenodd;fill:rgb(100%,100%,100%);fill-opacity:1;" d="M 40.925781 12.074219 L 43.242188 9.667969 L 42.703125 9.039062 L 40.429688 11.449219 C 40.234375 11.65625 40.136719 11.917969 40.136719 12.179688 C 40.136719 12.441406 40.234375 12.703125 40.429688 12.914062 C 40.578125 13.125 40.828125 13.230469 41.074219 13.230469 C 41.320312 13.230469 41.566406 13.125 41.765625 12.914062 L 44.035156 10.503906 L 43.492188 9.875 L 41.171875 12.339844 C 41.121094 12.390625 41.023438 12.390625 40.925781 12.339844 C 40.875 12.285156 40.875 12.179688 40.925781 12.074219 Z M 40.925781 12.074219 "/>
<path style=" stroke:none;fill-rule:evenodd;fill:rgb(100%,100%,100%);fill-opacity:1;" d="M 44.429688 12.285156 L 42.109375 14.695312 L 42.703125 15.273438 L 44.972656 12.863281 C 45.167969 12.703125 45.265625 12.441406 45.265625 12.179688 C 45.265625 11.917969 45.167969 11.65625 44.972656 11.449219 C 44.773438 11.238281 44.527344 11.132812 44.28125 11.132812 C 44.035156 11.132812 43.785156 11.238281 43.589844 11.449219 L 41.320312 13.855469 L 41.910156 14.484375 L 44.230469 12.023438 C 44.28125 11.972656 44.378906 11.972656 44.429688 12.023438 C 44.476562 12.074219 44.476562 12.179688 44.429688 12.285156 Z M 44.429688 12.285156 "/>
<path style=" stroke:none;fill-rule:evenodd;fill:rgb(100%,100%,100%);fill-opacity:1;" d="M 45.808594 17.367188 L 43.492188 14.90625 L 42.898438 15.535156 L 45.21875 17.945312 C 45.367188 18.152344 45.613281 18.257812 45.859375 18.257812 C 46.105469 18.257812 46.402344 18.152344 46.597656 17.945312 C 46.796875 17.734375 46.894531 17.472656 46.894531 17.210938 C 46.894531 16.949219 46.796875 16.6875 46.597656 16.476562 L 44.28125 14.066406 L 43.6875 14.695312 L 46.007812 17.15625 L 46.007812 17.105469 C 46.058594 17.210938 46.058594 17.316406 46.007812 17.367188 C 45.957031 17.417969 45.859375 17.417969 45.808594 17.367188 Z M 45.808594 17.367188 "/>
<path style=" stroke:none;fill-rule:evenodd;fill:rgb(100%,100%,100%);fill-opacity:1;" d="M 45.957031 13.699219 L 48.328125 16.109375 L 48.871094 15.535156 L 46.597656 13.125 C 46.402344 12.914062 46.105469 12.808594 45.859375 12.808594 C 45.613281 12.808594 45.367188 12.914062 45.167969 13.125 C 44.972656 13.332031 44.871094 13.59375 44.871094 13.855469 C 44.871094 14.121094 44.972656 14.382812 45.167969 14.539062 L 47.488281 16.949219 L 48.078125 16.371094 L 45.710938 13.910156 C 45.660156 13.855469 45.660156 13.753906 45.710938 13.699219 C 45.761719 13.59375 45.859375 13.59375 45.957031 13.699219 Z M 45.957031 13.699219 "/>
<path style=" stroke:none;fill-rule:evenodd;fill:rgb(100%,100%,100%);fill-opacity:1;" d="M 50.84375 12.234375 L 48.523438 14.695312 L 49.066406 15.273438 L 51.386719 12.863281 C 51.582031 12.703125 51.632812 12.441406 51.632812 12.179688 C 51.632812 11.917969 51.582031 11.65625 51.386719 11.449219 C 51.1875 11.238281 50.941406 11.132812 50.695312 11.132812 C 50.449219 11.132812 50.203125 11.238281 50.003906 11.449219 L 47.734375 13.855469 L 48.277344 14.433594 L 50.597656 12.023438 C 50.644531 11.972656 50.792969 11.972656 50.84375 12.023438 C 50.890625 12.074219 50.890625 12.179688 50.84375 12.234375 Z M 50.84375 12.234375 "/>
<path style=" stroke:none;fill-rule:evenodd;fill:rgb(100%,100%,100%);fill-opacity:1;" d="M 47.339844 12.074219 L 49.660156 9.667969 L 49.066406 9.039062 L 46.796875 11.449219 C 46.597656 11.65625 46.5 11.917969 46.5 12.179688 C 46.5 12.441406 46.597656 12.703125 46.796875 12.914062 C 46.996094 13.125 47.242188 13.230469 47.488281 13.230469 C 47.734375 13.230469 47.980469 13.125 48.179688 12.914062 L 50.449219 10.503906 L 49.855469 9.875 L 47.585938 12.339844 C 47.488281 12.390625 47.390625 12.390625 47.339844 12.339844 C 47.289062 12.285156 47.289062 12.179688 47.339844 12.074219 Z M 47.339844 12.074219 "/>
<path style=" stroke:none;fill-rule:evenodd;fill:rgb(92.156982%,91.372681%,91.372681%);fill-opacity:1;" d="M 28.589844 504.113281 C 28.589844 504.273438 28.441406 504.378906 28.292969 504.378906 L 6.335938 504.378906 C 6.1875 504.378906 6.039062 504.273438 6.039062 504.113281 L 6.039062 2.75 C 6.039062 2.59375 6.1875 2.4375 6.335938 2.4375 L 28.292969 2.4375 C 28.441406 2.4375 28.589844 2.59375 28.589844 2.75 Z M 28.589844 504.113281 "/>
<path style=" stroke:none;fill-rule:evenodd;fill:rgb(92.156982%,91.372681%,91.372681%);fill-opacity:1;" d="M 143.855469 100.929688 C 143.855469 101.765625 143.210938 102.394531 142.421875 102.394531 L 100.136719 102.394531 C 99.347656 102.394531 98.753906 101.765625 98.753906 100.929688 L 98.753906 78.664062 C 98.753906 77.824219 99.347656 77.144531 100.136719 77.144531 L 142.421875 77.144531 C 143.210938 77.144531 143.855469 77.824219 143.855469 78.664062 Z M 143.855469 100.929688 "/>
<path style=" stroke:none;fill-rule:evenodd;fill:rgb(50.196838%,50.196838%,50.196838%);fill-opacity:1;" d="M 141.042969 98.570312 C 141.042969 99.042969 140.648438 99.460938 140.203125 99.460938 L 102.40625 99.460938 C 101.914062 99.460938 101.566406 99.042969 101.566406 98.570312 L 101.566406 88.144531 C 101.566406 87.671875 101.914062 87.253906 102.40625 87.253906 L 140.203125 87.253906 C 140.648438 87.253906 141.042969 87.671875 141.042969 88.144531 Z M 141.042969 98.570312 "/>
<path style=" stroke:none;fill-rule:evenodd;fill:rgb(25.881958%,25.881958%,25.881958%);fill-opacity:1;" d="M 140.203125 98.257812 C 140.203125 98.414062 140.054688 98.570312 139.90625 98.570312 L 102.652344 98.570312 C 102.503906 98.570312 102.40625 98.414062 102.40625 98.257812 L 102.40625 88.460938 C 102.40625 88.300781 102.503906 88.144531 102.652344 88.144531 L 139.90625 88.144531 C 140.054688 88.144531 140.203125 88.300781 140.203125 88.460938 Z M 140.203125 98.257812 "/>
<path style=" stroke:none;fill-rule:evenodd;fill:rgb(50.196838%,50.196838%,50.196838%);fill-opacity:1;" d="M 127.621094 94.695312 C 127.621094 96.265625 126.4375 97.523438 124.957031 97.523438 C 123.476562 97.523438 122.292969 96.265625 122.292969 94.695312 C 122.292969 93.121094 123.476562 91.863281 124.957031 91.863281 C 126.4375 91.863281 127.621094 93.121094 127.621094 94.695312 "/>
<path style=" stroke:none;fill-rule:evenodd;fill:rgb(50.196838%,50.196838%,50.196838%);fill-opacity:1;" d="M 136.105469 94.695312 C 136.105469 96.265625 134.875 97.523438 133.394531 97.523438 C 131.914062 97.523438 130.730469 96.265625 130.730469 94.695312 C 130.730469 93.121094 131.914062 91.863281 133.394531 91.863281 C 134.875 91.863281 136.105469 93.121094 136.105469 94.695312 "/>
<path style=" stroke:none;fill-rule:evenodd;fill:rgb(50.196838%,50.196838%,50.196838%);fill-opacity:1;" d="M 107.785156 94.695312 C 107.785156 95.324219 107.289062 95.898438 106.648438 95.898438 C 106.058594 95.898438 105.515625 95.324219 105.515625 94.695312 C 105.515625 94.011719 106.058594 93.488281 106.648438 93.488281 C 107.289062 93.488281 107.785156 94.011719 107.785156 94.695312 "/>
<path style=" stroke:none;fill-rule:evenodd;fill:rgb(50.196838%,50.196838%,50.196838%);fill-opacity:1;" d="M 113.410156 94.695312 C 113.410156 95.324219 112.917969 95.898438 112.273438 95.898438 C 111.683594 95.898438 111.140625 95.324219 111.140625 94.695312 C 111.140625 94.011719 111.683594 93.488281 112.273438 93.488281 C 112.917969 93.488281 113.410156 94.011719 113.410156 94.695312 "/>
<path style=" stroke:none;fill-rule:evenodd;fill:rgb(50.196838%,50.196838%,50.196838%);fill-opacity:1;" d="M 119.035156 94.695312 C 119.035156 95.324219 118.542969 95.898438 117.898438 95.898438 C 117.308594 95.898438 116.8125 95.324219 116.8125 94.695312 C 116.8125 94.011719 117.308594 93.488281 117.898438 93.488281 C 118.542969 93.488281 119.035156 94.011719 119.035156 94.695312 "/>
<path style=" stroke:none;fill-rule:evenodd;fill:rgb(74.510193%,75.294495%,76.078796%);fill-opacity:1;" d="M 107.191406 91.394531 C 107.042969 91.289062 106.847656 91.183594 106.648438 91.183594 C 106.453125 91.183594 106.253906 91.289062 106.15625 91.394531 C 106.007812 91.550781 105.910156 91.761719 105.910156 91.96875 C 105.910156 92.179688 106.007812 92.386719 106.15625 92.546875 C 106.253906 92.652344 106.453125 92.753906 106.648438 92.753906 C 106.847656 92.753906 107.042969 92.652344 107.191406 92.546875 C 107.339844 92.386719 107.390625 92.179688 107.390625 91.96875 C 107.390625 91.761719 107.339844 91.550781 107.191406 91.394531 Z M 106.253906 91.496094 C 106.351562 91.394531 106.5 91.339844 106.648438 91.339844 C 106.796875 91.339844 106.945312 91.394531 107.09375 91.496094 C 107.191406 91.601562 107.242188 91.761719 107.289062 91.917969 L 106.75 92.285156 L 106.75 91.445312 L 106.058594 91.917969 C 106.058594 91.761719 106.15625 91.601562 106.253906 91.496094 Z M 107.09375 92.441406 C 106.945312 92.546875 106.796875 92.597656 106.648438 92.597656 C 106.5 92.597656 106.351562 92.546875 106.253906 92.441406 C 106.105469 92.335938 106.058594 92.179688 106.058594 92.023438 L 106.601562 91.65625 L 106.601562 92.441406 L 107.289062 92.023438 C 107.242188 92.179688 107.191406 92.335938 107.09375 92.441406 Z M 107.09375 92.441406 "/>
<path style=" stroke:none;fill-rule:evenodd;fill:rgb(74.510193%,75.294495%,76.078796%);fill-opacity:1;" d="M 117.898438 91.183594 L 117.011719 92.753906 L 118.835938 92.753906 Z M 117.898438 91.183594 "/>
<path style=" stroke:none;fill-rule:evenodd;fill:rgb(74.510193%,75.294495%,76.078796%);fill-opacity:1;" d="M 117.898438 91.394531 L 118.640625 92.652344 L 117.207031 92.652344 Z M 117.898438 91.394531 "/>
<path style=" stroke:none;fill-rule:evenodd;fill:rgb(74.510193%,75.294495%,76.078796%);fill-opacity:1;" d="M 117.949219 91.707031 C 117.949219 91.707031 117.949219 91.65625 117.898438 91.65625 C 117.898438 91.65625 117.851562 91.707031 117.851562 91.707031 C 117.851562 91.707031 117.851562 91.761719 117.851562 91.761719 C 117.851562 91.761719 117.851562 91.863281 117.851562 91.96875 C 117.851562 92.074219 117.851562 92.179688 117.851562 92.285156 C 117.851562 92.285156 117.898438 92.285156 117.898438 92.285156 C 117.949219 92.285156 117.949219 92.285156 117.949219 92.285156 C 117.949219 92.179688 117.949219 92.074219 117.949219 91.96875 C 117.949219 91.863281 118 91.761719 118 91.761719 C 118 91.761719 117.949219 91.707031 117.949219 91.707031 "/>
<path style=" stroke:none;fill-rule:evenodd;fill:rgb(74.510193%,75.294495%,76.078796%);fill-opacity:1;" d="M 118 92.441406 C 118 92.492188 118 92.492188 117.949219 92.492188 C 117.949219 92.492188 117.949219 92.546875 117.898438 92.546875 C 117.898438 92.546875 117.851562 92.492188 117.851562 92.492188 C 117.851562 92.492188 117.851562 92.492188 117.851562 92.441406 C 117.851562 92.441406 117.851562 92.386719 117.851562 92.386719 C 117.851562 92.386719 117.898438 92.386719 117.898438 92.386719 C 117.949219 92.386719 117.949219 92.386719 117.949219 92.386719 C 118 92.386719 118 92.441406 118 92.441406 "/>
<path style=" stroke:none;fill-rule:evenodd;fill:rgb(74.510193%,75.294495%,76.078796%);fill-opacity:1;" d="M 112.964844 91.65625 C 112.867188 91.445312 112.769531 91.339844 112.621094 91.234375 L 112.570312 91.394531 C 112.667969 91.445312 112.769531 91.550781 112.816406 91.707031 C 112.964844 92.023438 112.867188 92.386719 112.519531 92.546875 C 112.226562 92.703125 111.878906 92.546875 111.730469 92.230469 C 111.582031 91.917969 111.730469 91.550781 112.027344 91.394531 L 111.980469 91.234375 C 111.582031 91.445312 111.4375 91.917969 111.632812 92.285156 C 111.78125 92.703125 112.226562 92.859375 112.621094 92.703125 C 112.964844 92.492188 113.164062 92.023438 112.964844 91.65625 Z M 112.964844 91.65625 "/>
<path style=" stroke:none;fill-rule:evenodd;fill:rgb(74.510193%,75.294495%,76.078796%);fill-opacity:1;" d="M 112.273438 91.132812 C 112.226562 91.132812 112.175781 91.183594 112.175781 91.234375 C 112.175781 91.289062 112.226562 91.339844 112.273438 91.339844 C 112.324219 91.339844 112.375 91.289062 112.421875 91.234375 C 112.421875 91.183594 112.375 91.132812 112.273438 91.132812 "/>
<path style=" stroke:none;fill-rule:evenodd;fill:rgb(74.510193%,75.294495%,76.078796%);fill-opacity:1;" d="M 133.886719 90.03125 L 133.886719 89.769531 C 133.886719 89.664062 133.835938 89.507812 133.738281 89.402344 C 133.640625 89.351562 133.492188 89.296875 133.394531 89.296875 C 133.246094 89.296875 133.148438 89.351562 133.046875 89.402344 C 132.949219 89.507812 132.898438 89.664062 132.898438 89.769531 L 132.898438 90.03125 L 132.800781 90.03125 L 132.800781 91.078125 L 133.984375 91.078125 L 133.984375 90.03125 Z M 133 89.769531 C 133 89.664062 133.046875 89.613281 133.148438 89.507812 C 133.195312 89.453125 133.292969 89.402344 133.394531 89.402344 C 133.492188 89.402344 133.589844 89.453125 133.640625 89.507812 C 133.738281 89.613281 133.738281 89.664062 133.738281 89.769531 L 133.738281 90.03125 L 133 90.03125 Z M 133.886719 90.921875 L 132.898438 90.921875 L 132.898438 90.136719 L 133.886719 90.136719 Z M 133.886719 90.921875 "/>
<path style=" stroke:none;fill-rule:evenodd;fill:rgb(74.510193%,75.294495%,76.078796%);fill-opacity:1;" d="M 133.542969 90.871094 L 133.441406 90.554688 C 133.492188 90.503906 133.492188 90.503906 133.492188 90.503906 C 133.542969 90.449219 133.542969 90.449219 133.542969 90.398438 C 133.542969 90.34375 133.542969 90.34375 133.492188 90.292969 C 133.492188 90.292969 133.441406 90.242188 133.394531 90.242188 C 133.394531 90.242188 133.34375 90.242188 133.292969 90.292969 C 133.292969 90.292969 133.246094 90.292969 133.246094 90.34375 C 133.246094 90.398438 133.246094 90.398438 133.246094 90.449219 C 133.246094 90.503906 133.292969 90.503906 133.292969 90.554688 L 133.246094 90.871094 Z M 133.542969 90.871094 "/>
<path style=" stroke:none;fill-rule:evenodd;fill:rgb(74.510193%,75.294495%,76.078796%);fill-opacity:1;" d="M 137.636719 94.117188 C 137.636719 93.90625 137.488281 93.75 137.292969 93.699219 C 137.292969 93.699219 137.242188 93.75 137.242188 93.804688 L 137.390625 94.066406 C 137.390625 94.066406 137.390625 94.117188 137.390625 94.117188 L 137.242188 94.167969 C 137.242188 94.167969 137.191406 94.167969 137.191406 94.167969 L 137.042969 93.960938 C 137.042969 93.90625 137.042969 93.90625 136.996094 93.90625 C 136.945312 93.90625 136.945312 93.90625 136.945312 93.90625 C 136.898438 93.960938 136.898438 94.011719 136.898438 94.117188 C 136.898438 94.222656 136.945312 94.328125 137.042969 94.378906 C 137.09375 94.433594 137.09375 94.484375 137.09375 94.535156 L 137.09375 95.324219 C 137.09375 95.375 137.144531 95.425781 137.191406 95.425781 L 137.292969 95.425781 C 137.339844 95.425781 137.390625 95.375 137.390625 95.324219 L 137.390625 94.589844 C 137.390625 94.535156 137.441406 94.484375 137.488281 94.433594 C 137.585938 94.378906 137.636719 94.222656 137.636719 94.117188 Z M 137.636719 94.117188 "/>
<path style=" stroke:none;fill-rule:evenodd;fill:rgb(74.510193%,75.294495%,76.078796%);fill-opacity:1;" d="M 136.648438 94.695312 C 136.648438 94.746094 136.601562 94.851562 136.5 94.851562 C 136.402344 94.851562 136.355469 94.746094 136.355469 94.695312 C 136.355469 94.589844 136.402344 94.535156 136.5 94.535156 C 136.601562 94.535156 136.648438 94.589844 136.648438 94.695312 "/>
<path style=" stroke:none;fill-rule:evenodd;fill:rgb(74.510193%,75.294495%,76.078796%);fill-opacity:1;" d="M 133.542969 91.445312 C 133.542969 91.496094 133.441406 91.601562 133.394531 91.601562 C 133.292969 91.601562 133.246094 91.496094 133.246094 91.445312 C 133.246094 91.339844 133.292969 91.289062 133.394531 91.289062 C 133.441406 91.289062 133.542969 91.339844 133.542969 91.445312 "/>
<path style=" stroke:none;fill-rule:evenodd;fill:rgb(74.510193%,75.294495%,76.078796%);fill-opacity:1;" d="M 111.289062 96.738281 L 111.089844 96.371094 L 111.238281 96.371094 L 111.4375 96.683594 L 111.582031 96.371094 L 111.730469 96.371094 L 111.484375 96.738281 L 111.730469 97.15625 L 111.582031 97.15625 L 111.386719 96.839844 L 111.238281 97.15625 L 111.089844 97.15625 Z M 111.289062 96.738281 "/>
<path style=" stroke:none;fill-rule:evenodd;fill:rgb(74.510193%,75.294495%,76.078796%);fill-opacity:1;" d="M 112.226562 96.527344 C 112.175781 96.527344 112.125 96.476562 112.078125 96.476562 C 112.027344 96.476562 111.980469 96.527344 111.980469 96.632812 C 111.980469 96.738281 112.273438 96.683594 112.273438 96.945312 C 112.273438 97.105469 112.175781 97.15625 112.027344 97.15625 C 111.929688 97.15625 111.929688 97.15625 111.832031 97.15625 L 111.832031 97 C 111.878906 97.050781 111.980469 97.050781 112.027344 97.050781 C 112.078125 97.050781 112.125 97.050781 112.125 96.945312 C 112.125 96.789062 111.832031 96.894531 111.832031 96.632812 C 111.832031 96.421875 111.929688 96.371094 112.078125 96.371094 C 112.125 96.371094 112.226562 96.371094 112.273438 96.421875 Z M 112.226562 96.527344 "/>
<path style=" stroke:none;fill-rule:evenodd;fill:rgb(74.510193%,75.294495%,76.078796%);fill-opacity:1;" d="M 112.964844 97.15625 C 112.917969 97.15625 112.867188 97.15625 112.816406 97.15625 C 112.570312 97.15625 112.375 97.050781 112.375 96.789062 C 112.375 96.527344 112.570312 96.371094 112.816406 96.371094 C 112.867188 96.371094 112.917969 96.371094 112.964844 96.421875 L 112.964844 96.527344 C 112.917969 96.527344 112.867188 96.476562 112.816406 96.476562 C 112.667969 96.476562 112.570312 96.632812 112.570312 96.789062 C 112.570312 96.945312 112.621094 97.050781 112.816406 97.050781 C 112.867188 97.050781 112.917969 97.050781 112.964844 97 Z M 112.964844 97.15625 "/>
<path style=" stroke:none;fill-rule:evenodd;fill:rgb(74.510193%,75.294495%,76.078796%);fill-opacity:1;" d="M 113.0625 96.371094 L 113.457031 96.371094 L 113.457031 96.527344 L 113.210938 96.527344 L 113.210938 96.683594 L 113.457031 96.683594 L 113.457031 96.839844 L 113.210938 96.839844 L 113.210938 97.15625 L 113.0625 97.15625 Z M 113.0625 96.371094 "/>
<path style=" stroke:none;fill-rule:evenodd;fill:rgb(70.196533%,69.804382%,70.196533%);fill-opacity:1;" d="M 135.710938 94.695312 C 135.710938 96.003906 134.625 97.050781 133.394531 97.050781 C 132.160156 97.050781 131.125 96.003906 131.125 94.695312 C 131.125 93.382812 132.160156 92.285156 133.394531 92.285156 C 134.625 92.285156 135.710938 93.382812 135.710938 94.695312 "/>
<path style=" stroke:none;fill-rule:evenodd;fill:rgb(94.902039%,94.902039%,94.902039%);fill-opacity:1;" d="M 135.121094 94.695312 C 135.121094 95.6875 134.332031 96.476562 133.394531 96.476562 C 132.457031 96.476562 131.714844 95.6875 131.714844 94.695312 C 131.714844 93.699219 132.457031 92.914062 133.394531 92.914062 C 134.332031 92.914062 135.121094 93.699219 135.121094 94.695312 "/>
<path style=" stroke:none;fill-rule:evenodd;fill:rgb(60.00061%,60.00061%,60.00061%);fill-opacity:1;" d="M 134.773438 94.695312 C 134.773438 95.53125 134.183594 96.160156 133.394531 96.160156 C 132.605469 96.160156 131.960938 95.53125 131.960938 94.695312 C 131.960938 93.855469 132.605469 93.226562 133.394531 93.226562 C 134.183594 93.226562 134.773438 93.855469 134.773438 94.695312 "/>
<path style=" stroke:none;fill-rule:evenodd;fill:rgb(19.999695%,19.999695%,19.999695%);fill-opacity:1;" d="M 133.246094 94.011719 L 133.246094 95.375 L 133.542969 95.375 L 133.542969 94.011719 Z M 133.246094 94.011719 "/>
<path style=" stroke:none;fill-rule:evenodd;fill:rgb(40.391541%,40.391541%,40.391541%);fill-opacity:1;" d="M 127.175781 94.695312 C 127.175781 96.003906 126.1875 97.050781 124.957031 97.050781 C 123.722656 97.050781 122.6875 96.003906 122.6875 94.695312 C 122.6875 93.382812 123.722656 92.285156 124.957031 92.285156 C 126.1875 92.285156 127.175781 93.382812 127.175781 94.695312 "/>
<path style=" stroke:none;fill-rule:evenodd;fill:rgb(54.510498%,77.255249%,25.097656%);fill-opacity:1;" d="M 107.390625 94.695312 C 107.390625 95.113281 107.042969 95.425781 106.648438 95.425781 C 106.253906 95.425781 105.957031 95.113281 105.957031 94.695312 C 105.957031 94.273438 106.253906 93.960938 106.648438 93.960938 C 107.042969 93.960938 107.390625 94.273438 107.390625 94.695312 "/>
<path style=" stroke:none;fill-rule:evenodd;fill:rgb(54.510498%,77.255249%,25.097656%);fill-opacity:1;" d="M 113.015625 94.695312 C 113.015625 95.113281 112.667969 95.425781 112.273438 95.425781 C 111.878906 95.425781 111.582031 95.113281 111.582031 94.695312 C 111.582031 94.273438 111.878906 93.960938 112.273438 93.960938 C 112.667969 93.960938 113.015625 94.273438 113.015625 94.695312 "/>
<path style=" stroke:none;fill-rule:evenodd;fill:rgb(98.039246%,92.549133%,13.33313%);fill-opacity:1;" d="M 118.640625 94.695312 C 118.640625 95.113281 118.292969 95.425781 117.898438 95.425781 C 117.503906 95.425781 117.207031 95.113281 117.207031 94.695312 C 117.207031 94.273438 117.503906 93.960938 117.898438 93.960938 C 118.292969 93.960938 118.640625 94.273438 118.640625 94.695312 "/>
<path style=" stroke:none;fill-rule:evenodd;fill:rgb(19.999695%,19.999695%,19.999695%);fill-opacity:1;" d="M 124.855469 93.488281 L 124.855469 94.746094 L 125.054688 94.746094 L 125.054688 93.488281 Z M 124.855469 93.488281 "/>
<path style=" stroke:none;fill-rule:evenodd;fill:rgb(19.999695%,19.999695%,19.999695%);fill-opacity:1;" d="M 124.609375 93.960938 L 124.511719 93.804688 C 124.3125 93.90625 124.117188 94.117188 124.019531 94.378906 C 123.96875 94.640625 123.96875 94.902344 124.066406 95.164062 C 124.167969 95.375 124.363281 95.585938 124.5625 95.6875 C 124.808594 95.792969 125.105469 95.792969 125.300781 95.6875 C 125.546875 95.585938 125.746094 95.375 125.84375 95.164062 C 125.941406 94.902344 125.941406 94.640625 125.84375 94.378906 C 125.746094 94.117188 125.597656 93.90625 125.351562 93.804688 L 125.300781 93.960938 C 125.449219 94.066406 125.597656 94.222656 125.695312 94.433594 C 125.746094 94.640625 125.746094 94.851562 125.648438 95.058594 C 125.597656 95.269531 125.449219 95.425781 125.25 95.53125 C 125.054688 95.585938 124.855469 95.585938 124.660156 95.53125 C 124.460938 95.425781 124.3125 95.269531 124.214844 95.058594 C 124.117188 94.851562 124.117188 94.640625 124.214844 94.433594 C 124.265625 94.222656 124.414062 94.066406 124.609375 93.960938 Z M 124.609375 93.960938 "/>
<path style=" stroke:none;fill-rule:evenodd;fill:rgb(44.313049%,43.920898%,45.097351%);fill-opacity:1;" d="M 102.011719 82.015625 C 102.011719 82.121094 102.011719 82.433594 102.40625 82.433594 C 102.652344 82.433594 102.800781 82.328125 102.800781 82.121094 C 102.800781 81.964844 102.703125 81.910156 102.40625 81.859375 C 101.914062 81.703125 101.617188 81.542969 101.617188 81.125 C 101.617188 80.757812 101.863281 80.445312 102.457031 80.445312 C 102.703125 80.445312 102.949219 80.496094 103.144531 80.707031 C 103.246094 80.863281 103.246094 81.074219 103.246094 81.125 L 102.800781 81.125 C 102.800781 81.074219 102.75 80.757812 102.457031 80.757812 C 102.257812 80.757812 102.109375 80.914062 102.109375 81.074219 C 102.109375 81.28125 102.257812 81.335938 102.554688 81.4375 C 102.949219 81.492188 103.292969 81.597656 103.292969 82.066406 C 103.292969 82.488281 103 82.800781 102.40625 82.800781 C 101.566406 82.800781 101.566406 82.226562 101.566406 82.015625 Z M 102.011719 82.015625 "/>
<path style=" stroke:none;fill-rule:evenodd;fill:rgb(44.313049%,43.920898%,45.097351%);fill-opacity:1;" d="M 103.640625 80.496094 L 104.28125 80.496094 C 104.625 80.496094 104.875 80.496094 105.070312 80.707031 C 105.167969 80.863281 105.167969 81.019531 105.167969 81.175781 C 105.167969 81.4375 105.070312 81.648438 104.921875 81.753906 C 104.726562 81.859375 104.527344 81.859375 104.429688 81.859375 L 104.082031 81.859375 L 104.082031 82.75 L 103.640625 82.75 Z M 104.082031 81.492188 L 104.28125 81.492188 C 104.429688 81.492188 104.675781 81.492188 104.675781 81.175781 C 104.675781 80.863281 104.429688 80.863281 104.332031 80.863281 L 104.082031 80.863281 Z M 104.082031 81.492188 "/>
<path style=" stroke:none;fill-rule:evenodd;fill:rgb(44.313049%,43.920898%,45.097351%);fill-opacity:1;" d="M 106.453125 80.496094 L 107.191406 82.75 L 106.699219 82.75 L 106.550781 82.277344 L 105.710938 82.277344 L 105.5625 82.75 L 105.070312 82.75 L 105.859375 80.496094 Z M 106.453125 80.496094 "/>
<path style=" stroke:none;fill-rule:evenodd;fill:rgb(44.313049%,43.920898%,45.097351%);fill-opacity:1;" d="M 106.453125 81.910156 L 106.15625 80.914062 L 105.8125 81.910156 Z M 106.453125 81.910156 "/>
<path style=" stroke:none;fill-rule:evenodd;fill:rgb(44.313049%,43.920898%,45.097351%);fill-opacity:1;" d="M 107.4375 80.496094 L 108.226562 80.496094 C 108.476562 80.496094 108.722656 80.496094 108.917969 80.652344 C 109.019531 80.757812 109.117188 80.914062 109.117188 81.074219 C 109.117188 81.492188 108.769531 81.597656 108.625 81.648438 C 108.96875 81.648438 108.96875 81.859375 109.019531 82.171875 C 109.066406 82.433594 109.066406 82.539062 109.117188 82.59375 C 109.117188 82.695312 109.117188 82.695312 109.164062 82.75 L 108.671875 82.75 C 108.625 82.644531 108.574219 82.066406 108.523438 81.964844 C 108.476562 81.859375 108.375 81.859375 108.328125 81.859375 L 107.882812 81.859375 L 107.882812 82.75 L 107.4375 82.75 Z M 107.882812 81.492188 L 108.277344 81.492188 C 108.328125 81.492188 108.425781 81.492188 108.476562 81.386719 C 108.523438 81.386719 108.625 81.28125 108.625 81.125 C 108.625 80.96875 108.523438 80.914062 108.476562 80.863281 C 108.425781 80.8125 108.328125 80.8125 108.179688 80.8125 L 107.882812 80.8125 Z M 107.882812 81.492188 "/>
<path style=" stroke:none;fill-rule:evenodd;fill:rgb(44.313049%,43.920898%,45.097351%);fill-opacity:1;" d="M 110.644531 81.230469 C 110.644531 81.125 110.644531 80.8125 110.300781 80.8125 C 109.957031 80.8125 109.808594 81.175781 109.808594 81.648438 C 109.808594 81.804688 109.808594 82.433594 110.25 82.433594 C 110.449219 82.433594 110.644531 82.328125 110.644531 82.015625 L 111.140625 82.015625 C 111.140625 82.171875 111.140625 82.382812 110.941406 82.539062 C 110.746094 82.75 110.5 82.800781 110.300781 82.800781 C 109.5625 82.800781 109.3125 82.226562 109.3125 81.648438 C 109.3125 80.96875 109.707031 80.445312 110.351562 80.445312 C 110.792969 80.445312 111.140625 80.757812 111.140625 81.230469 Z M 110.644531 81.230469 "/>
<path style=" stroke:none;fill-rule:evenodd;fill:rgb(44.313049%,43.920898%,45.097351%);fill-opacity:1;" d="M 112.273438 80.496094 L 113.707031 80.496094 L 113.707031 80.863281 L 112.71875 80.863281 L 112.71875 81.386719 L 113.65625 81.386719 L 113.65625 81.753906 L 112.71875 81.753906 L 112.71875 82.382812 L 113.753906 82.382812 L 113.753906 82.75 L 112.273438 82.75 Z M 112.273438 80.496094 "/>
<path style=" stroke:none;fill-rule:evenodd;fill:rgb(44.313049%,43.920898%,45.097351%);fill-opacity:1;" d="M 114.101562 80.496094 L 114.742188 80.496094 L 115.582031 82.277344 L 115.582031 80.496094 L 116.023438 80.496094 L 116.023438 82.75 L 115.382812 82.75 L 114.542969 80.863281 L 114.542969 82.75 L 114.101562 82.75 Z M 114.101562 80.496094 "/>
<path style=" stroke:none;fill-rule:evenodd;fill:rgb(44.313049%,43.920898%,45.097351%);fill-opacity:1;" d="M 116.914062 80.863281 L 116.269531 80.863281 L 116.269531 80.496094 L 118 80.496094 L 118 80.863281 L 117.355469 80.863281 L 117.355469 82.75 L 116.914062 82.75 Z M 116.914062 80.863281 "/>
<path style=" stroke:none;fill-rule:evenodd;fill:rgb(44.313049%,43.920898%,45.097351%);fill-opacity:1;" d="M 118.246094 80.496094 L 119.675781 80.496094 L 119.675781 80.863281 L 118.6875 80.863281 L 118.6875 81.386719 L 119.625 81.386719 L 119.625 81.753906 L 118.6875 81.753906 L 118.6875 82.382812 L 119.726562 82.382812 L 119.726562 82.75 L 118.246094 82.75 Z M 118.246094 80.496094 "/>
<path style=" stroke:none;fill-rule:evenodd;fill:rgb(44.313049%,43.920898%,45.097351%);fill-opacity:1;" d="M 120.023438 80.496094 L 120.859375 80.496094 C 121.105469 80.496094 121.355469 80.496094 121.5 80.652344 C 121.648438 80.757812 121.699219 80.914062 121.699219 81.074219 C 121.699219 81.492188 121.355469 81.597656 121.253906 81.648438 C 121.601562 81.648438 121.601562 81.859375 121.648438 82.171875 C 121.648438 82.433594 121.699219 82.539062 121.699219 82.59375 C 121.75 82.695312 121.75 82.695312 121.75 82.75 L 121.253906 82.75 C 121.253906 82.644531 121.15625 82.066406 121.15625 81.964844 C 121.105469 81.859375 121.007812 81.859375 120.910156 81.859375 L 120.515625 81.859375 L 120.515625 82.75 L 120.023438 82.75 Z M 120.464844 81.492188 L 120.859375 81.492188 C 120.910156 81.492188 121.007812 81.492188 121.105469 81.386719 C 121.105469 81.386719 121.207031 81.28125 121.207031 81.125 C 121.207031 80.96875 121.15625 80.914062 121.105469 80.863281 C 121.007812 80.8125 120.960938 80.8125 120.8125 80.8125 L 120.464844 80.8125 Z M 120.464844 81.492188 "/>
<path style=" stroke:none;fill-rule:evenodd;fill:rgb(44.313049%,43.920898%,45.097351%);fill-opacity:1;" d="M 122.042969 80.496094 L 122.6875 80.496094 C 123.03125 80.496094 123.277344 80.496094 123.476562 80.707031 C 123.574219 80.863281 123.574219 81.019531 123.574219 81.175781 C 123.574219 81.4375 123.476562 81.648438 123.328125 81.753906 C 123.128906 81.859375 122.933594 81.859375 122.835938 81.859375 L 122.488281 81.859375 L 122.488281 82.75 L 122.042969 82.75 Z M 122.488281 81.492188 L 122.6875 81.492188 C 122.835938 81.492188 123.128906 81.492188 123.128906 81.175781 C 123.128906 80.863281 122.882812 80.863281 122.734375 80.863281 L 122.488281 80.863281 Z M 122.488281 81.492188 "/>
<path style=" stroke:none;fill-rule:evenodd;fill:rgb(44.313049%,43.920898%,45.097351%);fill-opacity:1;" d="M 123.871094 80.496094 L 124.660156 80.496094 C 124.90625 80.496094 125.152344 80.496094 125.351562 80.652344 C 125.449219 80.757812 125.5 80.914062 125.5 81.074219 C 125.5 81.492188 125.152344 81.597656 125.054688 81.648438 C 125.398438 81.648438 125.398438 81.859375 125.449219 82.171875 C 125.5 82.433594 125.5 82.539062 125.5 82.59375 C 125.546875 82.695312 125.546875 82.695312 125.597656 82.75 L 125.054688 82.75 C 125.054688 82.644531 125.003906 82.066406 124.957031 81.964844 C 124.90625 81.859375 124.808594 81.859375 124.710938 81.859375 L 124.3125 81.859375 L 124.3125 82.75 L 123.871094 82.75 Z M 124.3125 81.492188 L 124.660156 81.492188 C 124.710938 81.492188 124.855469 81.492188 124.90625 81.386719 C 124.957031 81.386719 125.054688 81.28125 125.054688 81.125 C 125.054688 80.96875 124.957031 80.914062 124.90625 80.863281 C 124.855469 80.8125 124.757812 80.8125 124.609375 80.8125 L 124.3125 80.8125 Z M 124.3125 81.492188 "/>
<path style=" stroke:none;fill-rule:evenodd;fill:rgb(44.313049%,43.920898%,45.097351%);fill-opacity:1;" d="M 125.84375 80.445312 L 125.84375 82.75 L 126.289062 82.75 L 126.289062 80.445312 Z M 125.84375 80.445312 "/>
<path style=" stroke:none;fill-rule:evenodd;fill:rgb(44.313049%,43.920898%,45.097351%);fill-opacity:1;" d="M 127.078125 82.015625 C 127.078125 82.121094 127.078125 82.433594 127.472656 82.433594 C 127.71875 82.433594 127.867188 82.328125 127.867188 82.121094 C 127.867188 81.964844 127.71875 81.910156 127.472656 81.859375 C 126.929688 81.703125 126.683594 81.542969 126.683594 81.125 C 126.683594 80.757812 126.929688 80.445312 127.523438 80.445312 C 127.71875 80.445312 128.015625 80.496094 128.164062 80.707031 C 128.3125 80.863281 128.3125 81.074219 128.3125 81.125 L 127.867188 81.125 C 127.816406 81.074219 127.816406 80.757812 127.472656 80.757812 C 127.273438 80.757812 127.125 80.914062 127.125 81.074219 C 127.125 81.28125 127.273438 81.335938 127.621094 81.4375 C 127.964844 81.492188 128.359375 81.597656 128.359375 82.066406 C 128.359375 82.488281 128.015625 82.800781 127.421875 82.800781 C 126.585938 82.800781 126.585938 82.226562 126.585938 82.015625 Z M 127.078125 82.015625 "/>
<path style=" stroke:none;fill-rule:evenodd;fill:rgb(44.313049%,43.920898%,45.097351%);fill-opacity:1;" d="M 128.707031 80.496094 L 130.136719 80.496094 L 130.136719 80.863281 L 129.148438 80.863281 L 129.148438 81.386719 L 130.085938 81.386719 L 130.085938 81.753906 L 129.148438 81.753906 L 129.148438 82.382812 L 130.1875 82.382812 L 130.1875 82.75 L 128.707031 82.75 Z M 128.707031 80.496094 "/>
<path style=" stroke:none;fill-rule:evenodd;fill:rgb(44.313049%,43.920898%,45.097351%);fill-opacity:1;" d="M 131.320312 80.496094 L 132.0625 80.496094 L 132.503906 82.121094 L 133 80.496094 L 133.738281 80.496094 L 133.738281 82.75 L 133.292969 82.75 L 133.292969 80.8125 L 132.703125 82.75 L 132.308594 82.75 L 131.765625 80.8125 L 131.765625 82.75 L 131.320312 82.75 Z M 131.320312 80.496094 "/>
<path style=" stroke:none;fill-rule:evenodd;fill:rgb(44.313049%,43.920898%,45.097351%);fill-opacity:1;" d="M 134.527344 82.171875 C 134.527344 82.328125 134.625 82.433594 134.773438 82.433594 C 135.121094 82.433594 135.167969 82.066406 135.167969 81.753906 C 134.972656 81.910156 134.824219 81.910156 134.726562 81.910156 C 134.183594 81.910156 134.035156 81.4375 134.035156 81.175781 C 134.035156 80.757812 134.332031 80.390625 134.824219 80.390625 C 135.613281 80.390625 135.613281 81.175781 135.613281 81.542969 C 135.613281 82.539062 135.316406 82.800781 134.726562 82.800781 C 134.625 82.800781 134.035156 82.800781 134.035156 82.171875 Z M 135.121094 81.125 C 135.121094 80.914062 135.023438 80.8125 134.773438 80.8125 C 134.578125 80.8125 134.480469 80.96875 134.480469 81.175781 C 134.480469 81.230469 134.527344 81.542969 134.773438 81.542969 C 135.070312 81.542969 135.121094 81.28125 135.121094 81.125 Z M 135.121094 81.125 "/>
<path style=" stroke:none;fill-rule:evenodd;fill:rgb(44.313049%,43.920898%,45.097351%);fill-opacity:1;" d="M 136.648438 80.390625 C 136.945312 80.390625 137.09375 80.601562 137.191406 80.707031 C 137.292969 80.914062 137.390625 81.125 137.390625 81.542969 C 137.390625 82.066406 137.292969 82.800781 136.601562 82.800781 C 136.058594 82.800781 135.859375 82.226562 135.859375 81.597656 C 135.859375 81.28125 135.910156 80.390625 136.648438 80.390625 Z M 136.847656 81.074219 C 136.847656 81.019531 136.796875 80.8125 136.648438 80.8125 C 136.5 80.8125 136.453125 80.914062 136.402344 80.96875 C 136.355469 81.230469 136.355469 81.597656 136.355469 81.648438 C 136.355469 82.015625 136.402344 82.382812 136.648438 82.382812 C 136.898438 82.382812 136.945312 81.964844 136.945312 81.648438 C 136.945312 81.492188 136.898438 81.230469 136.847656 81.074219 Z M 136.847656 81.074219 "/>
<path style=" stroke:none;fill-rule:evenodd;fill:rgb(44.313049%,43.920898%,45.097351%);fill-opacity:1;" d="M 138.378906 80.390625 C 138.671875 80.390625 138.871094 80.601562 138.917969 80.707031 C 139.066406 80.914062 139.117188 81.125 139.117188 81.542969 C 139.117188 82.066406 139.019531 82.800781 138.378906 82.800781 C 137.785156 82.800781 137.585938 82.226562 137.585938 81.597656 C 137.585938 81.28125 137.6875 80.390625 138.378906 80.390625 Z M 138.625 81.074219 C 138.574219 81.019531 138.523438 80.8125 138.378906 80.8125 C 138.230469 80.8125 138.179688 80.914062 138.179688 80.96875 C 138.082031 81.230469 138.082031 81.597656 138.082031 81.648438 C 138.082031 82.015625 138.128906 82.382812 138.378906 82.382812 C 138.625 82.382812 138.671875 81.964844 138.671875 81.648438 C 138.671875 81.492188 138.671875 81.230469 138.625 81.074219 Z M 138.625 81.074219 "/>
<path style=" stroke:none;fill-rule:evenodd;fill:rgb(44.313049%,43.920898%,45.097351%);fill-opacity:1;" d="M 140.105469 80.390625 C 140.398438 80.390625 140.597656 80.601562 140.695312 80.707031 C 140.792969 80.914062 140.894531 81.125 140.894531 81.542969 C 140.894531 82.066406 140.746094 82.800781 140.105469 82.800781 C 139.5625 82.800781 139.363281 82.226562 139.363281 81.597656 C 139.363281 81.28125 139.414062 80.390625 140.105469 80.390625 Z M 140.351562 81.074219 C 140.351562 81.019531 140.300781 80.8125 140.105469 80.8125 C 139.957031 80.8125 139.90625 80.914062 139.90625 80.96875 C 139.808594 81.230469 139.808594 81.597656 139.808594 81.648438 C 139.808594 82.015625 139.90625 82.382812 140.105469 82.382812 C 140.351562 82.382812 140.398438 81.964844 140.398438 81.648438 C 140.398438 81.492188 140.398438 81.230469 140.351562 81.074219 Z M 140.351562 81.074219 "/>
<path style=" stroke:none;fill-rule:evenodd;fill:rgb(100%,100%,100%);fill-opacity:1;" d="M 205.285156 233.628906 C 202.769531 233.628906 200.746094 235.726562 200.746094 238.34375 L 200.746094 269.933594 C 200.746094 272.554688 202.769531 274.652344 205.285156 274.652344 C 207.753906 274.652344 209.777344 272.554688 209.777344 269.933594 L 209.777344 238.34375 C 209.777344 235.726562 207.753906 233.628906 205.285156 233.628906 Z M 205.285156 233.628906 "/>
<path style=" stroke:none;fill-rule:evenodd;fill:rgb(90.196228%,90.196228%,89.804077%);fill-opacity:1;" d="M 205.285156 234.78125 C 203.410156 234.78125 201.882812 236.40625 201.882812 238.34375 L 201.882812 269.882812 C 201.882812 271.875 203.410156 273.445312 205.285156 273.445312 C 207.113281 273.445312 208.640625 271.875 208.640625 269.882812 L 208.640625 238.34375 C 208.640625 236.40625 207.113281 234.78125 205.285156 234.78125 Z M 205.285156 234.78125 "/>
<path style=" stroke:none;fill-rule:evenodd;fill:rgb(94.902039%,94.902039%,94.902039%);fill-opacity:1;" d="M 205.285156 237.246094 C 203.609375 237.246094 202.226562 238.710938 202.226562 240.492188 L 202.226562 269.832031 C 202.226562 271.613281 203.609375 273.027344 205.285156 273.027344 C 206.914062 273.027344 208.296875 271.613281 208.296875 269.832031 L 208.296875 240.492188 C 208.296875 238.710938 206.914062 237.246094 205.285156 237.246094 Z M 205.285156 237.246094 "/>
<path style=" stroke:none;fill-rule:evenodd;fill:rgb(90.196228%,90.196228%,89.804077%);fill-opacity:1;" d="M 208.296875 263.597656 L 208.296875 270.984375 C 208.296875 272.765625 206.914062 274.179688 205.238281 274.179688 C 203.609375 274.179688 202.226562 272.765625 202.226562 270.984375 L 202.226562 263.597656 Z M 208.296875 263.597656 "/>
<path style=" stroke:none;fill-rule:evenodd;fill:rgb(70.196533%,69.804382%,70.196533%);fill-opacity:1;" d="M 207.011719 266.738281 C 207.011719 267.789062 206.222656 268.625 205.285156 268.625 C 204.300781 268.625 203.507812 267.789062 203.507812 266.738281 C 203.507812 265.746094 204.300781 264.90625 205.285156 264.90625 C 206.222656 264.90625 207.011719 265.746094 207.011719 266.738281 "/>
<path style=" stroke:none;fill-rule:evenodd;fill:rgb(0%,0%,0%);fill-opacity:1;" d="M 204.792969 266.53125 L 204.792969 266.949219 L 206.863281 266.949219 L 206.863281 266.53125 Z M 204.792969 266.53125 "/>
<path style=" stroke:none;fill-rule:evenodd;fill:rgb(19.215393%,19.215393%,19.215393%);fill-opacity:1;" d="M 10.085938 504.429688 L 10.085938 507.78125 C 10.085938 507.78125 12.503906 510.402344 16.992188 507.941406 L 16.992188 504.324219 Z M 10.085938 504.429688 "/>
<path style=" stroke:none;fill-rule:evenodd;fill:rgb(19.215393%,19.215393%,19.215393%);fill-opacity:1;" d="M 229.957031 504.480469 L 229.957031 507.835938 C 229.957031 507.835938 232.425781 510.453125 236.816406 508.042969 L 236.816406 504.378906 Z M 229.957031 504.480469 "/>
<path style=" stroke:none;fill-rule:evenodd;fill:rgb(14.901733%,14.901733%,14.901733%);fill-opacity:1;" d="M 239.675781 1.179688 L 239.675781 504.480469 L 470.75 504.480469 L 470.75 1.179688 Z M 239.675781 1.179688 "/>
<path style=" stroke:none;fill-rule:evenodd;fill:rgb(13.725281%,12.156677%,12.548828%);fill-opacity:1;" d="M 252.113281 500.34375 L 252.113281 499.609375 L 252.308594 499.609375 L 252.308594 499.660156 L 270.46875 499.660156 L 270.46875 499.609375 L 270.46875 499.820312 L 270.714844 499.820312 L 270.714844 500.34375 Z M 252.113281 500.34375 "/>
<path style=" stroke:none;fill-rule:evenodd;fill:rgb(13.725281%,12.156677%,12.548828%);fill-opacity:1;" d="M 270.714844 499.820312 L 270.714844 500.34375 L 439.714844 500.34375 L 439.714844 499.820312 Z M 270.714844 499.820312 "/>
<path style=" stroke:none;fill-rule:evenodd;fill:rgb(30.195618%,30.195618%,30.195618%);fill-opacity:1;" d="M 254.875 2.804688 L 254.875 504.113281 L 455.304688 504.113281 L 455.304688 2.804688 Z M 254.875 2.804688 "/>
<path style=" stroke:none;fill-rule:evenodd;fill:rgb(25.097656%,25.097656%,25.097656%);fill-opacity:1;" d="M 235.925781 2.75 L 235.925781 504.113281 L 239.578125 504.113281 L 239.578125 2.75 Z M 235.925781 2.75 "/>
<path style=" stroke:none;fill-rule:evenodd;fill:rgb(25.097656%,25.097656%,25.097656%);fill-opacity:1;" d="M 470.699219 2.75 L 470.699219 504.113281 L 474.351562 504.113281 L 474.351562 2.75 Z M 470.699219 2.75 "/>
<path style=" stroke:none;fill-rule:evenodd;fill:rgb(85.098267%,85.098267%,85.098267%);fill-opacity:1;" d="M 262.96875 2.75 L 262.96875 499.820312 L 447.507812 499.820312 L 447.507812 2.75 Z M 262.96875 2.75 "/>
<path style=" stroke:none;fill-rule:evenodd;fill:rgb(100%,100%,100%);fill-opacity:1;" d="M 262.03125 31.828125 L 262.03125 497.878906 L 448.101562 497.878906 L 448.101562 31.828125 Z M 262.03125 31.828125 "/>
<path style=" stroke:none;fill-rule:evenodd;fill:rgb(92.156982%,91.372681%,91.372681%);fill-opacity:1;" d="M 432.015625 229.386719 L 432.015625 278.527344 L 448.398438 278.527344 L 448.398438 229.386719 Z M 432.015625 229.386719 "/>
<path style=" stroke:none;fill-rule:evenodd;fill:rgb(92.156982%,91.372681%,91.372681%);fill-opacity:1;" d="M 470.601562 504.113281 C 470.601562 504.273438 470.453125 504.378906 470.304688 504.378906 L 448.300781 504.378906 C 448.152344 504.378906 448.003906 504.273438 448.003906 504.113281 L 448.003906 2.75 C 448.003906 2.59375 448.152344 2.4375 448.300781 2.4375 L 470.304688 2.4375 C 470.453125 2.4375 470.601562 2.59375 470.601562 2.75 Z M 470.601562 504.113281 "/>
<path style=" stroke:none;fill-rule:evenodd;fill:rgb(44.313049%,43.920898%,45.097351%);fill-opacity:1;" d="M 262.671875 2.75 L 262.671875 21.140625 L 447.804688 21.140625 L 447.804688 2.75 Z M 262.671875 2.75 "/>
<path style=" stroke:none;fill-rule:evenodd;fill:rgb(92.941284%,10.980225%,14.117432%);fill-opacity:1;" d="M 262.671875 21.140625 L 262.671875 32.457031 L 447.804688 32.457031 L 447.804688 21.140625 Z M 262.671875 21.140625 "/>
<path style=" stroke:none;fill-rule:evenodd;fill:rgb(92.156982%,91.372681%,91.372681%);fill-opacity:1;" d="M 262.523438 504.113281 C 262.523438 504.273438 262.425781 504.378906 262.226562 504.378906 L 240.269531 504.378906 C 240.121094 504.378906 239.972656 504.273438 239.972656 504.113281 L 239.972656 2.75 C 239.972656 2.59375 240.121094 2.4375 240.269531 2.4375 L 262.226562 2.4375 C 262.425781 2.4375 262.523438 2.59375 262.523438 2.75 Z M 262.523438 504.113281 "/>
<path style=" stroke:none;fill-rule:evenodd;fill:rgb(100%,100%,100%);fill-opacity:1;" d="M 439.21875 233.628906 C 436.703125 233.628906 434.679688 235.726562 434.679688 238.34375 L 434.679688 269.933594 C 434.679688 272.554688 436.703125 274.652344 439.21875 274.652344 C 441.6875 274.652344 443.710938 272.554688 443.710938 269.933594 L 443.710938 238.34375 C 443.710938 235.726562 441.6875 233.628906 439.21875 233.628906 Z M 439.21875 233.628906 "/>
<path style=" stroke:none;fill-rule:evenodd;fill:rgb(90.196228%,90.196228%,89.804077%);fill-opacity:1;" d="M 439.21875 234.78125 C 437.34375 234.78125 435.816406 236.40625 435.816406 238.34375 L 435.816406 269.882812 C 435.816406 271.875 437.34375 273.445312 439.21875 273.445312 C 441.046875 273.445312 442.574219 271.875 442.574219 269.882812 L 442.574219 238.34375 C 442.574219 236.40625 441.046875 234.78125 439.21875 234.78125 Z M 439.21875 234.78125 "/>
<path style=" stroke:none;fill-rule:evenodd;fill:rgb(94.902039%,94.902039%,94.902039%);fill-opacity:1;" d="M 439.21875 237.246094 C 437.542969 237.246094 436.160156 238.710938 436.160156 240.492188 L 436.160156 269.832031 C 436.160156 271.613281 437.542969 273.027344 439.21875 273.027344 C 440.898438 273.027344 442.230469 271.613281 442.230469 269.832031 L 442.230469 240.492188 C 442.230469 238.710938 440.898438 237.246094 439.21875 237.246094 Z M 439.21875 237.246094 "/>
<path style=" stroke:none;fill-rule:evenodd;fill:rgb(90.196228%,90.196228%,89.804077%);fill-opacity:1;" d="M 442.230469 263.597656 L 442.230469 270.984375 C 442.230469 272.765625 440.898438 274.179688 439.21875 274.179688 C 437.542969 274.179688 436.160156 272.765625 436.160156 270.984375 L 436.160156 263.597656 Z M 442.230469 263.597656 "/>
<path style=" stroke:none;fill-rule:evenodd;fill:rgb(70.196533%,69.804382%,70.196533%);fill-opacity:1;" d="M 440.945312 266.738281 C 440.945312 267.789062 440.15625 268.625 439.21875 268.625 C 438.234375 268.625 437.445312 267.789062 437.445312 266.738281 C 437.445312 265.746094 438.234375 264.90625 439.21875 264.90625 C 440.15625 264.90625 440.945312 265.746094 440.945312 266.738281 "/>
<path style=" stroke:none;fill-rule:evenodd;fill:rgb(0%,0%,0%);fill-opacity:1;" d="M 438.726562 266.53125 L 438.726562 266.949219 L 440.796875 266.949219 L 440.796875 266.53125 Z M 438.726562 266.53125 "/>
<path style=" stroke:none;fill-rule:evenodd;fill:rgb(19.215393%,19.215393%,19.215393%);fill-opacity:1;" d="M 244.019531 504.429688 L 244.019531 507.78125 C 244.019531 507.78125 246.488281 510.402344 250.878906 507.941406 L 250.878906 504.324219 Z M 244.019531 504.429688 "/>
<path style=" stroke:none;fill-rule:evenodd;fill:rgb(19.215393%,19.215393%,19.215393%);fill-opacity:1;" d="M 463.890625 504.480469 L 463.890625 507.835938 C 463.890625 507.835938 466.359375 510.453125 470.75 508.042969 L 470.75 504.378906 Z M 463.890625 504.480469 "/>
</g>
</svg>
