<?xml version="1.0" encoding="UTF-8"?>
<svg xmlns="http://www.w3.org/2000/svg" xmlns:xlink="http://www.w3.org/1999/xlink" width="242pt" height="512pt" viewBox="0 0 242 512" version="1.1">
<g id="surface1">
<path style=" stroke:none;fill-rule:nonzero;fill:rgb(14.901733%,14.901733%,14.901733%);fill-opacity:1;" d="M 5.332031 1.15625 L 5.332031 503.039062 L 237.234375 503.039062 L 237.234375 1.15625 Z M 5.332031 1.15625 "/>
<path style=" stroke:none;fill-rule:evenodd;fill:rgb(0%,0%,0%);fill-opacity:1;" d="M 17.824219 500.457031 L 17.824219 499.710938 L 18.058594 499.710938 L 18.058594 499.761719 L 36.234375 499.761719 L 36.234375 499.710938 L 36.234375 499.910156 L 36.515625 499.910156 L 36.515625 500.457031 Z M 17.824219 500.457031 "/>
<path style=" stroke:none;fill-rule:evenodd;fill:rgb(0%,0%,0%);fill-opacity:1;" d="M 36.515625 499.910156 L 36.515625 500.457031 L 206.097656 500.457031 L 206.097656 499.910156 Z M 36.515625 499.910156 "/>
<path style=" stroke:none;fill-rule:evenodd;fill:rgb(30.195618%,30.195618%,30.195618%);fill-opacity:1;" d="M 20.59375 2.746094 L 20.59375 504.234375 L 221.734375 504.234375 L 221.734375 2.746094 Z M 20.59375 2.746094 "/>
<path style=" stroke:none;fill-rule:evenodd;fill:rgb(25.097656%,25.097656%,25.097656%);fill-opacity:1;" d="M 1.574219 2.699219 L 1.574219 504.234375 L 5.238281 504.234375 L 5.238281 2.699219 Z M 1.574219 2.699219 "/>
<path style=" stroke:none;fill-rule:evenodd;fill:rgb(25.097656%,25.097656%,25.097656%);fill-opacity:1;" d="M 237.183594 2.699219 L 237.183594 504.234375 L 240.847656 504.234375 L 240.847656 2.699219 Z M 237.183594 2.699219 "/>
<path style=" stroke:none;fill-rule:evenodd;fill:rgb(85.098267%,85.098267%,85.098267%);fill-opacity:1;" d="M 28.71875 2.699219 L 28.71875 499.910156 L 213.9375 499.910156 L 213.9375 2.699219 Z M 28.71875 2.699219 "/>
<path style=" stroke:none;fill-rule:evenodd;fill:rgb(100%,100%,100%);fill-opacity:1;" d="M 205.578125 233.6875 C 203.042969 233.6875 201.023438 235.773438 201.023438 238.40625 L 201.023438 270.015625 C 201.023438 272.597656 203.042969 274.734375 205.578125 274.734375 C 208.070312 274.734375 210.089844 272.597656 210.089844 270.015625 L 210.089844 238.40625 C 210.089844 235.773438 208.070312 233.6875 205.578125 233.6875 Z M 205.578125 233.6875 "/>
<path style=" stroke:none;fill-rule:evenodd;fill:rgb(90.196228%,90.196228%,90.196228%);fill-opacity:1;" d="M 205.578125 234.828125 C 203.703125 234.828125 202.152344 236.46875 202.152344 238.40625 L 202.152344 269.914062 C 202.152344 271.953125 203.703125 273.492188 205.578125 273.492188 C 207.410156 273.492188 208.960938 271.953125 208.960938 269.914062 L 208.960938 238.40625 C 208.960938 236.46875 207.410156 234.828125 205.578125 234.828125 Z M 205.578125 234.828125 "/>
<path style=" stroke:none;fill-rule:evenodd;fill:rgb(94.902039%,94.902039%,94.902039%);fill-opacity:1;" d="M 205.578125 237.3125 C 203.890625 237.3125 202.527344 238.753906 202.527344 240.542969 L 202.527344 269.867188 C 202.527344 271.65625 203.890625 273.09375 205.578125 273.09375 C 207.222656 273.09375 208.632812 271.65625 208.632812 269.867188 L 208.632812 240.542969 C 208.632812 238.753906 207.222656 237.3125 205.578125 237.3125 Z M 205.578125 237.3125 "/>
<path style=" stroke:none;fill-rule:evenodd;fill:rgb(90.196228%,90.196228%,90.196228%);fill-opacity:1;" d="M 208.632812 263.652344 L 208.632812 271.058594 C 208.632812 272.847656 207.222656 274.238281 205.578125 274.238281 C 203.890625 274.238281 202.527344 272.847656 202.527344 271.058594 L 202.527344 263.652344 Z M 208.632812 263.652344 "/>
<path style=" stroke:none;fill-rule:evenodd;fill:rgb(70.196533%,70.588684%,70.588684%);fill-opacity:1;" d="M 207.316406 266.785156 C 207.316406 267.828125 206.519531 268.671875 205.578125 268.671875 C 204.59375 268.671875 203.796875 267.828125 203.796875 266.785156 C 203.796875 265.789062 204.59375 264.945312 205.578125 264.945312 C 206.519531 264.945312 207.316406 265.789062 207.316406 266.785156 "/>
<path style=" stroke:none;fill-rule:evenodd;fill:rgb(0%,0%,0%);fill-opacity:1;" d="M 205.109375 266.585938 L 205.109375 266.984375 L 207.175781 266.984375 L 207.175781 266.585938 Z M 205.109375 266.585938 "/>
<path style=" stroke:none;fill-rule:evenodd;fill:rgb(92.156982%,91.372681%,91.764832%);fill-opacity:1;" d="M 237.042969 504.234375 C 237.042969 504.382812 236.949219 504.480469 236.808594 504.480469 L 214.738281 504.480469 C 214.550781 504.480469 214.410156 504.382812 214.410156 504.234375 L 214.410156 2.699219 C 214.410156 2.550781 214.550781 2.398438 214.738281 2.398438 L 236.808594 2.398438 C 236.949219 2.398438 237.042969 2.550781 237.042969 2.699219 Z M 237.042969 504.234375 "/>
<path style=" stroke:none;fill-rule:evenodd;fill:rgb(44.313049%,43.920898%,45.097351%);fill-opacity:1;" d="M 28.390625 2.699219 L 28.390625 21.136719 L 214.222656 21.136719 L 214.222656 2.699219 Z M 28.390625 2.699219 "/>
<path style=" stroke:none;fill-rule:evenodd;fill:rgb(92.941284%,10.980225%,14.117432%);fill-opacity:1;" d="M 28.390625 21.136719 L 28.390625 32.464844 L 214.222656 32.464844 L 214.222656 21.136719 Z M 28.390625 21.136719 "/>
<path style=" stroke:none;fill-rule:evenodd;fill:rgb(100%,100%,100%);fill-opacity:1;" d="M 179.328125 27.597656 C 179.328125 27.84375 179.328125 28.539062 180.171875 28.539062 C 180.738281 28.539062 181.066406 28.242188 181.066406 27.84375 C 181.066406 27.398438 180.785156 27.296875 180.171875 27.148438 C 179.09375 26.898438 178.433594 26.550781 178.433594 25.707031 C 178.433594 24.863281 179 24.167969 180.359375 24.167969 C 180.832031 24.167969 181.394531 24.265625 181.722656 24.761719 C 182.003906 25.109375 182.003906 25.460938 182.003906 25.65625 L 181.019531 25.65625 C 181.019531 25.460938 180.972656 24.914062 180.3125 24.914062 C 179.796875 24.914062 179.515625 25.160156 179.515625 25.609375 C 179.515625 26.003906 179.84375 26.105469 180.546875 26.253906 C 181.347656 26.453125 182.144531 26.75 182.144531 27.695312 C 182.144531 28.589844 181.441406 29.335938 180.125 29.335938 C 178.339844 29.335938 178.292969 28.09375 178.292969 27.597656 Z M 179.328125 27.597656 "/>
<path style=" stroke:none;fill-rule:evenodd;fill:rgb(100%,100%,100%);fill-opacity:1;" d="M 182.851562 24.214844 L 184.304688 24.214844 C 185.011719 24.214844 185.527344 24.265625 185.949219 24.8125 C 186.183594 25.109375 186.230469 25.460938 186.230469 25.707031 C 186.230469 26.253906 185.996094 26.800781 185.667969 27 C 185.292969 27.25 184.820312 27.25 184.539062 27.25 L 183.882812 27.25 L 183.882812 29.1875 L 182.851562 29.1875 Z M 183.882812 26.453125 L 184.257812 26.453125 C 184.539062 26.453125 185.199219 26.453125 185.199219 25.757812 C 185.199219 25.0625 184.632812 25.0625 184.351562 25.0625 L 183.882812 25.0625 Z M 183.882812 26.453125 "/>
<path style=" stroke:none;fill-rule:evenodd;fill:rgb(100%,100%,100%);fill-opacity:1;" d="M 188.859375 24.214844 L 190.503906 29.1875 L 189.472656 29.1875 L 189.144531 28.09375 L 187.265625 28.09375 L 186.933594 29.1875 L 185.949219 29.1875 L 187.6875 24.214844 Z M 188.859375 24.214844 "/>
<path style=" stroke:none;fill-rule:evenodd;fill:rgb(100%,100%,100%);fill-opacity:1;" d="M 188.859375 27.296875 L 188.203125 25.210938 L 187.546875 27.296875 Z M 188.859375 27.296875 "/>
<path style=" stroke:none;fill-rule:evenodd;fill:rgb(100%,100%,100%);fill-opacity:1;" d="M 191.019531 24.214844 L 192.851562 24.214844 C 193.324219 24.214844 193.886719 24.214844 194.214844 24.566406 C 194.542969 24.863281 194.636719 25.210938 194.636719 25.507812 C 194.636719 26.402344 193.886719 26.703125 193.699219 26.75 C 194.355469 26.800781 194.449219 27.199219 194.542969 27.894531 C 194.589844 28.492188 194.636719 28.6875 194.683594 28.839844 C 194.730469 29.039062 194.730469 29.085938 194.824219 29.1875 L 193.699219 29.1875 C 193.652344 28.886719 193.464844 27.644531 193.417969 27.496094 C 193.324219 27.148438 193.085938 27.148438 192.945312 27.148438 L 192.054688 27.148438 L 192.054688 29.1875 L 191.019531 29.1875 Z M 192.007812 26.355469 L 192.851562 26.355469 C 192.945312 26.355469 193.179688 26.355469 193.324219 26.253906 C 193.371094 26.203125 193.605469 26.054688 193.605469 25.707031 C 193.605469 25.359375 193.417969 25.160156 193.324219 25.109375 C 193.179688 25.011719 192.992188 25.011719 192.710938 25.011719 L 192.007812 25.011719 Z M 192.007812 26.355469 "/>
<path style=" stroke:none;fill-rule:evenodd;fill:rgb(100%,100%,100%);fill-opacity:1;" d="M 198.066406 25.855469 C 198.066406 25.707031 198.019531 24.960938 197.3125 24.960938 C 196.5625 24.960938 196.28125 25.808594 196.28125 26.851562 C 196.28125 27.097656 196.28125 28.539062 197.21875 28.539062 C 197.644531 28.539062 198.066406 28.242188 198.066406 27.597656 L 199.144531 27.597656 C 199.097656 27.894531 199.097656 28.292969 198.675781 28.738281 C 198.300781 29.1875 197.738281 29.335938 197.359375 29.335938 C 195.71875 29.335938 195.152344 28.042969 195.152344 26.800781 C 195.152344 25.261719 196 24.214844 197.359375 24.214844 C 198.347656 24.214844 199.097656 24.863281 199.097656 25.855469 Z M 198.066406 25.855469 "/>
<path style=" stroke:none;fill-rule:evenodd;fill:rgb(100%,100%,100%);fill-opacity:1;" d="M 186.183594 6.574219 C 185.949219 6.425781 185.621094 6.277344 185.246094 6.277344 C 184.445312 6.277344 183.742188 6.972656 183.742188 7.867188 C 183.742188 8.660156 184.445312 9.359375 185.246094 9.359375 C 185.761719 9.40625 186.136719 9.207031 186.371094 8.859375 L 186.371094 8.015625 C 186.230469 8.265625 185.949219 8.5625 185.714844 8.761719 C 185.527344 8.8125 185.433594 8.8125 185.246094 8.8125 C 184.773438 8.8125 184.351562 8.363281 184.351562 7.867188 C 184.351562 7.320312 184.726562 6.871094 185.246094 6.871094 C 185.480469 6.871094 185.761719 6.972656 185.949219 7.171875 C 186.089844 7.320312 186.371094 7.667969 186.511719 7.867188 C 186.839844 8.214844 187.3125 8.464844 187.828125 8.464844 C 188.859375 8.464844 189.660156 7.617188 189.660156 6.523438 C 189.660156 5.480469 188.859375 4.585938 187.828125 4.585938 C 187.21875 4.585938 186.746094 4.886719 186.371094 5.382812 L 186.371094 6.523438 C 186.652344 5.78125 187.125 5.234375 187.828125 5.234375 C 188.53125 5.234375 189.144531 5.78125 189.144531 6.523438 C 189.144531 7.269531 188.53125 7.867188 187.828125 7.867188 C 187.546875 7.867188 187.21875 7.71875 187.03125 7.519531 C 186.746094 7.320312 186.417969 6.871094 186.183594 6.574219 Z M 186.183594 6.574219 "/>
<path style=" stroke:none;fill-rule:evenodd;fill:rgb(100%,100%,100%);fill-opacity:1;" d="M 174.160156 9.855469 L 178.199219 9.855469 L 178.199219 10.996094 C 178.199219 10.996094 178.011719 10.5 177.542969 10.5 L 175.664062 10.5 L 175.664062 12.585938 L 177.730469 12.585938 L 177.730469 13.679688 C 177.730469 13.679688 177.683594 13.285156 177.167969 13.285156 L 175.664062 13.285156 L 175.664062 16.117188 C 175.664062 16.5625 176.132812 16.761719 176.132812 16.761719 L 174.207031 16.761719 C 174.207031 16.761719 174.585938 16.5625 174.585938 16.117188 L 174.585938 10.601562 C 174.585938 10.101562 174.160156 9.855469 174.160156 9.855469 Z M 174.160156 9.855469 "/>
<path style=" stroke:none;fill-rule:evenodd;fill:rgb(100%,100%,100%);fill-opacity:1;" d="M 184.304688 9.855469 L 186.371094 9.855469 C 186.371094 9.855469 185.949219 10.054688 185.949219 10.402344 L 185.949219 16.960938 C 185.949219 19.199219 183.789062 19.546875 183.695312 19.496094 C 183.929688 19.394531 184.773438 18.601562 184.773438 16.960938 L 184.773438 10.402344 C 184.773438 10.101562 184.304688 9.855469 184.304688 9.855469 Z M 184.304688 9.855469 "/>
<path style=" stroke:none;fill-rule:evenodd;fill:rgb(100%,100%,100%);fill-opacity:1;" d="M 186.699219 9.855469 L 188.71875 9.855469 C 188.71875 9.855469 188.296875 10.054688 188.296875 10.402344 L 188.296875 16.117188 C 188.296875 16.5625 188.71875 16.761719 188.71875 16.761719 L 186.699219 16.761719 C 186.699219 16.761719 187.125 16.5625 187.125 16.117188 L 187.125 10.402344 C 187.125 10.054688 186.699219 9.855469 186.699219 9.855469 Z M 186.699219 9.855469 "/>
<path style=" stroke:none;fill-rule:evenodd;fill:rgb(100%,100%,100%);fill-opacity:1;" d="M 189.191406 9.855469 L 193.699219 9.855469 L 193.324219 11.097656 C 193.324219 11.097656 193.179688 10.601562 192.804688 10.601562 L 191.820312 10.601562 L 191.820312 16.117188 C 191.820312 16.464844 192.242188 16.761719 192.242188 16.761719 L 190.269531 16.761719 C 190.269531 16.761719 190.691406 16.515625 190.691406 16.117188 L 190.691406 10.601562 L 189.566406 10.601562 C 189.238281 10.601562 188.765625 11.195312 188.765625 11.195312 Z M 189.191406 9.855469 "/>
<path style=" stroke:none;fill-rule:evenodd;fill:rgb(100%,100%,100%);fill-opacity:1;" d="M 201.304688 9.855469 L 203.324219 9.855469 C 203.324219 9.855469 202.855469 10.054688 202.855469 10.402344 L 202.855469 14.675781 C 202.855469 16.363281 201.539062 16.863281 200.554688 16.863281 C 199.617188 16.863281 198.207031 16.363281 198.207031 14.675781 L 198.207031 10.402344 C 198.207031 10.054688 197.738281 9.855469 197.738281 9.855469 L 199.804688 9.855469 C 199.804688 9.855469 199.332031 10.054688 199.332031 10.402344 L 199.332031 14.675781 C 199.332031 15.570312 199.945312 16.117188 200.554688 16.117188 C 201.210938 16.117188 201.777344 15.519531 201.777344 14.675781 L 201.777344 10.402344 C 201.777344 10.054688 201.304688 9.855469 201.304688 9.855469 Z M 201.304688 9.855469 "/>
<path style=" stroke:none;fill-rule:evenodd;fill:rgb(100%,100%,100%);fill-opacity:1;" d="M 181.910156 9.855469 L 183.976562 9.855469 C 183.976562 9.855469 183.554688 10.054688 183.554688 10.449219 C 183.554688 10.449219 183.554688 14.675781 183.554688 14.675781 C 183.554688 16.363281 182.144531 16.910156 181.207031 16.910156 C 180.21875 16.910156 178.8125 16.363281 178.8125 14.675781 L 178.8125 10.449219 C 178.8125 10.054688 178.386719 9.855469 178.386719 9.855469 L 180.453125 9.855469 C 180.453125 9.855469 179.9375 10.054688 179.9375 10.449219 L 179.9375 14.675781 C 179.9375 15.570312 180.546875 16.117188 181.207031 16.117188 C 181.816406 16.117188 182.378906 15.519531 182.378906 14.675781 L 182.378906 10.449219 C 182.378906 10.054688 181.910156 9.855469 181.910156 9.855469 Z M 181.910156 9.855469 "/>
<path style=" stroke:none;fill-rule:evenodd;fill:rgb(100%,100%,100%);fill-opacity:1;" d="M 197.171875 10.949219 C 197.171875 10.949219 196.84375 10.402344 196 10.402344 C 195.199219 10.402344 194.730469 10.847656 194.730469 11.445312 C 194.730469 12.140625 195.199219 12.390625 195.953125 12.785156 C 196.65625 13.132812 197.738281 13.632812 197.738281 14.875 C 197.738281 15.96875 196.796875 16.910156 195.105469 16.910156 C 194.589844 16.910156 193.886719 16.710938 193.886719 16.710938 L 193.464844 15.421875 C 193.839844 15.769531 194.496094 16.117188 195.105469 16.117188 C 195.8125 16.117188 196.609375 15.71875 196.609375 15.023438 C 196.609375 13.679688 193.605469 13.878906 193.605469 11.644531 C 193.605469 10.847656 194.121094 9.707031 195.90625 9.707031 C 196.515625 9.707031 197.171875 9.855469 197.171875 9.855469 Z M 197.171875 10.949219 "/>
<path style=" stroke:none;fill-rule:evenodd;fill:rgb(100%,100%,100%);fill-opacity:1;" d="M 54.59375 27.398438 L 57.082031 27.398438 L 55.769531 25.160156 L 53.375 29.1875 L 52.199219 29.1875 L 55.207031 24.367188 C 55.300781 24.167969 55.535156 24.066406 55.769531 24.066406 C 56.003906 24.066406 56.238281 24.167969 56.332031 24.316406 L 59.292969 29.1875 L 58.164062 29.1875 L 57.695312 28.292969 L 55.160156 28.292969 Z M 54.59375 27.398438 "/>
<path style=" stroke:none;fill-rule:evenodd;fill:rgb(100%,100%,100%);fill-opacity:1;" d="M 66.054688 28.292969 L 66.054688 24.117188 L 65.113281 24.117188 L 65.113281 28.738281 C 65.113281 28.839844 65.160156 28.988281 65.253906 29.039062 C 65.347656 29.136719 65.441406 29.1875 65.632812 29.1875 L 69.859375 29.1875 L 70.421875 28.292969 Z M 66.054688 28.292969 "/>
<path style=" stroke:none;fill-rule:evenodd;fill:rgb(100%,100%,100%);fill-opacity:1;" d="M 50.601562 27.597656 C 51.496094 27.597656 52.199219 26.800781 52.199219 25.855469 C 52.199219 24.863281 51.496094 24.117188 50.601562 24.117188 L 46.46875 24.117188 L 46.46875 29.1875 L 47.410156 29.1875 L 47.410156 25.011719 L 50.460938 25.011719 C 50.933594 25.011719 51.261719 25.359375 51.261719 25.855469 C 51.261719 26.253906 50.933594 26.652344 50.460938 26.652344 L 47.832031 26.652344 L 50.648438 29.1875 L 52.011719 29.1875 L 50.132812 27.597656 Z M 50.601562 27.597656 "/>
<path style=" stroke:none;fill-rule:evenodd;fill:rgb(100%,100%,100%);fill-opacity:1;" d="M 40.695312 29.1875 C 39.378906 29.1875 38.300781 28.042969 38.300781 26.652344 C 38.300781 25.210938 39.378906 24.117188 40.695312 24.117188 L 43.558594 24.117188 C 44.875 24.117188 45.953125 25.210938 45.953125 26.652344 C 45.953125 28.042969 44.875 29.1875 43.558594 29.1875 Z M 43.464844 28.292969 C 44.308594 28.292969 45.015625 27.597656 45.015625 26.652344 C 45.015625 25.757812 44.308594 25.011719 43.464844 25.011719 L 40.742188 25.011719 C 39.847656 25.011719 39.191406 25.757812 39.191406 26.652344 C 39.191406 27.597656 39.847656 28.292969 40.742188 28.292969 Z M 43.464844 28.292969 "/>
<path style=" stroke:none;fill-rule:evenodd;fill:rgb(100%,100%,100%);fill-opacity:1;" d="M 61.261719 29.1875 C 59.902344 29.1875 58.820312 28.042969 58.820312 26.652344 C 58.820312 25.210938 59.902344 24.117188 61.261719 24.117188 L 64.597656 24.117188 L 64.082031 25.011719 L 61.308594 25.011719 C 60.464844 25.011719 59.761719 25.757812 59.761719 26.652344 C 59.761719 27.597656 60.464844 28.292969 61.308594 28.292969 L 64.738281 28.292969 L 64.128906 29.1875 Z M 61.261719 29.1875 "/>
<path style=" stroke:none;fill-rule:evenodd;fill:rgb(100%,100%,100%);fill-opacity:1;" d="M 72.722656 28.292969 C 72.019531 28.292969 71.359375 27.792969 71.21875 27.097656 L 75.164062 27.097656 L 75.726562 26.203125 L 71.21875 26.203125 C 71.359375 25.507812 72.019531 25.011719 72.722656 25.011719 L 75.492188 25.011719 L 76.011719 24.117188 L 72.675781 24.117188 C 71.3125 24.117188 70.234375 25.210938 70.234375 26.652344 C 70.234375 28.042969 71.3125 29.1875 72.675781 29.1875 L 75.539062 29.1875 L 76.058594 28.292969 Z M 72.722656 28.292969 "/>
<path style=" stroke:none;fill-rule:evenodd;fill:rgb(100%,100%,100%);fill-opacity:1;" d="M 58.820312 14.425781 C 58.820312 15.222656 58.585938 15.917969 57.976562 16.464844 C 57.367188 16.960938 56.613281 17.257812 55.628906 17.257812 C 54.6875 17.257812 53.84375 16.960938 52.949219 16.363281 L 53.375 15.519531 C 54.125 15.867188 54.78125 16.066406 55.394531 16.066406 C 55.957031 16.066406 56.378906 15.96875 56.660156 15.71875 C 57.035156 15.46875 57.226562 15.074219 57.226562 14.625 C 57.226562 14.027344 56.847656 13.53125 56.144531 13.085938 C 55.441406 12.738281 54.171875 11.941406 54.171875 11.941406 C 53.46875 11.394531 53.09375 10.847656 53.09375 9.855469 C 53.09375 9.058594 53.375 8.414062 53.890625 7.917969 C 54.40625 7.417969 55.113281 7.171875 55.957031 7.171875 C 56.800781 7.171875 57.554688 7.417969 58.304688 7.917969 L 57.929688 8.761719 C 57.320312 8.464844 56.707031 8.363281 56.144531 8.363281 C 55.675781 8.363281 55.300781 8.464844 55.066406 8.761719 C 54.78125 8.960938 54.59375 9.257812 54.59375 9.605469 C 54.59375 10.203125 55.015625 10.75 55.722656 11.148438 C 56.378906 11.542969 57.742188 12.339844 57.742188 12.339844 C 58.445312 12.886719 58.820312 13.480469 58.820312 14.425781 Z M 58.820312 14.425781 "/>
<path style=" stroke:none;fill-rule:evenodd;fill:rgb(100%,100%,100%);fill-opacity:1;" d="M 67.226562 9.902344 L 68.449219 9.902344 L 68.542969 10.75 C 69.246094 10.054688 69.90625 9.753906 70.65625 9.753906 C 72.066406 9.753906 72.769531 10.847656 72.769531 12.984375 C 72.769531 13.234375 72.769531 16.5625 72.769531 17.160156 L 71.3125 17.160156 C 71.3125 16.664062 71.3125 13.582031 71.3125 13.285156 C 71.3125 12.390625 71.21875 11.84375 71.03125 11.445312 C 70.890625 11.097656 70.5625 10.949219 70.1875 10.949219 C 69.765625 10.949219 69.292969 11.195312 68.683594 11.691406 L 68.683594 17.160156 L 67.226562 17.160156 Z M 67.226562 9.902344 "/>
<path style=" stroke:none;fill-rule:evenodd;fill:rgb(100%,100%,100%);fill-opacity:1;" d="M 65.488281 17.160156 L 64.363281 17.160156 L 64.269531 16.316406 C 63.566406 16.960938 62.8125 17.308594 62.15625 17.308594 C 60.746094 17.308594 60.042969 16.164062 60.042969 14.027344 C 60.042969 13.78125 60.042969 10.449219 60.042969 9.902344 L 61.5 9.902344 C 61.5 10.351562 61.5 13.480469 61.5 13.730469 C 61.5 14.625 61.546875 15.171875 61.734375 15.570312 C 61.921875 15.867188 62.25 16.066406 62.578125 16.066406 C 63.046875 16.066406 63.519531 15.816406 64.082031 15.371094 L 64.082031 9.902344 L 65.488281 9.902344 Z M 65.488281 17.160156 "/>
<path style=" stroke:none;fill-rule:evenodd;fill:rgb(100%,100%,100%);fill-opacity:1;" d="M 45.71875 6.972656 L 48.019531 9.359375 L 48.582031 8.8125 L 46.328125 6.375 C 46.09375 6.175781 45.859375 6.078125 45.625 6.078125 C 45.390625 6.078125 45.109375 6.175781 44.921875 6.375 C 44.734375 6.574219 44.640625 6.871094 44.640625 7.121094 C 44.640625 7.371094 44.734375 7.617188 44.921875 7.816406 L 47.222656 10.203125 L 47.785156 9.605469 L 45.484375 7.171875 C 45.4375 7.121094 45.4375 7.023438 45.484375 6.972656 C 45.53125 6.921875 45.625 6.921875 45.71875 6.972656 Z M 45.71875 6.972656 "/>
<path style=" stroke:none;fill-rule:evenodd;fill:rgb(100%,100%,100%);fill-opacity:1;" d="M 45.53125 10.648438 L 43.230469 8.214844 L 42.667969 8.8125 L 44.921875 11.195312 C 45.109375 11.394531 45.390625 11.542969 45.625 11.542969 C 45.859375 11.542969 46.09375 11.394531 46.328125 11.195312 C 46.515625 10.996094 46.609375 10.75 46.609375 10.449219 C 46.609375 10.203125 46.515625 9.953125 46.328125 9.753906 L 44.027344 7.320312 L 43.417969 7.964844 L 45.765625 10.402344 C 45.8125 10.449219 45.8125 10.601562 45.765625 10.648438 C 45.71875 10.699219 45.625 10.699219 45.53125 10.648438 Z M 45.53125 10.648438 "/>
<path style=" stroke:none;fill-rule:evenodd;fill:rgb(100%,100%,100%);fill-opacity:1;" d="M 40.648438 12.042969 L 42.996094 9.605469 L 42.429688 9.007812 L 40.175781 11.394531 C 39.941406 11.644531 39.847656 11.890625 39.847656 12.140625 C 39.847656 12.390625 39.941406 12.6875 40.128906 12.886719 C 40.316406 13.085938 40.554688 13.183594 40.789062 13.183594 C 41.070312 13.183594 41.304688 13.085938 41.492188 12.886719 L 43.792969 10.449219 L 43.230469 9.855469 L 40.929688 12.289062 C 40.882812 12.339844 40.742188 12.339844 40.648438 12.289062 C 40.601562 12.238281 40.601562 12.140625 40.648438 12.042969 Z M 40.648438 12.042969 "/>
<path style=" stroke:none;fill-rule:evenodd;fill:rgb(100%,100%,100%);fill-opacity:1;" d="M 44.167969 12.238281 L 41.867188 14.675781 L 42.429688 15.222656 L 44.734375 12.835938 C 44.921875 12.6875 45.015625 12.390625 45.015625 12.140625 C 45.015625 11.890625 44.921875 11.644531 44.734375 11.394531 C 44.542969 11.195312 44.261719 11.097656 44.027344 11.097656 C 43.792969 11.097656 43.558594 11.195312 43.324219 11.394531 L 41.070312 13.832031 L 41.632812 14.476562 L 43.980469 11.992188 C 44.027344 11.941406 44.121094 11.941406 44.167969 11.992188 C 44.214844 12.042969 44.214844 12.140625 44.167969 12.238281 Z M 44.167969 12.238281 "/>
<path style=" stroke:none;fill-rule:evenodd;fill:rgb(100%,100%,100%);fill-opacity:1;" d="M 45.578125 17.359375 L 43.230469 14.875 L 42.667969 15.519531 L 44.96875 17.90625 C 45.109375 18.152344 45.390625 18.253906 45.625 18.253906 C 45.859375 18.253906 46.09375 18.152344 46.328125 17.90625 C 46.515625 17.707031 46.609375 17.457031 46.609375 17.210938 C 46.609375 16.910156 46.515625 16.664062 46.328125 16.464844 L 44.027344 14.027344 L 43.417969 14.675781 L 45.765625 17.160156 L 45.765625 17.058594 C 45.8125 17.210938 45.8125 17.308594 45.765625 17.359375 C 45.71875 17.40625 45.625 17.40625 45.578125 17.359375 Z M 45.578125 17.359375 "/>
<path style=" stroke:none;fill-rule:evenodd;fill:rgb(100%,100%,100%);fill-opacity:1;" d="M 45.71875 13.679688 L 48.066406 16.066406 L 48.582031 15.519531 L 46.328125 13.085938 C 46.09375 12.886719 45.859375 12.785156 45.625 12.785156 C 45.390625 12.785156 45.109375 12.886719 44.921875 13.085938 C 44.734375 13.285156 44.640625 13.582031 44.640625 13.832031 C 44.640625 14.078125 44.734375 14.375 44.921875 14.527344 L 47.222656 16.910156 L 47.785156 16.363281 L 45.484375 13.878906 C 45.4375 13.832031 45.4375 13.730469 45.484375 13.679688 C 45.53125 13.582031 45.625 13.582031 45.71875 13.679688 Z M 45.71875 13.679688 "/>
<path style=" stroke:none;fill-rule:evenodd;fill:rgb(100%,100%,100%);fill-opacity:1;" d="M 50.601562 12.191406 L 48.253906 14.675781 L 48.820312 15.222656 L 51.121094 12.835938 C 51.308594 12.6875 51.355469 12.390625 51.355469 12.140625 C 51.355469 11.890625 51.308594 11.644531 51.121094 11.394531 C 50.933594 11.195312 50.695312 11.097656 50.414062 11.097656 C 50.179688 11.097656 49.945312 11.195312 49.757812 11.394531 L 47.457031 13.832031 L 48.019531 14.425781 L 50.320312 11.992188 C 50.367188 11.941406 50.460938 11.941406 50.601562 11.992188 C 50.648438 12.042969 50.648438 12.140625 50.601562 12.191406 Z M 50.601562 12.191406 "/>
<path style=" stroke:none;fill-rule:evenodd;fill:rgb(100%,100%,100%);fill-opacity:1;" d="M 47.082031 12.042969 L 49.382812 9.605469 L 48.820312 9.007812 L 46.515625 11.394531 C 46.328125 11.644531 46.234375 11.890625 46.234375 12.140625 C 46.234375 12.390625 46.328125 12.6875 46.515625 12.886719 C 46.707031 13.085938 46.941406 13.183594 47.222656 13.183594 C 47.457031 13.183594 47.691406 13.085938 47.878906 12.886719 L 50.179688 10.449219 L 49.570312 9.855469 L 47.316406 12.289062 C 47.222656 12.339844 47.128906 12.339844 47.082031 12.289062 C 46.988281 12.238281 46.988281 12.140625 47.082031 12.042969 Z M 47.082031 12.042969 "/>
<path style=" stroke:none;fill-rule:evenodd;fill:rgb(92.156982%,91.372681%,91.764832%);fill-opacity:1;" d="M 28.25 504.234375 C 28.25 504.382812 28.109375 504.480469 27.96875 504.480469 L 5.941406 504.480469 C 5.800781 504.480469 5.660156 504.382812 5.660156 504.234375 L 5.660156 2.699219 C 5.660156 2.550781 5.800781 2.398438 5.941406 2.398438 L 27.96875 2.398438 C 28.109375 2.398438 28.25 2.550781 28.25 2.699219 Z M 28.25 504.234375 "/>
<path style=" stroke:none;fill-rule:evenodd;fill:rgb(19.215393%,19.215393%,19.215393%);fill-opacity:1;" d="M 5.613281 504.628906 L 5.613281 508.058594 C 5.613281 508.058594 8.054688 510.691406 12.46875 508.207031 L 12.46875 504.53125 Z M 5.613281 504.628906 "/>
<path style=" stroke:none;fill-rule:evenodd;fill:rgb(19.215393%,19.215393%,19.215393%);fill-opacity:1;" d="M 230 504.628906 L 230 508.058594 C 230 508.058594 232.488281 510.691406 236.902344 508.207031 L 236.902344 504.53125 Z M 230 504.628906 "/>
<path style=" stroke:none;fill-rule:evenodd;fill:rgb(100%,100%,100%);fill-opacity:1;" d="M 213.65625 32.019531 L 28.0625 32.019531 L 28.0625 497.226562 L 213.796875 497.226562 L 213.796875 278.214844 L 197.832031 278.214844 L 197.832031 229.261719 L 213.65625 229.261719 Z M 213.65625 32.019531 "/>
<path style=" stroke:none;fill-rule:evenodd;fill:rgb(92.156982%,91.372681%,91.764832%);fill-opacity:1;" d="M 143.917969 100.949219 C 143.917969 101.792969 143.308594 102.4375 142.507812 102.4375 L 100.101562 102.4375 C 99.304688 102.4375 98.691406 101.792969 98.691406 100.949219 L 98.691406 78.632812 C 98.691406 77.789062 99.304688 77.144531 100.101562 77.144531 L 142.507812 77.144531 C 143.308594 77.144531 143.917969 77.789062 143.917969 78.632812 Z M 143.917969 100.949219 "/>
<path style=" stroke:none;fill-rule:evenodd;fill:rgb(50.196838%,50.196838%,50.196838%);fill-opacity:1;" d="M 141.101562 98.5625 C 141.101562 99.058594 140.722656 99.457031 140.253906 99.457031 L 102.355469 99.457031 C 101.886719 99.457031 101.511719 99.058594 101.511719 98.5625 L 101.511719 88.125 C 101.511719 87.679688 101.886719 87.230469 102.355469 87.230469 L 140.253906 87.230469 C 140.722656 87.230469 141.101562 87.679688 141.101562 88.125 Z M 141.101562 98.5625 "/>
<path style=" stroke:none;fill-rule:evenodd;fill:rgb(25.881958%,25.881958%,25.881958%);fill-opacity:1;" d="M 140.253906 98.265625 C 140.253906 98.414062 140.113281 98.5625 139.972656 98.5625 L 102.589844 98.5625 C 102.449219 98.5625 102.355469 98.414062 102.355469 98.265625 L 102.355469 88.472656 C 102.355469 88.324219 102.449219 88.125 102.589844 88.125 L 139.972656 88.125 C 140.113281 88.125 140.253906 88.324219 140.253906 88.472656 Z M 140.253906 98.265625 "/>
<path style=" stroke:none;fill-rule:evenodd;fill:rgb(50.196838%,50.196838%,50.196838%);fill-opacity:1;" d="M 127.667969 94.6875 C 127.667969 96.277344 126.496094 97.519531 124.992188 97.519531 C 123.488281 97.519531 122.316406 96.277344 122.316406 94.6875 C 122.316406 93.144531 123.488281 91.851562 124.992188 91.851562 C 126.496094 91.851562 127.667969 93.144531 127.667969 94.6875 "/>
<path style=" stroke:none;fill-rule:evenodd;fill:rgb(50.196838%,50.196838%,50.196838%);fill-opacity:1;" d="M 136.121094 94.6875 C 136.121094 96.277344 134.949219 97.519531 133.445312 97.519531 C 131.988281 97.519531 130.769531 96.277344 130.769531 94.6875 C 130.769531 93.144531 131.988281 91.851562 133.445312 91.851562 C 134.949219 91.851562 136.121094 93.144531 136.121094 94.6875 "/>
<path style=" stroke:none;fill-rule:evenodd;fill:rgb(50.196838%,50.196838%,50.196838%);fill-opacity:1;" d="M 107.710938 94.6875 C 107.710938 95.332031 107.238281 95.929688 106.582031 95.929688 C 105.972656 95.929688 105.457031 95.332031 105.457031 94.6875 C 105.457031 94.039062 105.972656 93.492188 106.582031 93.492188 C 107.238281 93.492188 107.710938 94.039062 107.710938 94.6875 "/>
<path style=" stroke:none;fill-rule:evenodd;fill:rgb(50.196838%,50.196838%,50.196838%);fill-opacity:1;" d="M 113.390625 94.6875 C 113.390625 95.332031 112.875 95.929688 112.21875 95.929688 C 111.65625 95.929688 111.089844 95.332031 111.089844 94.6875 C 111.089844 94.039062 111.65625 93.492188 112.21875 93.492188 C 112.875 93.492188 113.390625 94.039062 113.390625 94.6875 "/>
<path style=" stroke:none;fill-rule:evenodd;fill:rgb(50.196838%,50.196838%,50.196838%);fill-opacity:1;" d="M 119.027344 94.6875 C 119.027344 95.332031 118.558594 95.929688 117.902344 95.929688 C 117.289062 95.929688 116.820312 95.332031 116.820312 94.6875 C 116.820312 94.039062 117.289062 93.492188 117.902344 93.492188 C 118.558594 93.492188 119.027344 94.039062 119.027344 94.6875 "/>
<path style=" stroke:none;fill-rule:evenodd;fill:rgb(74.510193%,75.294495%,76.078796%);fill-opacity:1;" d="M 107.144531 91.40625 C 106.957031 91.304688 106.769531 91.207031 106.582031 91.207031 C 106.394531 91.207031 106.207031 91.304688 106.066406 91.40625 C 105.925781 91.554688 105.832031 91.753906 105.832031 91.953125 C 105.832031 92.199219 105.925781 92.398438 106.066406 92.550781 C 106.207031 92.648438 106.394531 92.746094 106.582031 92.746094 C 106.769531 92.746094 106.957031 92.648438 107.144531 92.550781 C 107.285156 92.398438 107.332031 92.199219 107.332031 91.953125 C 107.332031 91.753906 107.285156 91.554688 107.144531 91.40625 Z M 106.207031 91.503906 C 106.300781 91.40625 106.441406 91.355469 106.582031 91.355469 C 106.722656 91.355469 106.863281 91.40625 107.003906 91.503906 C 107.144531 91.605469 107.191406 91.753906 107.238281 91.902344 L 106.675781 92.300781 L 106.675781 91.457031 L 105.972656 91.902344 C 105.972656 91.753906 106.066406 91.605469 106.207031 91.503906 Z M 107.003906 92.449219 C 106.863281 92.550781 106.722656 92.597656 106.582031 92.597656 C 106.441406 92.597656 106.300781 92.550781 106.207031 92.449219 C 106.019531 92.351562 105.972656 92.199219 105.972656 92.003906 L 106.535156 91.65625 L 106.535156 92.449219 L 107.238281 92.003906 C 107.191406 92.199219 107.144531 92.351562 107.003906 92.449219 Z M 107.003906 92.449219 "/>
<path style=" stroke:none;fill-rule:evenodd;fill:rgb(74.510193%,75.294495%,76.078796%);fill-opacity:1;" d="M 117.902344 91.207031 L 117.007812 92.746094 L 118.839844 92.746094 Z M 117.902344 91.207031 "/>
<path style=" stroke:none;fill-rule:evenodd;fill:rgb(74.510193%,75.294495%,76.078796%);fill-opacity:1;" d="M 117.902344 91.40625 L 118.652344 92.648438 L 117.195312 92.648438 Z M 117.902344 91.40625 "/>
<path style=" stroke:none;fill-rule:evenodd;fill:rgb(74.510193%,75.294495%,76.078796%);fill-opacity:1;" d="M 117.949219 91.703125 C 117.949219 91.703125 117.949219 91.65625 117.902344 91.65625 C 117.902344 91.65625 117.851562 91.703125 117.851562 91.703125 C 117.851562 91.703125 117.851562 91.753906 117.851562 91.753906 C 117.851562 91.753906 117.851562 91.851562 117.851562 91.953125 C 117.851562 92.101562 117.851562 92.199219 117.851562 92.300781 C 117.851562 92.300781 117.902344 92.300781 117.902344 92.300781 C 117.949219 92.300781 117.949219 92.300781 117.949219 92.300781 C 117.949219 92.199219 117.949219 92.101562 117.949219 91.953125 C 117.949219 91.851562 117.996094 91.753906 117.996094 91.753906 C 117.996094 91.753906 117.949219 91.703125 117.949219 91.703125 "/>
<path style=" stroke:none;fill-rule:evenodd;fill:rgb(74.510193%,75.294495%,76.078796%);fill-opacity:1;" d="M 117.996094 92.449219 C 117.996094 92.5 117.996094 92.5 117.949219 92.5 C 117.949219 92.5 117.949219 92.550781 117.902344 92.550781 C 117.902344 92.550781 117.851562 92.5 117.851562 92.5 C 117.851562 92.5 117.851562 92.5 117.851562 92.449219 C 117.851562 92.449219 117.851562 92.398438 117.851562 92.398438 C 117.851562 92.398438 117.902344 92.398438 117.902344 92.398438 C 117.949219 92.398438 117.949219 92.398438 117.949219 92.398438 C 117.996094 92.398438 117.996094 92.449219 117.996094 92.449219 "/>
<path style=" stroke:none;fill-rule:evenodd;fill:rgb(74.510193%,75.294495%,76.078796%);fill-opacity:1;" d="M 112.921875 91.65625 C 112.828125 91.457031 112.734375 91.355469 112.59375 91.257812 L 112.546875 91.40625 C 112.640625 91.457031 112.734375 91.554688 112.78125 91.703125 C 112.921875 92.003906 112.828125 92.398438 112.5 92.550781 C 112.171875 92.699219 111.84375 92.550781 111.703125 92.25 C 111.558594 91.902344 111.703125 91.554688 111.984375 91.40625 L 111.9375 91.257812 C 111.558594 91.457031 111.371094 91.902344 111.609375 92.300781 C 111.75 92.699219 112.171875 92.847656 112.59375 92.699219 C 112.921875 92.5 113.109375 92.003906 112.921875 91.65625 Z M 112.921875 91.65625 "/>
<path style=" stroke:none;fill-rule:evenodd;fill:rgb(74.510193%,75.294495%,76.078796%);fill-opacity:1;" d="M 112.21875 91.15625 C 112.171875 91.15625 112.125 91.207031 112.125 91.257812 C 112.125 91.304688 112.171875 91.355469 112.21875 91.355469 C 112.265625 91.355469 112.359375 91.304688 112.40625 91.257812 C 112.40625 91.207031 112.359375 91.15625 112.21875 91.15625 "/>
<path style=" stroke:none;fill-rule:evenodd;fill:rgb(74.510193%,75.294495%,76.078796%);fill-opacity:1;" d="M 133.960938 90.015625 L 133.960938 89.765625 C 133.960938 89.667969 133.914062 89.515625 133.820312 89.417969 C 133.726562 89.367188 133.585938 89.320312 133.445312 89.320312 C 133.304688 89.320312 133.210938 89.367188 133.117188 89.417969 C 133.023438 89.515625 132.976562 89.667969 132.976562 89.765625 L 132.976562 90.015625 L 132.882812 90.015625 L 132.882812 91.058594 L 134.054688 91.058594 L 134.054688 90.015625 Z M 133.070312 89.765625 C 133.070312 89.667969 133.117188 89.617188 133.210938 89.515625 C 133.257812 89.46875 133.351562 89.417969 133.445312 89.417969 C 133.585938 89.417969 133.679688 89.46875 133.726562 89.515625 C 133.820312 89.617188 133.820312 89.667969 133.820312 89.765625 L 133.820312 90.015625 L 133.070312 90.015625 Z M 133.960938 90.910156 L 132.976562 90.910156 L 132.976562 90.113281 L 133.960938 90.113281 Z M 133.960938 90.910156 "/>
<path style=" stroke:none;fill-rule:evenodd;fill:rgb(74.510193%,75.294495%,76.078796%);fill-opacity:1;" d="M 133.632812 90.859375 L 133.539062 90.5625 C 133.585938 90.511719 133.585938 90.511719 133.585938 90.511719 C 133.632812 90.460938 133.632812 90.460938 133.632812 90.410156 C 133.632812 90.363281 133.632812 90.363281 133.585938 90.3125 C 133.585938 90.3125 133.539062 90.261719 133.445312 90.261719 C 133.445312 90.261719 133.398438 90.261719 133.351562 90.3125 C 133.351562 90.3125 133.304688 90.3125 133.304688 90.363281 C 133.304688 90.410156 133.304688 90.410156 133.304688 90.460938 C 133.304688 90.511719 133.351562 90.511719 133.351562 90.5625 L 133.304688 90.859375 Z M 133.632812 90.859375 "/>
<path style=" stroke:none;fill-rule:evenodd;fill:rgb(74.510193%,75.294495%,76.078796%);fill-opacity:1;" d="M 137.671875 94.140625 C 137.671875 93.890625 137.53125 93.742188 137.34375 93.691406 C 137.34375 93.691406 137.296875 93.742188 137.296875 93.792969 L 137.4375 94.089844 C 137.4375 94.089844 137.4375 94.140625 137.4375 94.140625 L 137.296875 94.1875 C 137.296875 94.1875 137.25 94.1875 137.25 94.1875 L 137.109375 93.988281 C 137.109375 93.890625 137.109375 93.890625 137.015625 93.890625 C 136.96875 93.890625 136.96875 93.890625 136.96875 93.890625 C 136.921875 93.988281 136.921875 94.039062 136.921875 94.140625 C 136.921875 94.238281 136.96875 94.339844 137.109375 94.386719 C 137.15625 94.4375 137.15625 94.488281 137.15625 94.535156 L 137.15625 95.332031 C 137.15625 95.382812 137.203125 95.429688 137.25 95.429688 L 137.34375 95.429688 C 137.390625 95.429688 137.4375 95.382812 137.4375 95.332031 L 137.4375 94.585938 C 137.4375 94.535156 137.484375 94.488281 137.53125 94.4375 C 137.625 94.386719 137.671875 94.238281 137.671875 94.140625 Z M 137.671875 94.140625 "/>
<path style=" stroke:none;fill-rule:evenodd;fill:rgb(74.510193%,75.294495%,76.078796%);fill-opacity:1;" d="M 136.683594 94.6875 C 136.683594 94.734375 136.636719 94.882812 136.542969 94.882812 C 136.449219 94.882812 136.402344 94.734375 136.402344 94.6875 C 136.402344 94.585938 136.449219 94.535156 136.542969 94.535156 C 136.636719 94.535156 136.683594 94.585938 136.683594 94.6875 "/>
<path style=" stroke:none;fill-rule:evenodd;fill:rgb(74.510193%,75.294495%,76.078796%);fill-opacity:1;" d="M 133.632812 91.457031 C 133.632812 91.503906 133.539062 91.605469 133.445312 91.605469 C 133.351562 91.605469 133.304688 91.503906 133.304688 91.457031 C 133.304688 91.355469 133.351562 91.304688 133.445312 91.304688 C 133.539062 91.304688 133.632812 91.355469 133.632812 91.457031 "/>
<path style=" stroke:none;fill-rule:evenodd;fill:rgb(74.510193%,75.294495%,76.078796%);fill-opacity:1;" d="M 111.230469 96.773438 L 111.042969 96.375 L 111.183594 96.375 L 111.371094 96.671875 L 111.558594 96.375 L 111.703125 96.375 L 111.417969 96.773438 L 111.703125 97.171875 L 111.558594 97.171875 L 111.324219 96.871094 L 111.183594 97.171875 L 111.042969 97.171875 Z M 111.230469 96.773438 "/>
<path style=" stroke:none;fill-rule:evenodd;fill:rgb(74.510193%,75.294495%,76.078796%);fill-opacity:1;" d="M 112.171875 96.523438 C 112.125 96.523438 112.078125 96.476562 112.03125 96.476562 C 111.984375 96.476562 111.9375 96.523438 111.9375 96.625 C 111.9375 96.773438 112.21875 96.671875 112.21875 96.972656 C 112.21875 97.121094 112.125 97.171875 111.984375 97.171875 C 111.890625 97.171875 111.890625 97.171875 111.796875 97.171875 L 111.796875 97.023438 C 111.84375 97.070312 111.9375 97.070312 111.984375 97.070312 C 112.03125 97.070312 112.078125 97.070312 112.078125 96.972656 C 112.078125 96.824219 111.796875 96.921875 111.796875 96.625 C 111.796875 96.425781 111.890625 96.375 112.03125 96.375 C 112.078125 96.375 112.171875 96.375 112.21875 96.425781 Z M 112.171875 96.523438 "/>
<path style=" stroke:none;fill-rule:evenodd;fill:rgb(74.510193%,75.294495%,76.078796%);fill-opacity:1;" d="M 112.921875 97.171875 C 112.875 97.171875 112.828125 97.171875 112.78125 97.171875 C 112.546875 97.171875 112.359375 97.070312 112.359375 96.824219 C 112.359375 96.523438 112.546875 96.375 112.78125 96.375 C 112.828125 96.375 112.875 96.375 112.921875 96.425781 L 112.921875 96.523438 C 112.875 96.523438 112.828125 96.476562 112.78125 96.476562 C 112.640625 96.476562 112.546875 96.625 112.546875 96.824219 C 112.546875 96.972656 112.59375 97.070312 112.78125 97.070312 C 112.828125 97.070312 112.875 97.070312 112.921875 97.023438 Z M 112.921875 97.171875 "/>
<path style=" stroke:none;fill-rule:evenodd;fill:rgb(74.510193%,75.294495%,76.078796%);fill-opacity:1;" d="M 113.015625 96.375 L 113.484375 96.375 L 113.484375 96.523438 L 113.15625 96.523438 L 113.15625 96.671875 L 113.4375 96.671875 L 113.4375 96.871094 L 113.15625 96.871094 L 113.15625 97.171875 L 113.015625 97.171875 Z M 113.015625 96.375 "/>
<path style=" stroke:none;fill-rule:evenodd;fill:rgb(70.196533%,70.588684%,70.588684%);fill-opacity:1;" d="M 135.746094 94.6875 C 135.746094 96.027344 134.714844 97.070312 133.445312 97.070312 C 132.222656 97.070312 131.191406 96.027344 131.191406 94.6875 C 131.191406 93.394531 132.222656 92.300781 133.445312 92.300781 C 134.714844 92.300781 135.746094 93.394531 135.746094 94.6875 "/>
<path style=" stroke:none;fill-rule:evenodd;fill:rgb(94.902039%,94.902039%,94.902039%);fill-opacity:1;" d="M 135.136719 94.6875 C 135.136719 95.679688 134.429688 96.476562 133.445312 96.476562 C 132.503906 96.476562 131.800781 95.679688 131.800781 94.6875 C 131.800781 93.691406 132.503906 92.898438 133.445312 92.898438 C 134.429688 92.898438 135.136719 93.691406 135.136719 94.6875 "/>
<path style=" stroke:none;fill-rule:evenodd;fill:rgb(60.00061%,60.00061%,60.00061%);fill-opacity:1;" d="M 134.855469 94.6875 C 134.855469 95.53125 134.242188 96.175781 133.445312 96.175781 C 132.695312 96.175781 132.035156 95.53125 132.035156 94.6875 C 132.035156 93.839844 132.695312 93.246094 133.445312 93.246094 C 134.242188 93.246094 134.855469 93.839844 134.855469 94.6875 "/>
<path style=" stroke:none;fill-rule:evenodd;fill:rgb(19.999695%,19.999695%,19.999695%);fill-opacity:1;" d="M 133.304688 94.039062 L 133.304688 95.382812 L 133.632812 95.382812 L 133.632812 94.039062 Z M 133.304688 94.039062 "/>
<path style=" stroke:none;fill-rule:evenodd;fill:rgb(39.99939%,40.391541%,39.99939%);fill-opacity:1;" d="M 127.199219 94.6875 C 127.199219 96.027344 126.214844 97.070312 124.992188 97.070312 C 123.722656 97.070312 122.691406 96.027344 122.691406 94.6875 C 122.691406 93.394531 123.722656 92.300781 124.992188 92.300781 C 126.214844 92.300781 127.199219 93.394531 127.199219 94.6875 "/>
<path style=" stroke:none;fill-rule:evenodd;fill:rgb(54.902649%,77.6474%,25.097656%);fill-opacity:1;" d="M 107.332031 94.6875 C 107.332031 95.132812 106.957031 95.429688 106.582031 95.429688 C 106.207031 95.429688 105.878906 95.132812 105.878906 94.6875 C 105.878906 94.289062 106.207031 93.988281 106.582031 93.988281 C 106.957031 93.988281 107.332031 94.289062 107.332031 94.6875 "/>
<path style=" stroke:none;fill-rule:evenodd;fill:rgb(54.902649%,77.6474%,25.097656%);fill-opacity:1;" d="M 112.96875 94.6875 C 112.96875 95.132812 112.640625 95.429688 112.21875 95.429688 C 111.84375 95.429688 111.558594 95.132812 111.558594 94.6875 C 111.558594 94.289062 111.84375 93.988281 112.21875 93.988281 C 112.640625 93.988281 112.96875 94.289062 112.96875 94.6875 "/>
<path style=" stroke:none;fill-rule:evenodd;fill:rgb(98.039246%,92.941284%,13.725281%);fill-opacity:1;" d="M 118.652344 94.6875 C 118.652344 95.132812 118.277344 95.429688 117.902344 95.429688 C 117.476562 95.429688 117.195312 95.132812 117.195312 94.6875 C 117.195312 94.289062 117.476562 93.988281 117.902344 93.988281 C 118.277344 93.988281 118.652344 94.289062 118.652344 94.6875 "/>
<path style=" stroke:none;fill-rule:evenodd;fill:rgb(19.999695%,19.999695%,19.999695%);fill-opacity:1;" d="M 124.898438 93.492188 L 124.898438 94.734375 L 125.085938 94.734375 L 125.085938 93.492188 Z M 124.898438 93.492188 "/>
<path style=" stroke:none;fill-rule:evenodd;fill:rgb(19.999695%,19.999695%,19.999695%);fill-opacity:1;" d="M 124.617188 93.988281 L 124.523438 93.792969 C 124.335938 93.890625 124.148438 94.140625 124.050781 94.386719 C 124.003906 94.636719 124.003906 94.933594 124.097656 95.183594 C 124.195312 95.382812 124.382812 95.582031 124.570312 95.679688 C 124.851562 95.828125 125.132812 95.828125 125.320312 95.679688 C 125.601562 95.582031 125.789062 95.382812 125.882812 95.183594 C 125.976562 94.933594 125.976562 94.636719 125.882812 94.386719 C 125.789062 94.140625 125.648438 93.890625 125.367188 93.792969 L 125.320312 93.988281 C 125.460938 94.089844 125.648438 94.238281 125.742188 94.4375 C 125.789062 94.636719 125.789062 94.882812 125.695312 95.082031 C 125.648438 95.28125 125.460938 95.429688 125.273438 95.53125 C 125.085938 95.582031 124.898438 95.582031 124.664062 95.53125 C 124.476562 95.429688 124.335938 95.28125 124.242188 95.082031 C 124.148438 94.882812 124.148438 94.636719 124.242188 94.4375 C 124.289062 94.238281 124.429688 94.089844 124.617188 93.988281 Z M 124.617188 93.988281 "/>
<path style=" stroke:none;fill-rule:evenodd;fill:rgb(44.313049%,43.920898%,45.097351%);fill-opacity:1;" d="M 101.980469 82.011719 C 101.980469 82.113281 101.980469 82.410156 102.355469 82.410156 C 102.589844 82.410156 102.777344 82.3125 102.777344 82.113281 C 102.777344 81.964844 102.683594 81.914062 102.355469 81.863281 C 101.886719 81.664062 101.558594 81.515625 101.558594 81.117188 C 101.558594 80.722656 101.839844 80.421875 102.402344 80.421875 C 102.683594 80.421875 102.917969 80.472656 103.105469 80.671875 C 103.203125 80.871094 103.203125 81.070312 103.203125 81.117188 L 102.777344 81.117188 C 102.777344 81.070312 102.730469 80.722656 102.402344 80.722656 C 102.214844 80.722656 102.074219 80.921875 102.074219 81.070312 C 102.074219 81.269531 102.214844 81.316406 102.496094 81.417969 C 102.917969 81.464844 103.25 81.566406 103.25 82.0625 C 103.25 82.460938 102.964844 82.808594 102.355469 82.808594 C 101.511719 82.808594 101.511719 82.210938 101.511719 82.011719 Z M 101.980469 82.011719 "/>
<path style=" stroke:none;fill-rule:evenodd;fill:rgb(44.313049%,43.920898%,45.097351%);fill-opacity:1;" d="M 103.625 80.472656 L 104.234375 80.472656 C 104.609375 80.472656 104.84375 80.472656 105.03125 80.671875 C 105.125 80.871094 105.125 81.019531 105.125 81.167969 C 105.125 81.417969 105.03125 81.617188 104.890625 81.714844 C 104.703125 81.863281 104.515625 81.863281 104.421875 81.863281 L 104.046875 81.863281 L 104.046875 82.757812 L 103.625 82.757812 Z M 104.046875 81.464844 L 104.234375 81.464844 C 104.421875 81.464844 104.703125 81.464844 104.703125 81.167969 C 104.703125 80.871094 104.421875 80.871094 104.28125 80.871094 L 104.046875 80.871094 Z M 104.046875 81.464844 "/>
<path style=" stroke:none;fill-rule:evenodd;fill:rgb(44.313049%,43.920898%,45.097351%);fill-opacity:1;" d="M 106.394531 80.472656 L 107.144531 82.757812 L 106.628906 82.757812 L 106.488281 82.261719 L 105.644531 82.261719 L 105.503906 82.757812 L 105.03125 82.757812 L 105.785156 80.472656 Z M 106.394531 80.472656 "/>
<path style=" stroke:none;fill-rule:evenodd;fill:rgb(44.313049%,43.920898%,45.097351%);fill-opacity:1;" d="M 106.394531 81.914062 L 106.066406 80.921875 L 105.738281 81.914062 Z M 106.394531 81.914062 "/>
<path style=" stroke:none;fill-rule:evenodd;fill:rgb(44.313049%,43.920898%,45.097351%);fill-opacity:1;" d="M 107.378906 80.472656 L 108.179688 80.472656 C 108.414062 80.472656 108.648438 80.472656 108.882812 80.621094 C 108.976562 80.722656 109.070312 80.921875 109.070312 81.070312 C 109.070312 81.464844 108.695312 81.566406 108.554688 81.617188 C 108.929688 81.617188 108.929688 81.863281 108.976562 82.164062 C 109.023438 82.410156 109.023438 82.511719 109.070312 82.558594 C 109.070312 82.710938 109.070312 82.710938 109.117188 82.757812 L 108.601562 82.757812 C 108.554688 82.609375 108.507812 82.0625 108.460938 81.964844 C 108.414062 81.863281 108.320312 81.863281 108.273438 81.863281 L 107.804688 81.863281 L 107.804688 82.757812 L 107.378906 82.757812 Z M 107.804688 81.464844 L 108.226562 81.464844 C 108.273438 81.464844 108.367188 81.464844 108.414062 81.367188 C 108.460938 81.367188 108.554688 81.269531 108.554688 81.117188 C 108.554688 80.96875 108.460938 80.921875 108.414062 80.871094 C 108.367188 80.769531 108.273438 80.769531 108.132812 80.769531 L 107.804688 80.769531 Z M 107.804688 81.464844 "/>
<path style=" stroke:none;fill-rule:evenodd;fill:rgb(44.313049%,43.920898%,45.097351%);fill-opacity:1;" d="M 110.621094 81.21875 C 110.621094 81.117188 110.621094 80.769531 110.246094 80.769531 C 109.917969 80.769531 109.777344 81.167969 109.777344 81.617188 C 109.777344 81.816406 109.777344 82.410156 110.199219 82.410156 C 110.386719 82.410156 110.621094 82.3125 110.621094 82.011719 L 111.089844 82.011719 C 111.089844 82.164062 111.089844 82.359375 110.902344 82.511719 C 110.714844 82.757812 110.433594 82.808594 110.246094 82.808594 C 109.496094 82.808594 109.257812 82.210938 109.257812 81.617188 C 109.257812 80.96875 109.636719 80.421875 110.246094 80.421875 C 110.761719 80.421875 111.089844 80.722656 111.089844 81.21875 Z M 110.621094 81.21875 "/>
<path style=" stroke:none;fill-rule:evenodd;fill:rgb(44.313049%,43.920898%,45.097351%);fill-opacity:1;" d="M 112.21875 80.472656 L 113.671875 80.472656 L 113.671875 80.871094 L 112.6875 80.871094 L 112.6875 81.367188 L 113.625 81.367188 L 113.625 81.714844 L 112.6875 81.714844 L 112.6875 82.359375 L 113.722656 82.359375 L 113.722656 82.757812 L 112.21875 82.757812 Z M 112.21875 80.472656 "/>
<path style=" stroke:none;fill-rule:evenodd;fill:rgb(44.313049%,43.920898%,45.097351%);fill-opacity:1;" d="M 114.050781 80.472656 L 114.707031 80.472656 L 115.550781 82.261719 L 115.550781 80.472656 L 116.023438 80.472656 L 116.023438 82.757812 L 115.363281 82.757812 L 114.519531 80.871094 L 114.519531 82.757812 L 114.050781 82.757812 Z M 114.050781 80.472656 "/>
<path style=" stroke:none;fill-rule:evenodd;fill:rgb(44.313049%,43.920898%,45.097351%);fill-opacity:1;" d="M 116.914062 80.871094 L 116.210938 80.871094 L 116.210938 80.472656 L 117.996094 80.472656 L 117.996094 80.871094 L 117.335938 80.871094 L 117.335938 82.757812 L 116.914062 82.757812 Z M 116.914062 80.871094 "/>
<path style=" stroke:none;fill-rule:evenodd;fill:rgb(44.313049%,43.920898%,45.097351%);fill-opacity:1;" d="M 118.230469 80.472656 L 119.683594 80.472656 L 119.683594 80.871094 L 118.699219 80.871094 L 118.699219 81.367188 L 119.636719 81.367188 L 119.636719 81.714844 L 118.699219 81.714844 L 118.699219 82.359375 L 119.730469 82.359375 L 119.730469 82.757812 L 118.230469 82.757812 Z M 118.230469 80.472656 "/>
<path style=" stroke:none;fill-rule:evenodd;fill:rgb(44.313049%,43.920898%,45.097351%);fill-opacity:1;" d="M 120.015625 80.472656 L 120.859375 80.472656 C 121.09375 80.472656 121.375 80.472656 121.515625 80.621094 C 121.65625 80.722656 121.703125 80.921875 121.703125 81.070312 C 121.703125 81.464844 121.375 81.566406 121.28125 81.617188 C 121.5625 81.617188 121.609375 81.863281 121.65625 82.164062 C 121.65625 82.410156 121.703125 82.511719 121.703125 82.558594 C 121.75 82.710938 121.75 82.710938 121.75 82.757812 L 121.28125 82.757812 C 121.28125 82.609375 121.1875 82.0625 121.1875 81.964844 C 121.09375 81.863281 121 81.863281 120.90625 81.863281 L 120.53125 81.863281 L 120.53125 82.757812 L 120.015625 82.757812 Z M 120.484375 81.464844 L 120.859375 81.464844 C 120.90625 81.464844 121 81.464844 121.09375 81.367188 C 121.1875 81.367188 121.234375 81.269531 121.234375 81.117188 C 121.234375 80.96875 121.1875 80.921875 121.09375 80.871094 C 121 80.769531 120.953125 80.769531 120.8125 80.769531 L 120.484375 80.769531 Z M 120.484375 81.464844 "/>
<path style=" stroke:none;fill-rule:evenodd;fill:rgb(44.313049%,43.920898%,45.097351%);fill-opacity:1;" d="M 122.082031 80.472656 L 122.691406 80.472656 C 123.066406 80.472656 123.300781 80.472656 123.488281 80.671875 C 123.582031 80.871094 123.582031 81.019531 123.582031 81.167969 C 123.582031 81.417969 123.488281 81.617188 123.347656 81.714844 C 123.160156 81.863281 122.972656 81.863281 122.832031 81.863281 L 122.503906 81.863281 L 122.503906 82.757812 L 122.082031 82.757812 Z M 122.503906 81.464844 L 122.691406 81.464844 C 122.832031 81.464844 123.160156 81.464844 123.160156 81.167969 C 123.160156 80.871094 122.878906 80.871094 122.738281 80.871094 L 122.503906 80.871094 Z M 122.503906 81.464844 "/>
<path style=" stroke:none;fill-rule:evenodd;fill:rgb(44.313049%,43.920898%,45.097351%);fill-opacity:1;" d="M 123.910156 80.472656 L 124.664062 80.472656 C 124.945312 80.472656 125.179688 80.472656 125.367188 80.621094 C 125.460938 80.722656 125.507812 80.921875 125.507812 81.070312 C 125.507812 81.464844 125.179688 81.566406 125.085938 81.617188 C 125.414062 81.617188 125.414062 81.863281 125.460938 82.164062 C 125.507812 82.410156 125.507812 82.511719 125.507812 82.558594 C 125.601562 82.710938 125.601562 82.710938 125.648438 82.757812 L 125.085938 82.757812 C 125.085938 82.609375 125.039062 82.0625 124.992188 81.964844 C 124.945312 81.863281 124.851562 81.863281 124.757812 81.863281 L 124.335938 81.863281 L 124.335938 82.757812 L 123.910156 82.757812 Z M 124.335938 81.464844 L 124.664062 81.464844 C 124.757812 81.464844 124.898438 81.464844 124.945312 81.367188 C 124.992188 81.367188 125.085938 81.269531 125.085938 81.117188 C 125.085938 80.96875 124.992188 80.921875 124.945312 80.871094 C 124.898438 80.769531 124.804688 80.769531 124.617188 80.769531 L 124.335938 80.769531 Z M 124.335938 81.464844 "/>
<path style=" stroke:none;fill-rule:evenodd;fill:rgb(44.313049%,43.920898%,45.097351%);fill-opacity:1;" d="M 125.882812 80.421875 L 125.882812 82.757812 L 126.308594 82.757812 L 126.308594 80.421875 Z M 125.882812 80.421875 "/>
<path style=" stroke:none;fill-rule:evenodd;fill:rgb(44.313049%,43.920898%,45.097351%);fill-opacity:1;" d="M 127.105469 82.011719 C 127.105469 82.113281 127.105469 82.410156 127.527344 82.410156 C 127.761719 82.410156 127.902344 82.3125 127.902344 82.113281 C 127.902344 81.964844 127.761719 81.914062 127.527344 81.863281 C 126.964844 81.664062 126.730469 81.515625 126.730469 81.117188 C 126.730469 80.722656 126.964844 80.421875 127.574219 80.421875 C 127.761719 80.421875 128.042969 80.472656 128.183594 80.671875 C 128.375 80.871094 128.375 81.070312 128.375 81.117188 L 127.902344 81.117188 C 127.855469 81.070312 127.855469 80.722656 127.527344 80.722656 C 127.292969 80.722656 127.152344 80.921875 127.152344 81.070312 C 127.152344 81.269531 127.292969 81.316406 127.667969 81.417969 C 127.996094 81.464844 128.421875 81.566406 128.421875 82.0625 C 128.421875 82.460938 128.042969 82.808594 127.480469 82.808594 C 126.636719 82.808594 126.636719 82.210938 126.636719 82.011719 Z M 127.105469 82.011719 "/>
<path style=" stroke:none;fill-rule:evenodd;fill:rgb(44.313049%,43.920898%,45.097351%);fill-opacity:1;" d="M 128.75 80.472656 L 130.203125 80.472656 L 130.203125 80.871094 L 129.21875 80.871094 L 129.21875 81.367188 L 130.15625 81.367188 L 130.15625 81.714844 L 129.21875 81.714844 L 129.21875 82.359375 L 130.25 82.359375 L 130.25 82.757812 L 128.75 82.757812 Z M 128.75 80.472656 "/>
<path style=" stroke:none;fill-rule:evenodd;fill:rgb(44.313049%,43.920898%,45.097351%);fill-opacity:1;" d="M 131.378906 80.472656 L 132.128906 80.472656 L 132.554688 82.113281 L 133.070312 80.472656 L 133.820312 80.472656 L 133.820312 82.757812 L 133.351562 82.757812 L 133.351562 80.769531 L 132.789062 82.757812 L 132.363281 82.757812 L 131.847656 80.769531 L 131.847656 82.757812 L 131.378906 82.757812 Z M 131.378906 80.472656 "/>
<path style=" stroke:none;fill-rule:evenodd;fill:rgb(44.313049%,43.920898%,45.097351%);fill-opacity:1;" d="M 134.621094 82.164062 C 134.621094 82.3125 134.714844 82.410156 134.855469 82.410156 C 135.136719 82.410156 135.183594 82.0625 135.183594 81.714844 C 134.996094 81.914062 134.902344 81.914062 134.808594 81.914062 C 134.242188 81.914062 134.101562 81.417969 134.101562 81.167969 C 134.101562 80.722656 134.429688 80.375 134.902344 80.375 C 135.652344 80.375 135.652344 81.167969 135.652344 81.515625 C 135.652344 82.511719 135.371094 82.808594 134.808594 82.808594 C 134.714844 82.808594 134.101562 82.808594 134.101562 82.164062 Z M 135.136719 81.117188 C 135.136719 80.921875 135.042969 80.769531 134.855469 80.769531 C 134.667969 80.769531 134.570312 80.96875 134.570312 81.167969 C 134.570312 81.21875 134.621094 81.515625 134.855469 81.515625 C 135.089844 81.515625 135.136719 81.269531 135.136719 81.117188 Z M 135.136719 81.117188 "/>
<path style=" stroke:none;fill-rule:evenodd;fill:rgb(44.313049%,43.920898%,45.097351%);fill-opacity:1;" d="M 136.683594 80.375 C 136.96875 80.375 137.15625 80.570312 137.25 80.671875 C 137.34375 80.921875 137.4375 81.117188 137.4375 81.515625 C 137.4375 82.0625 137.34375 82.808594 136.636719 82.808594 C 136.074219 82.808594 135.886719 82.210938 135.886719 81.566406 C 135.886719 81.269531 135.933594 80.375 136.683594 80.375 Z M 136.875 81.070312 C 136.875 81.019531 136.828125 80.769531 136.683594 80.769531 C 136.542969 80.769531 136.496094 80.921875 136.449219 80.96875 C 136.402344 81.21875 136.402344 81.566406 136.402344 81.617188 C 136.402344 82.011719 136.449219 82.359375 136.683594 82.359375 C 136.921875 82.359375 136.96875 81.964844 136.96875 81.617188 C 136.96875 81.464844 136.921875 81.21875 136.875 81.070312 Z M 136.875 81.070312 "/>
<path style=" stroke:none;fill-rule:evenodd;fill:rgb(44.313049%,43.920898%,45.097351%);fill-opacity:1;" d="M 138.421875 80.375 C 138.703125 80.375 138.941406 80.570312 138.988281 80.671875 C 139.128906 80.921875 139.175781 81.117188 139.175781 81.515625 C 139.175781 82.0625 139.082031 82.808594 138.421875 82.808594 C 137.8125 82.808594 137.625 82.210938 137.625 81.566406 C 137.625 81.269531 137.71875 80.375 138.421875 80.375 Z M 138.65625 81.070312 C 138.609375 81.019531 138.5625 80.769531 138.421875 80.769531 C 138.28125 80.769531 138.234375 80.921875 138.234375 80.96875 C 138.140625 81.21875 138.140625 81.566406 138.140625 81.617188 C 138.140625 82.011719 138.1875 82.359375 138.421875 82.359375 C 138.65625 82.359375 138.703125 81.964844 138.703125 81.617188 C 138.703125 81.464844 138.703125 81.21875 138.65625 81.070312 Z M 138.65625 81.070312 "/>
<path style=" stroke:none;fill-rule:evenodd;fill:rgb(44.313049%,43.920898%,45.097351%);fill-opacity:1;" d="M 140.160156 80.375 C 140.441406 80.375 140.675781 80.570312 140.769531 80.671875 C 140.863281 80.921875 140.960938 81.117188 140.960938 81.515625 C 140.960938 82.0625 140.816406 82.808594 140.160156 82.808594 C 139.597656 82.808594 139.410156 82.210938 139.410156 81.566406 C 139.410156 81.269531 139.457031 80.375 140.160156 80.375 Z M 140.394531 81.070312 C 140.394531 81.019531 140.347656 80.769531 140.160156 80.769531 C 140.019531 80.769531 139.972656 80.921875 139.972656 80.96875 C 139.878906 81.21875 139.878906 81.566406 139.878906 81.617188 C 139.878906 82.011719 139.972656 82.359375 140.160156 82.359375 C 140.394531 82.359375 140.441406 81.964844 140.441406 81.617188 C 140.441406 81.464844 140.441406 81.21875 140.394531 81.070312 Z M 140.394531 81.070312 "/>
</g>
</svg>
